<svg id="e6c12887-9d2c-4f4a-b47c-571be50fe934" data-name="Layer 1" xmlns="http://www.w3.org/2000/svg"
     viewBox="0 0 999.99 1000">
    <defs>
        <style>
            .af64b4d5-5d74-418a-937d-78dbbb795d9e {
            fill: #1684f2;
            }

            .b730eec4-596a-4b85-aa68-66a5365d22cc {
            fill: #57b7ff;
            }

            .a920b286-fea2-4c1c-8925-06e1b1bfbbf2 {
            fill: #c0e7ff;
            }
        </style>
    </defs>
    <path class="af64b4d5-5d74-418a-937d-78dbbb795d9e"
          d="M656.24,0H93.75A93.89,93.89,0,0,0,0,93.75V614.58a93.89,93.89,0,0,0,93.75,93.75l409.9-2.75V585.17c0-53.34,9.93-68.22,60.34-85.31l177.09-60.41a71.88,71.88,0,0,1,9.16-2.08L750,93.75A93.89,93.89,0,0,0,656.24,0Z">
    </path>
    <path class="b730eec4-596a-4b85-aa68-66a5365d22cc"
          d="M971.74,548.49,794.66,488.24a41.78,41.78,0,0,0-26.83,0L590.74,548.49A41.73,41.73,0,0,0,562.49,588V725.53c0,152.09,146.25,242,199.59,269.75a41.29,41.29,0,0,0,38.33,0C853.74,967.53,1000,877.66,1000,725.53V588a41.73,41.73,0,0,0-28.25-39.46ZM929.16,684.7l-125,166.67a41.53,41.53,0,0,1-30.38,16.54c-1,0-2,.08-2.95.08a41.42,41.42,0,0,1-29.46-12.21L658,772.45A41.66,41.66,0,0,1,717,713.53l49.38,49.38,96.2-128.25a41.66,41.66,0,1,1,66.63,50Z">
    </path>
    <path class="a920b286-fea2-4c1c-8925-06e1b1bfbbf2"
          d="M297.2,404.8H215l-12.5,44.14h-71l75.59-239.08h98L380.7,448.94h-71Zm-12.87-45.61L256.19,259,227.87,359.19Z">
    </path>
    <path class="a920b286-fea2-4c1c-8925-06e1b1bfbbf2"
          d="M404.61,209.86h94.9c83.86,0,123.22,44.88,123.22,119.54S583.37,448.94,499.51,448.94h-94.9Zm95.27,185.75c40.09,0,56.64-19.5,56.64-66.21S540,263.2,499.88,263.2H469V395.61Z">
    </path>
</svg>
