<svg id="f525ff82-12f0-42be-b0ab-54c6822ce644" data-name="Layer 1" xmlns="http://www.w3.org/2000/svg"
     viewBox="0 0 882.18 989.48">
    <defs>
        <style>
            .a7a51a11-0b85-4d41-a1c2-3d6311a805fd {
            fill: #1684f2;
            }

            .fd5e2310-a0e2-4a60-9248-111c035aefe9 {
            fill: #c0e7ff;
            }

            .b4d5aa29-f79a-4fc9-8627-6dc77577d374 {
            fill: #fff;
            }

            .fb6f4d93-b04c-4d59-941e-9fb434ebbb18 {
            fill: #57b7ff;
            }
        </style>
    </defs>
    <path class="a7a51a11-0b85-4d41-a1c2-3d6311a805fd"
          d="M500,993.57c259.13-64.23,441.09-296.52,441.09-563.12V115.23A930.73,930.73,0,0,1,500,4.09,930.73,930.73,0,0,1,58.91,115.23V430.45C58.91,697.05,240.87,929.34,500,993.57Z"
          transform="translate(-58.91 -4.09)"></path>
    <path class="fd5e2310-a0e2-4a60-9248-111c035aefe9"
          d="M155.59,207.17V430.45A482.86,482.86,0,0,0,500,893.49a482.85,482.85,0,0,0,344.41-463V207.17A1032.35,1032.35,0,0,1,500,112.28,1032.35,1032.35,0,0,1,155.59,207.17Z"
          transform="translate(-58.91 -4.09)"></path>
    <ellipse class="b4d5aa29-f79a-4fc9-8627-6dc77577d374" cx="441.09" cy="494.74" rx="203.77" ry="203.47">
    </ellipse>
    <path class="fb6f4d93-b04c-4d59-941e-9fb434ebbb18"
          d="M382.83,498.83c0,64.51,52.56,117,117.17,117,25.89,0,49.15-8.51,67.27-24.62a99.68,99.68,0,0,0,10-10.31,25.46,25.46,0,0,0-39-32.69,49.27,49.27,0,0,1-4.87,5C524.63,561,513.39,565,500,565a66.13,66.13,0,1,1,37-121,25.45,25.45,0,1,0,28.52-42.15,116.67,116.67,0,0,0-65.53-20c-64.61,0-117.17,52.48-117.17,117Z"
          transform="translate(-58.91 -4.09)"></path>
</svg>
