<svg id="e6a9412d-0c01-4bef-85f9-df59b5f67da0" data-name="Capa 1"
              xmlns="http://www.w3.org/2000/svg" viewBox="0 0 285.17 229.17">
              <title>Contact</title>
              <defs>
                <style>
                  .b92f6692-8a6b-42cb-98ec-98d26c0b8107 {
                    fill: #b4c6e6;
                  }

                  .b98db039-3301-4f75-b6a0-550d5713779d {
                    fill: #eaeaea;
                  }

                  .ac3edf18-aba9-4e62-81db-0248c9d3ee4e {
                    fill: #f5d1ba;
                  }

                  .af170489-e9d4-4dda-a6fc-2671f0a80bf2 {
                    fill: #ed84ae;
                  }

                  .bbfcd252-0c9c-4616-b364-da0cc709b878 {
                    fill: #57455d;
                  }
                </style>
              </defs>
              <path class="b92f6692-8a6b-42cb-98ec-98d26c0b8107"
                d="M271.05,86.63c-4.83-3.86-10.44-6.48-15.81-9.48a42.22,42.22,0,0,1-15.69-14.21c-3.5-5.34-6.78-10.68-11.58-15a65.06,65.06,0,0,0-17.09-10.69c-27-12-58.59-18.32-88.1-18.09-27.47.21-55.15,7.28-78,22.84C26.61,54.35,10.5,72.67,4.42,94.14c-11,29.06-1,61.48,24.86,79.66,15.87,11.16,32.9,21,49.39,31.22,7.8,4.84,15.72,8.91,24.82,10.64a133.7,133.7,0,0,0,26.29,1.81,197,197,0,0,0,22-1.5q5.83,0,11.63-.23c13.87-.51,28-2.22,41.07-7.21a80,80,0,0,0,17.24-9c6.75-4.72,12.73-10.47,19.68-14.89,5.77-3.66,12.08-6.44,17.43-10.74a59.6,59.6,0,0,0,12.48-14.64C284.85,138,294.25,105.17,271.05,86.63Z" />
              <path class="b98db039-3301-4f75-b6a0-550d5713779d"
                d="M218,11.9c-16.22-3.74-32.78-2.43-49.25-3.73C151.55,6.82,135.22,1.3,117.93.49c-4.41-.2-8.83-.26-13.24-.28-3.54,0-7.63-.57-11.12.2-5.2,1.15-6.29,6.1-5.51,10.75s3,47.23,3.51,63.94A3.46,3.46,0,0,0,95,78.52a652.33,652.33,0,0,1,115.4,6.59,3.48,3.48,0,0,0,4.31-3.29l5.76-66.63A3.42,3.42,0,0,0,218,11.9Z" />
              <path class="ac3edf18-aba9-4e62-81db-0248c9d3ee4e"
                d="M218.22,78.05A82.29,82.29,0,0,0,212.31,64c-1.76-3.32-3.82-8-7.66-9.39-10.58-3.8-5.59,14.52-5,18.4,1.8,11.93,3.19,24.33,0,36.15s-12,23.09-24.87,24.38c-11.71,1.17-21.78-7.93-32.37-11.62a3.64,3.64,0,0,0-1-2.06C149,115,149,102.35,146.6,94.76c-1.22-3.84-3.41-9.21-7.56-10.8a3.3,3.3,0,0,0-3.51-1.32c-15.5,3.37-15.88,31.88-5,38,0,0,0,.07,0,.11-12.5,2.35-25.39,5.53-38,5.94-6,.19-12.51-.79-17.1-5-5.69-5.18-5.2-13.26-3.08-20,3.63-11.55,11.77-22,21.54-29,8.6-6.16,19.64-11.36,22-22.8,2.45-12-12.13-8.66-18.71-5.82-10.91,4.71-21.5,11.62-30.77,19-17,13.61-30.8,34.46-27,57.16a40.31,40.31,0,0,0,17.44,27.47c5.82,3.83,12.42,6.5,18.53,9.83,4.62,2.51,9.19,4.73,14.31,5.19l.93,46.16a3.47,3.47,0,0,0,2.5,3.29c13.9,3.52,27.81,7,42,9.42,13.14,2.21,26.65,4,39.9,1.79,1.55-.25,2.4-1.9,2.51-3.29l2.94-37.72c.47-5.95,0-13.09,1.53-18.84,1.35-5,8-6.46,12.06-9.19,15.17-10.22,25.08-27.14,27.32-45.22A74.18,74.18,0,0,0,218.22,78.05Z" />
              <path class="af170489-e9d4-4dda-a6fc-2671f0a80bf2"
                d="M223.58,94.22c-.36-5.33-.49-12.37-5.43-15.69s-11.51-1.16-16.59,1a3.27,3.27,0,0,0-1.68,2.94c1.46,19-.37,42.46-22.31,48.55a29.23,29.23,0,0,1-15.5,0c-4.55-1.25-7.91-4.64-12.24-6-3.31-1-5.35.45-7.74,2.56-2.59,2.29-7.51,4.24-10.88,3.11q-1.44-3-2.89-5.89c-1.06-2.14-1.93-4.28-4.28-5.24-3-1.22-7.38.28-10.35.86-4.7.92-9.39,2-14.17,2.48-7.57.72-16.36-.19-21.91-6-7.11-7.48-3.32-18.32.57-26.51A161,161,0,0,1,96.56,71.68c1.22-.73,2.48-1.43,3.77-2.08a3.43,3.43,0,0,0,1.23-4.67c-3.86-5.35-8.09-15.3-16-14.26-7.33,1-15,5.71-20.8,10C52,70,40.76,84.33,35.61,99.38s1.13,35.91,11.66,47.53c9.84,10.86,24.58,15.15,38.47,18.45A349.25,349.25,0,0,0,84.41,201c.08,5-.72,11.63,1.09,16.34s8.51,5.07,12.85,5.93a234.71,234.71,0,0,0,76.13,2.44c1.84-.24,3.39-1.37,3.41-3.41.09-9.58.53-19.14,1.43-28.68q.68-7.24,1.68-14.45c.58-4.12.62-9.21,2.12-13.08,1.36-3.48,5.86-4.39,8.87-6.16a61.41,61.41,0,0,0,8.35-6,63.3,63.3,0,0,0,13.27-15.71C221.49,125.08,224.58,109.39,223.58,94.22Z" />
              <path class="bbfcd252-0c9c-4616-b364-da0cc709b878"
                d="M148.94,91.24c-2.32-6-7.71-11.82-14.75-10-7.69,1.92-12,11-13.18,18.15a3.32,3.32,0,0,0,0,1.22,3.34,3.34,0,0,0,2.28,4,13.14,13.14,0,0,0,2.21.49c-2,1.49-1.37,5.44,1.77,5.44s3.73-4,1.71-5.48a16.24,16.24,0,0,0,6.62-2.84,19.18,19.18,0,0,0,2.78,4.75l-.1,0a2.22,2.22,0,0,0-1,.62,3.38,3.38,0,0,0-.88,2.12c0,.27.07.54.11.8a3,3,0,0,0,.77,1.33l.61.46a2.88,2.88,0,0,0,1.51.41h.22a2.29,2.29,0,0,0,1.16-.25,2.75,2.75,0,0,0,1.59-1.59,2.29,2.29,0,0,0,.25-1.13,6,6,0,0,0,3-.16C152.93,107.41,150.9,96.36,148.94,91.24Z" />
              <path class="bbfcd252-0c9c-4616-b364-da0cc709b878"
                d="M134.35,112.27l-3.53-.27a3,3,0,0,0-3,3,3.06,3.06,0,0,0,3,3l3.53.27a3,3,0,0,0,3-3A3.08,3.08,0,0,0,134.35,112.27Z" />
              <path class="bbfcd252-0c9c-4616-b364-da0cc709b878"
                d="M218.55,13.5a241.43,241.43,0,0,1-64.88,30.29c-2.22.65-5.93,2.54-8.2,2-2.57-.66-5.93-4.65-8-6.31q-7.2-5.76-14.36-11.58Q107.65,15.29,92.45,2.42c-2.93-2.48-7.19,1.74-4.24,4.24q16.32,13.8,32.9,27.28,8.31,6.72,16.67,13.37c4.93,3.92,7,5.18,13.22,3.47a246.39,246.39,0,0,0,68.46-30.73,3,3,0,0,0,1.31-.65l1.42-1.19C224.79,16,221.38,11.63,218.55,13.5Z" />
              <path class="bbfcd252-0c9c-4616-b364-da0cc709b878"
                d="M181,156.82q-1,5.63-2.05,11.27c-.69,3.77,5.09,5.39,5.78,1.59s1.37-7.51,2.06-11.27S181.66,153,181,156.82Z" />
              <path class="bbfcd252-0c9c-4616-b364-da0cc709b878"
                d="M85.88,159.27c-.29-3.83-6.3-3.86-6,0a40.89,40.89,0,0,1-.31,9.51,3.09,3.09,0,0,0,2.09,3.69c1.43.41,3.44-.49,3.69-2.09A47.51,47.51,0,0,0,85.88,159.27Z" />
              <path class="bbfcd252-0c9c-4616-b364-da0cc709b878"
                d="M152.27,127.27c-.29-3.83-6.3-3.86-6,0a49.73,49.73,0,0,1-.68,13.2l-6.88-5.09c-2.29-1.69-4.73-4.19-7.58-4.77-3.07-.62-6.82.71-9.83,1.22s-5.79.91-8.7,1.3a46.66,46.66,0,0,1,10.57-10.22c3.14-2.19.15-7.4-3-5.18a54,54,0,0,0-16.2,17.64c-1,1.8.24,4.78,2.59,4.51,3.52-.4,7-.84,10.54-1.35,3-.44,6.55-1.62,9.74-1.9a2.57,2.57,0,0,0,0,.4q-.89,44.63-1.78,89.25c-.08,3.86,5.92,3.86,6,0q.89-44.06,1.76-88.09c1.57,1.07,3,2.45,4.41,3.46l8.81,6.51c1.59,1.18,3.92-.09,4.4-1.79A54,54,0,0,0,152.27,127.27Z" />
              <path class="bbfcd252-0c9c-4616-b364-da0cc709b878"
                d="M219.15,80q-9.41,1.92-18.86,3.62c-3.79.68-2.18,6.47,1.6,5.79q9.45-1.71,18.86-3.62C224.53,85,222.93,79.24,219.15,80Z" />
              <path class="bbfcd252-0c9c-4616-b364-da0cc709b878"
                d="M96,70.62Q88.6,61.08,81,51.78c-2.46-3-6.68,1.28-4.25,4.24q7.17,8.71,14.06,17.63C93.1,76.67,98.31,73.68,96,70.62Z" />
            </svg>