<svg id="e3c55ece-843a-4d6d-bb9d-949359cf83af" data-name="Layer 1" xmlns="http://www.w3.org/2000/svg"
     viewBox="0 0 970 876.16">
    <defs>
        <style>
            .a27cd0f8-9ddd-46f3-8cb9-fd51cbbe62b4 {
            fill: #fff;
            stroke: #231f20;
            stroke-miterlimit: 10;
            }

            .ece533ed-f95e-43ab-88bd-b1aa20d57ed4 {
            fill: #57b7ff;
            }

            .edd55486-ac8d-499c-a5fd-9acb4075b736 {
            fill: #1684f2;
            }

            .f8792fcd-4f79-4c7d-be69-fc2ade597ac8 {
            fill: #c0e7ff;
            }
        </style>
    </defs>
    <path class="a27cd0f8-9ddd-46f3-8cb9-fd51cbbe62b4"
          d="M104.53,78.57H919.31l40.63,30.5V690.32H40.06V139.13S6.5,78.57,104.53,78.57Z"
          transform="translate(-15 -61.92)"></path>
    <rect class="ece533ed-f95e-43ab-88bd-b1aa20d57ed4" x="25.06" y="628.4" width="919.89" height="104.03"
          rx="21.52"></rect>
    <path class="ece533ed-f95e-43ab-88bd-b1aa20d57ed4"
          d="M411.87,749.31H593.15A39.72,39.72,0,0,1,632.87,789v64.31a0,0,0,0,1,0,0H337.13a0,0,0,0,1,0,0V824A74.74,74.74,0,0,1,411.87,749.31Z">
    </path>
    <path class="edd55486-ac8d-499c-a5fd-9acb4075b736"
          d="M907.79,61.92H75.88A60.88,60.88,0,0,0,15,122.8v632a60.89,60.89,0,0,0,60.88,60.89H362.72L323.9,906.51H240.47c-15.86,13.91-6.2,31.57,7.58,31.57H759.53c15.86-13.91,6.2-31.57-7.58-31.57H676.1l-38.82-90.83H924.12A60.89,60.89,0,0,0,985,754.79V139.13C985,96.56,985,61.92,907.79,61.92Zm-266,844.59H358.23l27-63.11H614.8ZM953.43,754.79a29.31,29.31,0,0,1-29.31,29.31H75.88a29.31,29.31,0,0,1-29.31-29.31V709.53H953.43Zm0-76.83H46.57V122.8A29.31,29.31,0,0,1,75.88,93.49H924.12a29.31,29.31,0,0,1,29.31,29.31Z"
          transform="translate(-15 -61.92)"></path>
    <path class="edd55486-ac8d-499c-a5fd-9acb4075b736"
          d="M513.13,734.17a15.77,15.77,0,0,0-28.87,8c-.69,14.27,17.25,22,27.14,11.69A15.86,15.86,0,0,0,513.13,734.17Z"
          transform="translate(-15 -61.92)"></path>
    <path class="edd55486-ac8d-499c-a5fd-9acb4075b736"
          d="M585.73,206.21c8.13,60.43,53.37,85.75,77.09,95a22.11,22.11,0,0,1,14,21.81c-10.41,181.05-182.5,273.63-182.5,273.63S322.07,504.06,311.66,323a22.11,22.11,0,0,1,14-21.81c23.72-9.24,69-34.56,77.09-95a22.28,22.28,0,0,1,22-19.49h139a22.28,22.28,0,0,1,22,19.49Z"
          transform="translate(-15 -61.92)"></path>
    <path class="ece533ed-f95e-43ab-88bd-b1aa20d57ed4"
          d="M494.38,550.37a387.82,387.82,0,0,1-58.77-50.16c-46.77-48.92-73.77-103.3-80.4-161.81,44.53-21.72,75.08-59,86.36-105.41H546.93c11.28,46.37,41.83,83.69,86.36,105.4C620.44,451,534.25,522.81,494.38,550.37Z"
          transform="translate(-15 -61.92)"></path>
    <path class="f8792fcd-4f79-4c7d-be69-fc2ade597ac8"
          d="M533.7,361.18a39.45,39.45,0,1,0-56.94,35.36v47.6a17.49,17.49,0,0,0,35,0v-47.6a39.45,39.45,0,0,0,22-35.36Z"
          transform="translate(-15 -61.92)"></path>
</svg>
