<svg id="a4d77b45-79dc-4313-8ef9-aa413d076d76" data-name="Capa 1" xmlns="http://www.w3.org/2000/svg"
     viewBox="0 0 290.93 221.75">
    <defs>
        <style>
            .a4b5f67f-7164-4e2a-aa98-4203f0a938aa {
            fill: #b4c6e6
            }

            .f3728ce4-5684-459d-82dc-3742c18efa02 {
            fill: #56597a
            }

            .a0b5e0d9-5fd7-4f09-ac2a-57b39ee9b376 {
            fill: #57455d
            }

            .b51b2e79-9f93-4081-be82-f5f7cd688757 {
            fill: #74a0d4
            }

            .ed2bcf93-b2ea-4a4a-80ce-e17fa4ea9a59 {
            fill: #eaeaea
            }

            .ee1a0207-3817-4b86-9eed-6825e56d93df {
            fill: #ed84ae
            }

            .b1daba0f-a3ff-4282-a334-eb757787efca {
            fill: #f5ce6f
            }

            .fa4bbd06-f860-4d1e-a1bb-5413454811a8 {
            fill: #f5d1ba
            }
        </style>
    </defs>
    <path class="a4b5f67f-7164-4e2a-aa98-4203f0a938aa"
          d="M277.43,78.61c-5.05-10.7-12.08-21.07-22.18-29.47-10.69-8.89-24.87-15.6-38.54-21.42A184.32,184.32,0,0,0,132.53,14C104.6,16,77.61,23.8,55.58,37.25,34.05,50.39,17.82,68.46,8.66,88.36c-9.28,20.17-12.82,45.08-1.9,65.26,11.63,21.5,37.61,35.31,63.71,45.4,7.15,2.76,14.42,5.33,21.69,7.89a3.93,3.93,0,0,0,1.56.22,131,131,0,0,0,36,5.64c16.78.22,33.45-2.36,49.61-5.59,15.71-3.14,31.67-6.51,46.16-12.24,24.21-9.57,42.59-26.53,52.35-45.95C289.13,126.58,288,101,277.43,78.61Z">
    </path>
    <path class="f3728ce4-5684-459d-82dc-3742c18efa02"
          d="M283,108.22c-4.39-4.68-9.74-8.4-14.76-12.42-2.33-1.88-5.32-3.91-7-6.4-3.29-4.94,2.77-7.77,5.92-10.86,9.16-9,12.73-22.65,1.44-31.51-4.68-3.68-10.57-5.76-16.34-7.27-3.76-1-8.67-1.36-11.6-4.07-4.26-3.95.25-6.86,3.53-8.92,4.57-2.87,8.07-6.47,7.27-12.13S246.31,4.92,241,2.88C233.79.14,225.22.16,217.61,0c-9-.15-18.08.18-27.12.36-18.27.36-36.57.42-54.83,1.14-8.27.33-16.29,1.41-23.91,4.67-3.75,1.61-7.37,3.57-11.34,4.66-4.7,1.3-9.6,1.33-14.45,1.26a191.41,191.41,0,0,0-27,1.45c-7.32.95-16.39,1.11-22.86,4.94-4.8,2.84-7.87,8.52-5.61,13.8,2.77,6.46,11,11.33,16.21,15.84.68.58,1.36,1.16,2,1.74,1.68,1.46,1.78,1.05,1.19,3.52-.54,2.25-.56,2.26-2.68,2.85a29.24,29.24,0,0,1-3.08.56,66.85,66.85,0,0,0-12,2.94A55.78,55.78,0,0,0,13.87,70.72C9.13,75,5.24,80.7,6.19,87.25c.5,3.37,2.17,6.34,3.15,9.57,1.33,4.35.83,8.67,0,13.06C8,116.57,6,123.49,7.86,130.28c1.49,5.3,5.19,9.64,9.16,13.44,4.37,4.18,9.56,7.91,12.81,13S32.44,168.52,37.3,173s11.61,5.93,17.78,7.41q13.23,3.18,26.7,5.27,12.93,2,26,3a2.46,2.46,0,0,0,1.81-.49,288.45,288.45,0,0,0,36.26,3,111.92,111.92,0,0,0,11.74.24,368.44,368.44,0,0,0,51.79-5.38c15.63-2.77,31.06-7.28,45-14.84C275.85,159.59,305.21,131.88,283,108.22Z">
    </path>
    <path class="a0b5e0d9-5fd7-4f09-ac2a-57b39ee9b376"
          d="M63.78,110.7C57.39,113,54.15,120.94,56,127.32a11.5,11.5,0,0,0-2.47,2.93A17.28,17.28,0,0,0,52,142.59a22.23,22.23,0,0,0-5.84,9.8,11.42,11.42,0,0,0-2.39,1.28,21.59,21.59,0,0,0-8.24,15.18c-3.73,1.68-5.71,6.3-6.7,10.31-.92,3.75,4.87,5.35,5.79,1.59.2-.9.44-1.79.7-2.67a3.77,3.77,0,0,1,1.43-2.47,10.3,10.3,0,0,0,2.71,3.4c1.14.94,3.17,1.37,4.25,0,2.73-3.46,1.85-8.6-2.11-10.27a14.88,14.88,0,0,1,1.2-3.77,23.66,23.66,0,0,1,1.94-3.57,6.54,6.54,0,0,1,1.47-1.63,6.3,6.3,0,0,0,2,2.57c2.42,1.87,6.18,1.93,8.19-.56,2.38-2.94.78-7-2.07-8.86a7.48,7.48,0,0,0-1.6-.8A12.54,12.54,0,0,1,54.19,149a5.55,5.55,0,0,1,.91-.86,10.18,10.18,0,0,0,1.51,1.24c6.21,4.08,12.19-4.86,5.48-8.47a7.92,7.92,0,0,0-4.49-1,10.25,10.25,0,0,1,.76-6.06,5.62,5.62,0,0,1,.78-1.18,6.45,6.45,0,0,0,4.79,1.87,4.88,4.88,0,0,0,4.36-6.17c-1-4.17-3.83-5-6.85-4.15-.17-2.74,1.12-6,3.51-7.42,2.69-1.54,6.74-.24,6.89,3.22.18,3.84,6.18,3.87,6,0A10.46,10.46,0,0,0,63.78,110.7Z">
    </path>
    <path class="b51b2e79-9f93-4081-be82-f5f7cd688757"
          d="M103.79,114.5c-4-4.78-10.86-8.52-16-12a3,3,0,0,0-3.64.47c-8.68,9-18.11,19.3-23.87,30.51a19.06,19.06,0,0,0-1.4,3.5,14.12,14.12,0,0,0-1.42,7.55c.6,5.17,5.32,8.81,8.94,12,2.85,2.53,6.06,6.1,9.87,3.11,2.06-1.61,3.58-4.43,5.19-6.51q3.12-4.07,6.19-8.18,6.69-9,13-18.21C103.22,123.16,107.36,118.77,103.79,114.5Z">
    </path>
    <path class="ed2bcf93-b2ea-4a4a-80ce-e17fa4ea9a59"
          d="M173.5,42.33c-1-5-4.62-16.41-11.63-15.09s-6.13,11.5-6.78,16.54a108.89,108.89,0,0,1-8.22,29.67,111.46,111.46,0,0,1-6.69,12.88c-2.61,4.32-5.79,11.41-11.36,11.58-5,.14-10.49-1.08-15.52-1.6l-8.85-.92c-2.81-.3-7.07,0-9.2-1.89-3-2.77-1.39-10.65-.68-14.46a71.65,71.65,0,0,1,3.81-12.91c3.58-9.21,8.57-17.8,13.21-26.5,2.06-3.87,4.11-7.76,5.94-11.74,1.33-2.9,3-6.38,1.63-9.57-3.25-7.74-12.06-1.81-16.1,1.68-7.71,6.66-13.59,15.8-18.68,24.53-5.3,9.09-9.71,19-11.66,29.35-3.22,17.21.6,36.3,13.83,48.39A694,694,0,0,1,48,190a.25.25,0,0,0,0,.07,4.65,4.65,0,0,0-1.7,5.65c1.15,2.92,5.09,4.41,7.58,5.9,2,1.2,4.06,2.6,6.33,2.14a3.1,3.1,0,0,0,2.56-.61q10.09-7.89,19.44-16.63l-2,7.54c-1.28,4.78-3.41,10.07-2,15,2.3,8,11.69,11,18.94,12.55a3.06,3.06,0,0,0,3.69-2.09c5.66-19.37,15-37.29,22.71-55.84a185.6,185.6,0,0,0,9.5-28c1.28-5.37,2.15-9.34,6.55-13.11a112.31,112.31,0,0,0,9.8-9.09,94.46,94.46,0,0,0,23.41-46.32C174.33,59.1,175.1,50.51,173.5,42.33Z">
    </path>
    <path class="ee1a0207-3817-4b86-9eed-6825e56d93df"
          d="M120.4,17.38c-4.46-10.31-16.55,1-21,4.89-8.51,7.52-15.81,16.22-19.34,27.16A3,3,0,0,0,83,53.23c.61,0,1.22.05,1.82.09l8.08,2.84c2.11.74,4.76,2.2,7.1,1.88,4.36-.61,6.79-6.75,8.84-10a149.08,149.08,0,0,0,9.5-16.48C120.21,27.46,122.33,21.83,120.4,17.38Z">
    </path>
    <path class="ee1a0207-3817-4b86-9eed-6825e56d93df"
          d="M176.45,46.76c-.39-7.24-1.76-17.62-9-21.39-6.18-3.22-12.21.61-13.34,7.06-.86,4.94-.65,10-1.64,15a85.24,85.24,0,0,1-4.59,15.22,2.5,2.5,0,0,0,2,3.51,3,3,0,0,0,1.6,1.28l17.58,6.23a3.07,3.07,0,0,0,3.39-1.38C177.2,66,176.85,54.22,176.45,46.76Z">
    </path>
    <path class="b1daba0f-a3ff-4282-a334-eb757787efca"
          d="M121,117.36A94.12,94.12,0,0,0,105,111.08c-1.53-.43-2.69.71-3.29,2.29a4.11,4.11,0,0,0-.52.7,71.67,71.67,0,0,0-9,22.5c-1.84,9,2.24,10,7.33,12.23,4,1.73,11.86,8.2,15.49,2.85,1.92-2.83,2.72-8.62,3.67-12.16l4.47-16.68A5,5,0,0,0,121,117.36Z">
    </path>
    <path class="b1daba0f-a3ff-4282-a334-eb757787efca"
          d="M51.55,72.91c-.66-.16-1.33-.29-2-.39L49.4,71a3.08,3.08,0,0,0-3-3,3,3,0,0,0-3,3c0,.46.09.92.14,1.38a3,3,0,0,0,.22,6l.36,0,.13,1.32a3.09,3.09,0,0,0,3,3,3,3,0,0,0,3-3l-.08-.86C53.76,79.35,55.23,73.79,51.55,72.91Z">
    </path>
    <path class="b1daba0f-a3ff-4282-a334-eb757787efca"
          d="M72,21.35a2.28,2.28,0,0,0-.62-1l-.61-.47a3,3,0,0,0-1.51-.41l-.8.11a3,3,0,0,0-1.32.77l-.33.33a2.34,2.34,0,0,0-.62,1,2.7,2.7,0,0,0,0,2.31,2.34,2.34,0,0,0,.62,1l.6.47a3.12,3.12,0,0,0,1.52.41l.8-.11A3,3,0,0,0,71.09,25l.33-.34a2.25,2.25,0,0,0,.62-1,2.2,2.2,0,0,0,.26-1.16A2.17,2.17,0,0,0,72,21.35Z">
    </path>
    <path class="b1daba0f-a3ff-4282-a334-eb757787efca"
          d="M140.15,15.35a3,3,0,0,0-.77-1.32l-.61-.47a3,3,0,0,0-1.51-.41h-.33a2.32,2.32,0,0,0-1.16.26,2.25,2.25,0,0,0-1,.62,2.16,2.16,0,0,0-.62,1,2.22,2.22,0,0,0-.26,1.16c0,.27.07.53.11.8a2.94,2.94,0,0,0,.77,1.32l.6.47a3,3,0,0,0,1.52.41h.33a2.22,2.22,0,0,0,1.16-.26A2.72,2.72,0,0,0,140,17.31a2.22,2.22,0,0,0,.26-1.16Z">
    </path>
    <path class="b1daba0f-a3ff-4282-a334-eb757787efca" d="M166.19,4.57c-3.87,0-3.87,6,0,6S170.05,4.57,166.19,4.57Z">
    </path>
    <path class="b1daba0f-a3ff-4282-a334-eb757787efca"
          d="M217,33.11h-2.22a28.43,28.43,0,0,0-.59-3.42c-.92-3.75-6.71-2.17-5.79,1.59.15.61.26,1.22.35,1.83h-1c-3.86,0-3.87,6,0,6H209a3.18,3.18,0,0,0,2.85,2,2.9,2.9,0,0,0,2.77-2H217C220.81,39.11,220.82,33.11,217,33.11Z">
    </path>
    <path class="b1daba0f-a3ff-4282-a334-eb757787efca" d="M245.82,53c-3.86,0-3.87,6,0,6S249.68,53,245.82,53Z">
    </path>
    <path class="b1daba0f-a3ff-4282-a334-eb757787efca"
          d="M187.75,76.24c-3.86,0-3.86,6,0,6S191.62,76.24,187.75,76.24Z"></path>
    <path class="b1daba0f-a3ff-4282-a334-eb757787efca"
          d="M221.59,107.11l-1.48,0c0-.16,0-.33.06-.49a3.08,3.08,0,0,0-2.1-3.69,3,3,0,0,0-3.69,2.1c-.12.77-.22,1.54-.28,2.31l-1.13.1a3.1,3.1,0,0,0-3,3c0,1.48,1.38,3.19,3,3l1.41-.13c0,.2.05.4.08.6a3,3,0,0,0,3.69,2.09,2.92,2.92,0,0,0,2.15-2.88l1.29,0C225.45,113.29,225.45,107.29,221.59,107.11Z">
    </path>
    <path class="b1daba0f-a3ff-4282-a334-eb757787efca"
          d="M42.33,139.49a3,3,0,0,0-.77-1.32L41,137.7a3,3,0,0,0-1.51-.41h-.33a2.3,2.3,0,0,0-1.16.26,2.25,2.25,0,0,0-1,.62,2.13,2.13,0,0,0-.62,1,2.17,2.17,0,0,0-.26,1.15l.1.8a3,3,0,0,0,.78,1.32l.6.47a3,3,0,0,0,1.52.41h.33a2.17,2.17,0,0,0,1.15-.26,2.22,2.22,0,0,0,1-.62,2.25,2.25,0,0,0,.62-1,2.32,2.32,0,0,0,.26-1.16Z">
    </path>
    <path class="a0b5e0d9-5fd7-4f09-ac2a-57b39ee9b376"
          d="M173.27,60.47q-9-3.54-18.22-6.38c-3.7-1.14-5.28,4.65-1.6,5.78q9.24,2.85,18.22,6.39C175.26,67.68,176.82,61.88,173.27,60.47Z">
    </path>
    <path class="a0b5e0d9-5fd7-4f09-ac2a-57b39ee9b376"
          d="M103.68,47.08,87.45,39.72c-3.49-1.58-6.54,3.59-3,5.18l16.23,7.36C104.14,53.84,107.2,48.67,103.68,47.08Z">
    </path>
    <path class="a4b5f67f-7164-4e2a-aa98-4203f0a938aa"
          d="M220.41,139c-5.67-5.08-14.65-9.78-22.21-10.94-7.26-1.11-17.72,2.1-23.08,7.29-3.38,3.27-5.2,8.49-5.89,13.85a25.52,25.52,0,0,0-.8,4c-.89,7.4.69,15.65,5.36,21.62,4.81,6.14,13.24,9.25,20.74,10.31,15.87,2.23,31-7,32.6-23.61C228,153.3,226.88,144.84,220.41,139Z">
    </path>
    <path class="a0b5e0d9-5fd7-4f09-ac2a-57b39ee9b376"
          d="M181.25,164.41c-1.58-5.18-7.78-6.39-11.72-3.13a3,3,0,0,0,0,4.25,3.08,3.08,0,0,0,4.24,0c.75-.62,1.68.11,1.81.88.22,1.3-1.1,1.7-2.12,1.62a3,3,0,0,0,0,6A7.54,7.54,0,0,0,181.25,164.41Z">
    </path>
    <path class="a0b5e0d9-5fd7-4f09-ac2a-57b39ee9b376"
          d="M198.09,131.42c-5.06-.92-10,2.8-11,7.84-1.22,6,3.17,11,9.28,10.36,5.46-.56,10.93-4.7,10.84-10.59C207.11,134.2,202.55,130.37,198.09,131.42Zm2.82,9c-.8,1.94-3.28,3.16-5.29,3.26-4.14.22-3-5.11-.22-6.22a2.46,2.46,0,0,0,3.31.21C200.66,136.31,201.58,138.81,200.91,140.42Z">
    </path>
    <path class="a0b5e0d9-5fd7-4f09-ac2a-57b39ee9b376"
          d="M216.32,178.88a8.74,8.74,0,0,0-16.55,4.53c.22,3.84,6.22,3.87,6,0-.2-3.42,3.77-4.57,5.37-1.5C212.92,185.34,218.1,182.31,216.32,178.88Z">
    </path>
    <path class="ee1a0207-3817-4b86-9eed-6825e56d93df"
          d="M233.37,148.29a5.13,5.13,0,0,0-6.84-4.07c-3,1.16-2.36,5.53.14,5.95a2.17,2.17,0,0,0-.28.55A10,10,0,0,1,225,152.2a27.92,27.92,0,0,1-3.91,3.19c-2.34,1.62-4.84,3-7.32,4.41q-7.65,4.29-15.53,8.14-8.37,4.08-17,7.64a75.29,75.29,0,0,1-8.31,3.19c-.88.25-3.3,1.13-4.09.67-.79.12-.77,0,.06-.34a8.06,8.06,0,0,1,2.64-1.09c3.67-1.16,2.1-6.95-1.59-5.79-3.05,1-7.58,2.77-8.42,6.3-.79,3.3,2,5.83,4.88,6.62,4.93,1.34,10.27-1.28,14.71-3.08q8.07-3.26,15.94-6.95c10-4.7,20.94-9.56,29.64-16.49C229.71,156.29,234.06,152.56,233.37,148.29Z">
    </path>
    <path class="b1daba0f-a3ff-4282-a334-eb757787efca"
          d="M160.83,120.53c-3.86,0-3.87,6,0,6S164.7,120.53,160.83,120.53Z"></path>
    <path class="b1daba0f-a3ff-4282-a334-eb757787efca"
          d="M137.82,187.74l-2.46.61-.24-.89c-1-3.73-6.8-2.15-5.79,1.59.07.27.15.54.22.81-2.73,1.29-1.51,5.78,1.53,5.66.11.38.21.76.31,1.14,1,3.72,6.8,2.14,5.79-1.59-.08-.31-.17-.62-.25-.93l2.49-.61C143.16,192.6,141.58,186.81,137.82,187.74Z">
    </path>
    <path class="b1daba0f-a3ff-4282-a334-eb757787efca"
          d="M140.59,160.35c-3.86,0-3.86,6,0,6S144.46,160.35,140.59,160.35Z"></path>
    <path class="b1daba0f-a3ff-4282-a334-eb757787efca"
          d="M32,101.3A3.05,3.05,0,0,0,31.2,100l-.61-.47a3,3,0,0,0-1.51-.41h-.67a2.26,2.26,0,0,0-1.15.26A2.68,2.68,0,0,0,25.67,101a2.26,2.26,0,0,0-.26,1.15l.11.8a2.94,2.94,0,0,0,.77,1.32l.61.47a3,3,0,0,0,1.51.41h.67a2.19,2.19,0,0,0,1.15-.26,2.7,2.7,0,0,0,1.59-1.58,2.41,2.41,0,0,0,.26-1.16Z">
    </path>
    <path class="a4b5f67f-7164-4e2a-aa98-4203f0a938aa"
          d="M141.89,54.77c-12-11.53-30.12-5-40,6C94,69.58,86.27,87.13,96.9,96.8a3.19,3.19,0,0,0,.71.71c6.82,4.78,15.5,6.22,23.63,7s14.6-2.26,19.73-8.43C150.59,84.51,153.68,66.09,141.89,54.77Z">
    </path>
    <path class="fa4bbd06-f860-4d1e-a1bb-5413454811a8"
          d="M118.5,72.71c-8.33-.24-10.93,11-11.72,16.47-1,6.86,2,13.45,9.57,15.34a3.18,3.18,0,0,0,3.82-1.8C128.6,97.3,131.56,73.07,118.5,72.71Z">
    </path>
    <path class="ee1a0207-3817-4b86-9eed-6825e56d93df"
          d="M133.28,97.33c-5.49-2.38-12.51-2.52-18.38-3.39q-9.57-1.41-19.16-2.67a2.42,2.42,0,0,0-1.87.43c-3.27.79-4.9,5-3.15,8a6.24,6.24,0,0,0,3.56,2.84c2.94,1.69,7.11,2,10.06,2.34,6.42.67,12.92.83,19.37,1.14,3.56.17,9.66,1.46,12.37-1.78C138.54,101.24,136.1,98.56,133.28,97.33Z">
    </path>
    <path class="a0b5e0d9-5fd7-4f09-ac2a-57b39ee9b376"
          d="M129.09,77.32a13.46,13.46,0,0,0-5-6.06,5.28,5.28,0,0,0,1.14-4.07c-.44-3.1-3.6-4.95-6.56-4.86s-6.25,2.21-6.32,5.45a4.56,4.56,0,0,0,1.07,3.1c-4.4,2.2-8.35,6.91-7.95,11.72a3.18,3.18,0,0,0,.83,2,3.13,3.13,0,0,0,2.79,2.64l.86.06-.41.54a3,3,0,0,0-.41,1.52v.22a2.17,2.17,0,0,0,.26,1.15,2.13,2.13,0,0,0,.62,1,2.25,2.25,0,0,0,1,.62,2.32,2.32,0,0,0,1.16.26l.8-.11a3,3,0,0,0,1.32-.77l.47-.61a3,3,0,0,0,.41-1.51v-.22a2.3,2.3,0,0,0-.26-1.16,2.25,2.25,0,0,0-.62-1A2.49,2.49,0,0,0,114,87a14.87,14.87,0,0,0,3.41-1.2,12.07,12.07,0,0,0,4.09,4.3,3,3,0,0,0,2.63,4.28,2.92,2.92,0,0,0,2.8-3.78C131.49,88.63,130.63,81,129.09,77.32Z">
    </path>
    <path class="a0b5e0d9-5fd7-4f09-ac2a-57b39ee9b376"
          d="M87.57,170a175.07,175.07,0,0,1-9.7,16c-2.18,3.2,3,6.21,5.18,3a175.07,175.07,0,0,0,9.7-16C94.57,169.59,89.4,166.56,87.57,170Z">
    </path>
    <path class="a0b5e0d9-5fd7-4f09-ac2a-57b39ee9b376"
          d="M111.61,143.35q-5.33-2.53-10.52-5.29c-3.42-1.8-6.45,3.38-3,5.18s7,3.6,10.52,5.29S115.1,145,111.61,143.35Z">
    </path>
    <path class="a0b5e0d9-5fd7-4f09-ac2a-57b39ee9b376"
          d="M113.68,131.9a65.44,65.44,0,0,0-9.78-4.76,3,3,0,0,0-3.69,2.1,3.09,3.09,0,0,0,2.1,3.69,56.34,56.34,0,0,1,8.34,4.15C114,139.07,117,133.89,113.68,131.9Z">
    </path>
    <path class="a0b5e0d9-5fd7-4f09-ac2a-57b39ee9b376"
          d="M117.81,120.76q-5.32-2.51-10.8-4.7c-1.52-.6-3.28.67-3.69,2.1a3.07,3.07,0,0,0,2.09,3.69q4.75,1.91,9.37,4.09C118.26,127.58,121.31,122.41,117.81,120.76Z">
    </path>
    <path class="a0b5e0d9-5fd7-4f09-ac2a-57b39ee9b376"
          d="M76.12,121.18C70.91,129.57,63,136,60.05,145.69c-1.12,3.7,4.67,5.29,5.79,1.59,2.73-9,10.59-15.23,15.46-23.07C83.34,120.92,78.16,117.91,76.12,121.18Z">
    </path>
    <path class="a0b5e0d9-5fd7-4f09-ac2a-57b39ee9b376"
          d="M199.69,158.17a3.06,3.06,0,0,0-4.11-1.08,2.75,2.75,0,0,1-.38.2,4.92,4.92,0,0,1-.88.21,3,3,0,0,0-1.79,1.38,3.06,3.06,0,0,0-.3,2.31,3,3,0,0,0,1.38,1.79l.71.31a3.1,3.1,0,0,0,1.6,0,7.11,7.11,0,0,0,2.69-1,3.09,3.09,0,0,0,1.38-1.79A3.06,3.06,0,0,0,199.69,158.17Z">
    </path>
    <path class="a0b5e0d9-5fd7-4f09-ac2a-57b39ee9b376"
          d="M219.4,147.67a3,3,0,0,0-2.12-.88,3.28,3.28,0,0,0-1.8.62.67.67,0,0,1-.14.09h0a3.05,3.05,0,0,0-1.79,1.38,3,3,0,0,0-.3,2.31,3,3,0,0,0,1.37,1.79l.72.31a3.1,3.1,0,0,0,1.6,0,5.28,5.28,0,0,0,2.47-1.38,3,3,0,0,0,0-4.24Z">
    </path>
    <path class="a0b5e0d9-5fd7-4f09-ac2a-57b39ee9b376"
          d="M221.51,170.8a2.21,2.21,0,0,0-.36-1.11l-.46-.61a3,3,0,0,0-1.33-.77l-.8-.11a3,3,0,0,0-1.51.41l-.44.22a2.31,2.31,0,0,0-.84.77,2.2,2.2,0,0,0-.54,1,2.23,2.23,0,0,0,0,1.2,2.17,2.17,0,0,0,.35,1.12l.47.6a3,3,0,0,0,1.32.77l.8.11a3,3,0,0,0,1.52-.41l.44-.22a2.87,2.87,0,0,0,1.43-3Z">
    </path>
    <path class="b1daba0f-a3ff-4282-a334-eb757787efca"
          d="M252.08,109.25c-3.86,0-3.87,6,0,6S255.94,109.25,252.08,109.25Z"></path>
    <path class="b1daba0f-a3ff-4282-a334-eb757787efca"
          d="M261.2,152.93a3,3,0,0,0-.77-1.33l-.61-.46a2.88,2.88,0,0,0-1.51-.41H258a2.29,2.29,0,0,0-1.16.25,2.44,2.44,0,0,0-1,.62,2.34,2.34,0,0,0-.62,1,2.29,2.29,0,0,0-.25,1.16c0,.26.07.53.1.79a3.13,3.13,0,0,0,.77,1.33l.61.47a3.09,3.09,0,0,0,1.52.41h.33a2.26,2.26,0,0,0,1.15-.26,2.22,2.22,0,0,0,1-.62,3.38,3.38,0,0,0,.88-2.12Z">
    </path>
</svg>
