<svg id="a4175bd9-18c6-45d3-9439-768a653825be" data-name="Layer 1" xmlns="http://www.w3.org/2000/svg"
     viewBox="0 0 837.17 847">
    <defs>
        <style>
            .a7bd5169-d8f9-44a2-af1f-7f1cec166443 {
            fill: #fff;
            }

            .b3858626-c146-4fdd-af8e-0f7574616cbf {
            fill: #c0e7ff;
            }

            .a11d6ec4-36e1-4fd0-a724-1c7f35ef815b {
            fill: #1684f2;
            }
        </style>
    </defs>
    <polygon class="a7bd5169-d8f9-44a2-af1f-7f1cec166443"
             points="137.52 399.78 644.3 399.78 585.04 637.46 197.78 637.46 137.52 399.78"></polygon>
    <path class="b3858626-c146-4fdd-af8e-0f7574616cbf"
          d="M880.3,384.59c0,92.08-123.27,269.32-173.46,268-32.5-.89,25.21-170.08-34.42-170.08-151.7,0-341.51,53.84-341.51-97.87s123-274.69,274.7-274.69S880.3,232.89,880.3,384.59Z"
          transform="translate(-81.31 -76.76)"></path>
    <circle class="b3858626-c146-4fdd-af8e-0f7574616cbf" cx="247.92" cy="770.16" r="45.56"></circle>
    <circle class="b3858626-c146-4fdd-af8e-0f7574616cbf" cx="542.52" cy="758.01" r="42.52"></circle>
    <path class="a11d6ec4-36e1-4fd0-a724-1c7f35ef815b"
          d="M167.4,425.47l6.74,26.4,74.17,290.41h442l11-58.66q13.9-4.39,27.45-10.1A310.56,310.56,0,0,0,610.37,76.79c-.83,0-1.66,0-2.49,0s-1.65,0-2.48,0A310.32,310.32,0,0,0,297.29,387.35a313,313,0,0,0,5.17,56.73l-72.45,0-19.08-74.69H81.31v28h0v28H167.4Zm187.48-10.09h79.17q.69,14.47,2.12,28.65l-76.51,0A256.42,256.42,0,0,1,354.88,415.38Zm47.05-177.67A366.81,366.81,0,0,0,449,256.59a523.59,523.59,0,0,0-14.95,102.73H354.88A251.83,251.83,0,0,1,401.93,237.71ZM485,164.3q-2.88,5-5.62,10.34c-4.73,9.12-9.12,18.71-13.16,28.7q-12.64-4.12-24.33-9A254.67,254.67,0,0,1,485,164.3ZM774,194.43q-11.72,4.88-24.41,9-6.07-15-13.19-28.81-2.76-5.29-5.63-10.34A254.63,254.63,0,0,1,774,194.43Zm86.93,164.89H781.72a523.55,523.55,0,0,0-14.93-102.63,366.51,366.51,0,0,0,47.15-18.85A252,252,0,0,1,860.89,359.32ZM813.32,537.7A363.61,363.61,0,0,0,766.54,519a523.07,523.07,0,0,0,15.18-103.64h79.17A251.89,251.89,0,0,1,813.32,537.7ZM490.17,415.38h89.69V444l-87.36,0Q490.94,429.91,490.17,415.38Zm13.07-144.84a540.74,540.74,0,0,0,76.62,9.23v79.55H490.17A464.94,464.94,0,0,1,503.24,270.54ZM725.6,359.32H635.91V279.79a541.25,541.25,0,0,0,76.64-9.18A464.89,464.89,0,0,1,725.6,359.32Zm-2.32,84.61-87.37,0V415.38H725.6Q724.84,429.85,723.28,443.93ZM694.47,217a488.41,488.41,0,0,1-58.56,6.65V141c18.28,10.53,35.89,31,50.68,59.49Q690.75,208.45,694.47,217ZM579.86,141v82.72A490,490,0,0,1,521.32,217q3.73-8.55,7.86-16.54C544,171.92,561.58,151.48,579.86,141ZM730.73,610.39q2.88-5,5.63-10.34,6.85-13.24,12.77-27.75,12.39,4,23.89,8.76A253.84,253.84,0,0,1,730.73,610.39Zm-382-110.27h30.82l65.25,0h57.41l32.92,0h44.72l56,0,42.81,0-10.3,55-11.65,62.11-3.9,20.82L649,658.62l-1.6,8.53-3.58,19.07h-352L244.33,500.15l74.09,0Z"
          transform="translate(-81.31 -76.76)"></path>
    <path class="a11d6ec4-36e1-4fd0-a724-1c7f35ef815b"
          d="M618.94,923.76a82.77,82.77,0,0,0,0-165.53h-300a82.73,82.73,0,1,0,78.34,56H540.6a82.77,82.77,0,0,0,78.34,109.48ZM345.61,841a26.71,26.71,0,1,1-26.71-26.71A26.74,26.74,0,0,1,345.61,841Zm300,0a26.71,26.71,0,1,1-26.71-26.71A26.74,26.74,0,0,1,645.65,841Z"
          transform="translate(-81.31 -76.76)"></path>
</svg>
