<svg
          id="ba25450d-101f-41f5-9fb3-13d0869fe832"
          data-name="Capa 1"
          xmlns="http://www.w3.org/2000/svg"
          viewBox="0 0 184.63 201.43"
        >
          <title>F.A.Q.</title>
          <defs>
            <style>
              .abff66f0-686f-4b25-b928-82893abdc0a1 {
                fill: #b4c6e6;
              }

              .a3831525-e5e5-41f6-9f39-4fe5471aa9a9 {
                fill: #f5d1ba;
              }

              .a7a75611-844f-46e0-8368-378f25718ba5 {
                fill: #eaeaea;
              }

              .adddd0f9-32f1-4245-aa40-61f42bf0d855 {
                fill: #57455d;
              }
            </style>
          </defs>
          <path
            class="abff66f0-686f-4b25-b928-82893abdc0a1"
            d="M174.47,44.56C161.42,25.83,139.7,15.7,117.18,14.84c-14.37-.55-28.21,2.81-41.6,7.78C68.94,25.08,62.07,27.56,56,31.31,50.23,34.89,45.53,39.75,41.23,45A216.18,216.18,0,0,0,27.35,63.58c-1.58,2.1-3.14,4.2-4.7,6.3C15.32,79.76,8.06,89.82,3.7,101.43c-4.17,11.13-5.33,24-.77,35.19,4,9.76,11.78,16.93,19.85,23.38a272.63,272.63,0,0,1,26.58,24.39c7.68,8,16.88,15.62,28.31,16.86,12.18,1.32,24.21-4.9,33.72-11.92a47,47,0,0,0,10.42-10.17c3.89-5.37,5.88-11.7,8.3-17.8,4.73-11.92,11.33-22.94,20.9-31.6,8.73-7.91,18.9-14.39,25.46-24.42C188.44,87,186.77,62.22,174.47,44.56Z"
          />
          <path
            class="a3831525-e5e5-41f6-9f39-4fe5471aa9a9"
            d="M163.52,120.62c-1-9.53-6.73-17.18-13.29-23.79-7-7-14.67-13.53-24.58-15.81-10.56-2.43-22.61-2.23-33.31-.88C82.63,81.36,73,84.6,65.66,91.35c-13.25,12.25-14.77,35.14-8,51,9.07,21.22,33.79,23.28,54.15,20.3q7.59,6.88,15.2,13.75a3,3,0,0,0,5.12-2.12q.73-8.76.81-17.55C150.58,154.07,165.51,139.55,163.52,120.62Z"
          />
          <path
            class="a7a75611-844f-46e0-8368-378f25718ba5"
            d="M127,34.26C124,23.92,118.9,14.74,109.69,8.74c-8.26-5.39-18.26-7.66-28-8.45C61-1.38,33.36,3.72,24.29,25.19S23.46,72.74,39.15,89a100.16,100.16,0,0,0-3.93,25.11c-.07,2.42,3.47,4.2,5.12,2.12l6.4-8c2-2.53,4.72-7.61,8.11-8.33,2.32-.49,5.74.62,8.09.85,3.39.33,6.79.61,10.2.71,11,.32,22.44-1.3,31.64-7.84s17-16.83,21.43-27.21S130.22,45.08,127,34.26Z"
          />
          <path
            class="adddd0f9-32f1-4245-aa40-61f42bf0d855"
            d="M84.65,29.16C81,18.22,67.48,18.57,60.6,25.9,58,28.71,62.19,33,64.84,30.14c3.42-3.64,10.37-5.94,13.49-.45,2.6,4.58-1.33,8.59-4.61,11.46-2,1.74-5.32,3.59-6.14,6.34a6.67,6.67,0,0,0,.23,3.17,26.94,26.94,0,0,1,.6,7.81c-.43,3.83,5.57,3.8,6,0a23.29,23.29,0,0,0,.08-5.21c-.1-.87-1.19-3.42-.9-4.19.74-1.94,5.17-4.23,6.64-5.75C83.89,39.52,86.4,34.46,84.65,29.16Z"
          />
          <path
            class="adddd0f9-32f1-4245-aa40-61f42bf0d855"
            d="M76.14,69.14A2.28,2.28,0,0,0,75.78,68a2.39,2.39,0,0,0-.54-.64A2.56,2.56,0,0,0,75,67l-.6-.47a3.12,3.12,0,0,0-1.52-.41,3.75,3.75,0,0,0-.89.13l-.72.3h0a3.18,3.18,0,0,0-.35.26,2.89,2.89,0,0,0-.37.31,3.44,3.44,0,0,0-.52.69l-.3.72,0,0a.11.11,0,0,1,0,0,3.24,3.24,0,0,0-.11.89l.06.41a3,3,0,0,0,.06.43v0l.31.72s0,0,0,0a3.92,3.92,0,0,0,.25.32l.25.32a3.34,3.34,0,0,0,1.46.86,3,3,0,0,0,.43,0l.41.06h.08l.8-.11h.06l.06,0,.71-.3,0,0,0,0,.6-.47,0,0a3.92,3.92,0,0,0,.27-.33c.07-.1.19-.23.26-.35v0l.3-.72a.14.14,0,0,0,0-.07A2.19,2.19,0,0,0,76.14,69.14Z"
          />
          <path
            class="adddd0f9-32f1-4245-aa40-61f42bf0d855"
            d="M91.72,125.2a3.7,3.7,0,0,0-3.42-.91,3.37,3.37,0,0,0-.73.29,2.79,2.79,0,0,0-1.83.84,3.08,3.08,0,0,0,0,4.25l1.1,1.19a3,3,0,0,0,3.64.47,4.76,4.76,0,0,0,2.13-2.56A3.55,3.55,0,0,0,91.72,125.2Z"
          />
          <path
            class="adddd0f9-32f1-4245-aa40-61f42bf0d855"
            d="M115.75,123.36a3.63,3.63,0,0,0-2.4-2.4,2.88,2.88,0,0,0-.7-.31,3.05,3.05,0,0,0-2.31.31c-.21.15-.41.31-.61.47a1.78,1.78,0,0,0-.21.27c-.06,0-.12.08-.17.13a3.61,3.61,0,0,0-1.07,2.58,3.06,3.06,0,0,0,.88,2.12,2.85,2.85,0,0,0,.65.47,3.11,3.11,0,0,0,2,1.12,3.75,3.75,0,0,0,4-4.76Z"
          />
          <path
            class="adddd0f9-32f1-4245-aa40-61f42bf0d855"
            d="M135,121.73a3,3,0,0,0-2.59-1.49,2.94,2.94,0,0,0-2.28,1.12,2.32,2.32,0,0,0-1.14.7,3.83,3.83,0,0,0-1,2.48,3.62,3.62,0,0,0,.8,2.26,3.94,3.94,0,0,0,4.06,1.49,4,4,0,0,0,2.8-2.9A4.55,4.55,0,0,0,135,121.73Z"
          />
        </svg>