<svg id="e042f26c-e462-440f-9e8d-2d4a8defd05a" data-name="Layer 1" xmlns="http://www.w3.org/2000/svg"
     viewBox="0 0 978.24 978.01">
    <defs>
        <style>
            .a793efcb-175b-4146-944c-1eff4b2a8d6f {
            fill: #fff;
            }

            .e7f4b4b6-62ad-4bed-963b-29ec367ce900 {
            fill: #57b7ff;
            }

            .f89d464a-49fb-415c-8ef0-7a499a5e2d94 {
            fill: #1684f2;
            }

            .f43297c9-b7d6-491b-94d0-14d679cf0b01 {
            fill: #c0e7ff;
            }
        </style>
    </defs>
    <path class="a793efcb-175b-4146-944c-1eff4b2a8d6f"
          d="M96.49,135.93H490.54s37.64-62.45,84.76-80,86.89-31.77,141.5-11,83.8,69.12,83.8,69.12l25.6,52.5h40.67v519H34V174.28S50.47,135.93,96.49,135.93Z"
          transform="translate(-10.88 -10.99)"></path>
    <path class="e7f4b4b6-62ad-4bed-963b-29ec367ce900"
          d="M30,685.57H866.87v56.59a57.38,57.38,0,0,1-57.39,57.38H87.37A57.38,57.38,0,0,1,30,742.16Z"
          transform="translate(-10.88 -10.99)"></path>
    <path class="f89d464a-49fb-415c-8ef0-7a499a5e2d94"
          d="M812.44,114.11H800.6l17.5,38.25A35.6,35.6,0,0,1,848,187.45V666.67H48.89V187.45a35.58,35.58,0,0,1,35.53-35.54H498.11l15.67-37.8H84.42a73.42,73.42,0,0,0-73.33,73.34v517H885.77v-517A73.42,73.42,0,0,0,812.44,114.11Z"
          transform="translate(-10.88 -10.99)"></path>
    <path class="e7f4b4b6-62ad-4bed-963b-29ec367ce900"
          d="M281.77,969.9H615.25V947.15a49.75,49.75,0,0,0-49.75-49.74h-234a49.75,49.75,0,0,0-49.75,49.74Z"
          transform="translate(-10.88 -10.99)"></path>
    <rect class="e7f4b4b6-62ad-4bed-963b-29ec367ce900" x="376.49" y="788.55" width="122.28" height="97.87">
    </rect>
    <rect class="f43297c9-b7d6-491b-94d0-14d679cf0b01" x="204.51" y="458.82" width="108.86" height="121.9">
    </rect>
    <rect class="f43297c9-b7d6-491b-94d0-14d679cf0b01" x="381.42" y="398.3" width="108.86" height="182.42">
    </rect>
    <rect class="f43297c9-b7d6-491b-94d0-14d679cf0b01" x="558.32" y="355.51" width="108.86" height="225.21">
    </rect>
    <path class="e7f4b4b6-62ad-4bed-963b-29ec367ce900"
          d="M799.89,280.15,956.21,436.47a47.25,47.25,0,0,1,0,66.82h0a47.25,47.25,0,0,1-66.82,0L733.07,347Z"
          transform="translate(-10.88 -10.99)"></path>
    <path class="f89d464a-49fb-415c-8ef0-7a499a5e2d94"
          d="M435,726.21a19.08,19.08,0,1,0,13.5-5.6A19.18,19.18,0,0,0,435,726.21Z"
          transform="translate(-10.88 -10.99)"></path>
    <path class="f89d464a-49fb-415c-8ef0-7a499a5e2d94"
          d="M969.72,423,831.32,284.55a191.53,191.53,0,0,0,17.83-80.89C849.15,97.42,762.72,11,656.48,11,582.63,11,518.36,52.76,486,113.91H84.42a73.62,73.62,0,0,0-73.54,73.54V745.11a73.61,73.61,0,0,0,73.54,73.53H368.26V878.3H331.52a68.93,68.93,0,0,0-68.85,68.85V969.9A19.11,19.11,0,0,0,281.78,989H615.25a19.11,19.11,0,0,0,19.1-19.11V947.15A68.93,68.93,0,0,0,565.5,878.3H528.76V818.64H766.82a19.11,19.11,0,1,0,0-38.21H84.42a35.37,35.37,0,0,1-35.33-35.32V704.68H847.76v40.43a35.36,35.36,0,0,1-35.32,35.32h-58a19.11,19.11,0,1,0,0,38.21h58A73.62,73.62,0,0,0,886,745.11v-220A66.36,66.36,0,0,0,969.72,423ZM596.14,947.15v3.64H300.88v-3.64a30.67,30.67,0,0,1,30.64-30.63h234A30.67,30.67,0,0,1,596.14,947.15Zm-105.6-128.5V878.3H406.47V818.65ZM656.48,49.21c85.17,0,154.46,69.29,154.46,154.45S741.65,358.12,656.48,358.12,502,288.83,502,203.66,571.31,49.21,656.48,49.21ZM588.3,383.86a191.75,191.75,0,0,0,68.18,12.47c.83,0,1.65,0,2.47,0V572.61H588.3Zm-84.81-63.23a194.3,194.3,0,0,0,46.6,43.58v208.4H520.27V409.3a19.12,19.12,0,0,0-19.11-19.11H392.3a19.11,19.11,0,0,0-19.11,19.11V572.61H343.36V469.81a19.1,19.1,0,0,0-19.1-19.1H215.39a19.1,19.1,0,0,0-19.1,19.1v102.8H141V301.3a19.11,19.11,0,1,0-38.22,0V591.72a19.11,19.11,0,0,0,19.11,19.1H775a19.11,19.11,0,0,0,0-38.21H697.17V392a191.26,191.26,0,0,0,40.34-13.56L847.76,488.69V666.47H49.09v-479a35.36,35.36,0,0,1,35.33-35.32h386.4a192.63,192.63,0,0,0,12.06,135.06m-.83,285.42H411.4V428.4h70.65Zm-176.9,0H234.5V488.92h70.65ZM942.7,489.78a28.15,28.15,0,0,1-39.8,0L771.36,358.24a194.48,194.48,0,0,0,39.79-39.81L942.7,450A28.18,28.18,0,0,1,942.7,489.78Z"
          transform="translate(-10.88 -10.99)"></path>
    <path class="f89d464a-49fb-415c-8ef0-7a499a5e2d94"
          d="M656.48,260.08c-12.19,0-22.11-8.21-22.11-18.3a19.11,19.11,0,0,0-38.21,0c0,24.92,17.31,46.11,41.25,53.6a19.08,19.08,0,0,0,38.15,0c23.94-7.49,41.24-28.68,41.24-53.6,0-31.16-27.06-56.51-60.32-56.51-12.19,0-22.11-8.21-22.11-18.3s9.92-18.3,22.11-18.3,22.11,8.21,22.11,18.3a19.11,19.11,0,1,0,38.21,0c0-24.9-17.29-46.08-41.21-53.59v-.81a19.11,19.11,0,0,0-38.22,0v.81c-23.92,7.51-41.21,28.69-41.21,53.59,0,31.16,27.06,56.51,60.32,56.51,12.19,0,22.11,8.21,22.11,18.3S668.67,260.08,656.48,260.08Z"
          transform="translate(-10.88 -10.99)"></path>
</svg>
