<svg xmlns="http://www.w3.org/2000/svg" viewBox="0 0 894.07 988.83">
    <defs>
        <style>
            .fab293c4-4e9c-445f-ac92-3ef45eb1f83b {
            fill: #57b7ff;
            }

            .a6aeeaa0-907e-48cb-89c7-ef3d858367c7 {
            fill: #1684f2;
            }

            .e14bbcc2-1383-4845-b11c-99f1f0cd6ee0 {
            fill: #166bb2;
            opacity: 0.31;
            isolation: isolate;
            }

            .bf39dba0-1691-4268-8e64-6d960c9b07ec {
            fill: #c0e7ff;
            }
        </style>
    </defs>
    <g id="a24715d8-dc28-475b-a000-25891d30b8dd" data-name="Layer 5">
        <path class="fab293c4-4e9c-445f-ac92-3ef45eb1f83b"
              d="M947,786.84,947,667.52,909,653.43s-99.14,23.32-108.38,26.73c-3,1.11-6,6.72-8.59,13.78L511.37,560.31a30,30,0,0,0-26,.09L147.23,724c-5.74-10-12.46-20.65-13.14-20.79-1.21-.24-43.25-28.92-43.25-28.92L53,668.51V789.39h0a29.61,29.61,0,0,0,17.46,26.36L432.52,981.93a141.47,141.47,0,0,0,116.36.75l380.25-168.6A29.64,29.64,0,0,0,947,786.84Z"
              transform="translate(-52.97 -6)" />
        <path class="a6aeeaa0-907e-48cb-89c7-ef3d858367c7"
              d="M929.13,694.52,548.88,863.12a141.51,141.51,0,0,1-116.36-.75l-362-166.19c-19.18-8.81-22.65-32.83-10.16-47a30.14,30.14,0,0,1,9.6-7.25l415.49-201a30,30,0,0,1,26-.08L929.87,640a29.93,29.93,0,0,1,9.79,7.34C952.22,661.63,948.59,685.9,929.13,694.52Z"
              transform="translate(-52.97 -6)" />
        <path class="e14bbcc2-1383-4845-b11c-99f1f0cd6ee0"
              d="M939.66,647.32A30.42,30.42,0,0,1,929.13,655L548.88,823.59a141.43,141.43,0,0,1-116.36-.75l-362-166.19a30,30,0,0,1-10.16-7.52,30.14,30.14,0,0,1,9.6-7.25l415.49-201a30,30,0,0,1,26-.08L929.87,640A29.93,29.93,0,0,1,939.66,647.32Z"
              transform="translate(-52.97 -6)" />
        <path class="fab293c4-4e9c-445f-ac92-3ef45eb1f83b"
              d="M947,611.33,947,492,909,477.92s-99.14,23.33-108.38,26.73c-3,1.11-6,6.73-8.59,13.78L511.37,384.81a30,30,0,0,0-26,.08L147.23,548.52c-5.74-10-12.46-20.65-13.14-20.78-1.21-.25-43.25-28.92-43.25-28.92L53,493V613.88h0a29.61,29.61,0,0,0,17.46,26.36L432.52,806.42a141.47,141.47,0,0,0,116.36.76L929.13,638.57A29.63,29.63,0,0,0,947,611.34Z"
              transform="translate(-52.97 -6)" />
        <path class="a6aeeaa0-907e-48cb-89c7-ef3d858367c7"
              d="M929.13,519,548.88,687.62a141.51,141.51,0,0,1-116.36-.76l-362-166.18c-19.18-8.81-22.65-32.83-10.16-47a30.17,30.17,0,0,1,9.6-7.26l415.49-201a30,30,0,0,1,26-.09l418.5,199.22a30.07,30.07,0,0,1,9.79,7.34C952.22,486.12,948.59,510.39,929.13,519Z"
              transform="translate(-52.97 -6)" />
        <path class="e14bbcc2-1383-4845-b11c-99f1f0cd6ee0"
              d="M939.66,471.81a30.3,30.3,0,0,1-10.53,7.68L548.88,648.08a141.43,141.43,0,0,1-116.36-.74l-362-166.2a30.09,30.09,0,0,1-10.16-7.51,30.17,30.17,0,0,1,9.6-7.26l415.49-201a30,30,0,0,1,26-.09l418.5,199.22A30.07,30.07,0,0,1,939.66,471.81Z"
              transform="translate(-52.97 -6)" />
        <path class="fab293c4-4e9c-445f-ac92-3ef45eb1f83b"
              d="M947,434.91,947,315.59,909,301.5s-99.14,23.33-108.38,26.73c-3,1.11-6,6.73-8.59,13.78L511.37,208.39a30,30,0,0,0-26,.08L147.23,372.1c-5.74-10-12.46-20.65-13.14-20.79-1.21-.24-43.25-28.91-43.25-28.91L53,316.58V437.46h0a29.61,29.61,0,0,0,17.46,26.36L432.52,630a141.47,141.47,0,0,0,116.36.75l380.25-168.6A29.64,29.64,0,0,0,947,434.91Z"
              transform="translate(-52.97 -6)" />
        <path class="a6aeeaa0-907e-48cb-89c7-ef3d858367c7"
              d="M548.88,511.19l380.25-168.6c23.45-10.4,23.9-43.52.74-54.54L511.37,88.83a30,30,0,0,0-26,.08L69.91,290c-22.85,11.05-22.51,43.71.55,54.3L432.52,510.44A141.47,141.47,0,0,0,548.88,511.19Z"
              transform="translate(-52.97 -6)" />
        <path class="bf39dba0-1691-4268-8e64-6d960c9b07ec"
              d="M655.46,120c.08-1.67.13-3.35.13-5a108.93,108.93,0,0,0-210-40.53,86.24,86.24,0,0,0-120.09,79.29c0,2.7.14,5.36.38,8a86.2,86.2,0,1,0-10.4,171.76c.48,0,.95,0,1.43,0l328.61,4v0l1.41,0A108.91,108.91,0,0,0,655.46,120Z"
              transform="translate(-52.97 -6)" />
    </g>
</svg>
