<svg id="f729d9d5-6272-4ccd-9bfb-261b486eff30" data-name="Capa 1"
              xmlns="http://www.w3.org/2000/svg" viewBox="0 0 206.84 229.37">
              <title>Roadmap</title>
              <defs>
                <style>
                  .bfc54a70-1aea-4ad5-9b28-4443a40d228c {
                    fill: #b4c6e6;
                  }

                  .be98e17f-b404-4421-90ba-780f87e53cba {
                    fill: #56597a;
                  }

                  .e3fe99ff-4a55-4227-94fc-6bd4cf9a4f1d {
                    fill: #eaeaea;
                  }

                  .bdbfaf8f-2bf6-4565-8d7c-ee7fe7af297b {
                    fill: #57455d;
                  }

                  .afa7e203-ffc4-4ed2-a406-ca9a6662a67c {
                    fill: #74a0d4;
                  }

                  .a2475708-f440-4869-9811-d9db9f7458bf {
                    fill: #ed84ae;
                  }
                </style>
              </defs>
              <path class="bfc54a70-1aea-4ad5-9b28-4443a40d228c"
                d="M203.64,47.55c-4.59-11-13.75-20.76-22.12-29.08-4.87-4.84-10.32-9.19-16.68-11.9-6-2.57-12.54-3.43-19-4.16C129.68.6,113.24-1,97,.82A91.85,91.85,0,0,0,75.32,6C54.79,9.9,38.91,24.43,30.74,43.83c-5,11.8-8.2,24.25-12.94,36.15C12.56,93.16,6.6,106.13,3.11,119.92-.15,132.75-1.35,146.37,2,159.32c2.7,10.49,8.12,20,14.81,28.44,7.53,9.48,16.64,17.57,26.16,25,10.28,8,20.33,14.4,33.55,15.94C124.69,234.34,170.94,203,186,157.5c3.93-11.88,5-23.8,5.27-36.22a48.35,48.35,0,0,1,4.91-20.53c2.83-6,5.8-12,7.75-18.36C207.42,71.06,208.28,58.68,203.64,47.55Z" />
              <path class="be98e17f-b404-4421-90ba-780f87e53cba"
                d="M180.75,51.62c0-3.64,0-7.28-.1-10.92-.05-2.44.11-5-1.48-7-3.22-4.11-10.7-2.88-15.2-3-15.94-.29-31.91-.92-47.85-.7-15.19.21-30.14,3-45.32,3.34-16.81.39-33.7-.81-50.42,1.54-5,.71-14.18.7-14.74,7.47-.26,3.18.65,6.82,1.41,10.07a49.3,49.3,0,0,0,1.6,11.31c1.56,5.61,5.44,7.94,11,8.61C35.12,74.23,51,74.48,66.51,74.7c32.36.46,64.69-1.12,97-2.79,5-.25,10.55,0,14.08-4.11C181.32,63.45,180.79,56.93,180.75,51.62Z" />
              <path class="e3fe99ff-4a55-4227-94fc-6bd4cf9a4f1d"
                d="M31.82,45.13c-2.77-1.73-6.72-1.07-9.67.37a8.08,8.08,0,0,0-5,3.44,8.85,8.85,0,0,0,.21,9.69c4.88,6.89,15.11,3.5,17.24-3.87C35.58,51.43,35,47.11,31.82,45.13Z" />
              <path class="bdbfaf8f-2bf6-4565-8d7c-ee7fe7af297b"
                d="M158.4,47.88A661.74,661.74,0,0,1,49.63,48.94c-3.86-.28-3.84,5.72,0,6A661.74,661.74,0,0,0,158.4,53.88C162.21,53.53,162.25,47.53,158.4,47.88Z" />
              <path class="be98e17f-b404-4421-90ba-780f87e53cba"
                d="M5.93,161.89c-.08,3.63-.21,7.27-.25,10.91,0,2.44-.27,5,1.25,7.07,3.1,4.22,10.6,3.23,15.1,3.45,15.92.8,31.86,1.94,47.8,2.23,15.19.28,30.23-2,45.41-1.89,16.82.15,33.66,1.89,50.44.07,5-.55,14.19-.25,15-7,.37-3.17-.43-6.84-1.09-10.11a48.46,48.46,0,0,0-1.24-11.35c-1.38-5.67-5.17-8.11-10.73-9-15.38-2.37-31.21-3.12-46.74-3.84-32.33-1.5-64.7-.95-97-.32-5,.1-10.54-.35-14.21,3.66C5.74,150,6.06,156.58,5.93,161.89Z" />
              <path class="e3fe99ff-4a55-4227-94fc-6bd4cf9a4f1d"
                d="M32.41,154.4a8.56,8.56,0,0,0-5.2-1.08,2.71,2.71,0,0,0-3.12-.14c-5.84,3.39-8.5,12.07-2.69,16.83a9.25,9.25,0,0,0,9,1.66c3.28-1.24,5.13-4.59,5.7-7.91C36.72,160.17,35.71,156.34,32.41,154.4Z" />
              <path class="bdbfaf8f-2bf6-4565-8d7c-ee7fe7af297b"
                d="M151.35,165.39q-46.48-1.21-92.9-4.19c-3.86-.25-3.84,5.75,0,6q46.41,3,92.9,4.19C155.21,171.49,155.21,165.49,151.35,165.39Z" />
              <path class="afa7e203-ffc4-4ed2-a406-ca9a6662a67c"
                d="M180.75,103.38c0-3.64,0-7.28-.1-10.92-.05-2.44.11-5-1.48-7-3.22-4.11-10.7-2.88-15.2-3-15.94-.29-31.91-.92-47.85-.7-15.19.21-30.14,3-45.32,3.34C54,85.5,37.1,84.3,20.38,86.65c-5,.71-14.18.7-14.74,7.47-.26,3.18.65,6.82,1.41,10.07a49.3,49.3,0,0,0,1.6,11.31c1.56,5.61,5.44,7.94,11,8.61,15.45,1.88,31.3,2.13,46.84,2.35,32.36.46,64.69-1.12,97-2.79,5-.25,10.55,0,14.08-4.11C181.32,115.21,180.79,108.69,180.75,103.38Z" />
              <path class="e3fe99ff-4a55-4227-94fc-6bd4cf9a4f1d"
                d="M35.38,103.07c-.72-3.38-3.67-7.84-7.35-8.47-3.92-.68-7.27,3.52-8.22,6.94-1.75,3.43-1.75,7.72,1.25,10.71C27.59,118.77,37.05,111,35.38,103.07Z" />
              <path class="bdbfaf8f-2bf6-4565-8d7c-ee7fe7af297b"
                d="M157.89,100.77,55.26,102.24c-3.86.05-3.87,6.05,0,6l102.63-1.47C161.75,106.71,161.76,100.71,157.89,100.77Z" />
              <path class="a2475708-f440-4869-9811-d9db9f7458bf"
                d="M36.58,89.09a91,91,0,0,0-8.8,14.1,17.8,17.8,0,0,1-1.39-2.25c-1.75-3.44-6.93-.41-5.18,3a21.66,21.66,0,0,0,5.05,6.48,3,3,0,0,0,4.71-.61c3.09-5.52,5.86-11.57,9.85-16.51C43.23,90.35,39,86.08,36.58,89.09Z" />
            </svg>