<svg id="bfce0a68-962c-4c19-aa8c-fbcac747fc66" data-name="Layer 1" xmlns="http://www.w3.org/2000/svg"
     viewBox="0 0 988.9 893.23">
    <defs>
        <style>
            .a76c997d-c9fd-4295-ac3d-a93112aa3d30 {
            fill: #fff;
            }

            .a2b8c2d5-083e-407c-b3cf-97857e403575 {
            fill: #c0e7ff;
            }

            .a15acb39-2695-4ebf-8370-215fc73f6e4f {
            fill: #57b7ff;
            }

            .a663cadf-4262-435c-90bc-27e8671f6562 {
            fill: #1684f2;
            }
        </style>
    </defs>
    <rect class="a76c997d-c9fd-4295-ac3d-a93112aa3d30" x="32.19" y="24.32" width="924.53" height="625.77">
    </rect>
    <rect class="a2b8c2d5-083e-407c-b3cf-97857e403575" x="679.6" y="247.53" width="191.01" height="183.23">
    </rect>
    <rect class="a15acb39-2695-4ebf-8370-215fc73f6e4f" x="23.85" y="640.65" width="937.82" height="106.05"
          rx="21.52"></rect>
    <path class="a15acb39-2695-4ebf-8370-215fc73f6e4f"
          d="M420.08,763.91h187a39.72,39.72,0,0,1,39.72,39.72V870a0,0,0,0,1,0,0H345.34a0,0,0,0,1,0,0V838.65a74.74,74.74,0,0,1,74.74-74.74Z">
    </path>
    <path class="a663cadf-4262-435c-90bc-27e8671f6562"
          d="M848.6,284.12H178a57.63,57.63,0,0,0-57.56,57.57V449.16A57.63,57.63,0,0,0,178,506.73H302.62a16.09,16.09,0,0,0,0-32.18H178a25.41,25.41,0,0,1-25.38-25.38V341.69A25.41,25.41,0,0,1,178,316.31H848.6A25.41,25.41,0,0,1,874,341.69V449.17a25.41,25.41,0,0,1-25.38,25.38H696.43V308.94a16.1,16.1,0,0,0-32.19,0V474.55H305.51a16.09,16.09,0,1,0,0,32.18H848.6a57.63,57.63,0,0,0,57.57-57.57V341.69A57.63,57.63,0,0,0,848.6,284.12Z"
          transform="translate(-5.55 -53.38)"></path>
    <path class="a663cadf-4262-435c-90bc-27e8671f6562"
          d="M832.15,423.65l-15.38-15.38a45.84,45.84,0,1,0-19.88,19.83l15.4,15.4a14,14,0,1,0,19.86-19.85Zm-38.68-18.83a24.65,24.65,0,1,1,0-34.87h0a24.66,24.66,0,0,1,0,34.87Z"
          transform="translate(-5.55 -53.38)"></path>
    <path class="a663cadf-4262-435c-90bc-27e8671f6562"
          d="M861.43,713.61H962.27v29.5a46.58,46.58,0,0,1-46.53,46.53H84.26a46.59,46.59,0,0,1-46.53-46.53v-29.5h823.7Zm-22.25-32.19H37.73V300.14a16.09,16.09,0,0,0-32.18,0v443a78.8,78.8,0,0,0,78.71,78.72H360.05l-39.59,92.6H243.14a16.1,16.1,0,0,0,0,32.19H756.86a16.1,16.1,0,0,0,0-32.19H679.54L640,821.83H915.74a78.8,78.8,0,0,0,78.71-78.72v-611a78.81,78.81,0,0,0-78.71-78.72H84.26A78.81,78.81,0,0,0,5.55,132.1V355.51a16.09,16.09,0,0,0,32.18,0V132.1A46.58,46.58,0,0,1,84.26,85.57H915.74a46.58,46.58,0,0,1,46.53,46.53V681.42H839.18Zm-194.65,233H355.47L383,850.09H617Z"
          transform="translate(-5.55 -53.38)"></path>
    <path class="a663cadf-4262-435c-90bc-27e8671f6562"
          d="M513.9,738.73a16.08,16.08,0,0,0-29.44,8.14c-.71,14.55,17.58,22.46,27.67,11.92A16.19,16.19,0,0,0,513.9,738.73Z"
          transform="translate(-5.55 -53.38)"></path>
    <path class="a663cadf-4262-435c-90bc-27e8671f6562"
          d="M191.85,408.73l22.8-2.32c1,9.76,6.22,13.52,15.64,13.52,7.52,0,10.66-2.53,10.66-6.42,0-4.17-3.9-6.08-16.33-8.95-20.21-4.64-30.73-11.33-30.73-28.06,0-18.37,15.1-27.93,33.67-27.93,22.74,0,35,10.1,36.95,31.41L243.2,382.3c-1.43-9.76-6.62-14-15.23-14-7,0-10,3.07-10,6.63,0,4.37,3.28,6.41,19.87,10.65,17.76,4.57,27.46,11.27,27.46,26.29,0,17.28-14.35,27.93-34.83,27.93S193.28,431.2,191.85,408.73Z"
          transform="translate(-5.55 -53.38)"></path>
    <path class="a663cadf-4262-435c-90bc-27e8671f6562"
          d="M276.6,349.8h60.91v20.48h-37V384h31.14v18.57H300.5v15.5h38.38v20.49H276.6Z"
          transform="translate(-5.55 -53.38)"></path>
    <path class="a663cadf-4262-435c-90bc-27e8671f6562"
          d="M346.39,394.18c0-26.9,15.3-45.61,44.8-45.61S436,367.28,436,394.18s-15.3,45.62-44.8,45.62S346.39,421.09,346.39,394.18Zm65,0c0-15.7-6.55-25.67-20.21-25.67S371,378.48,371,394.18s6.56,25.68,20.22,25.68S411.4,409.89,411.4,394.18Z"
          transform="translate(-5.55 -53.38)"></path>
</svg>
