<svg id="bc72bb80-c81a-46fc-9983-1234e3f81e11" data-name="Layer 1" xmlns="http://www.w3.org/2000/svg"
     viewBox="0 0 974.94 843.96">
    <defs>
        <style>
            .a8c5a5f6-eca7-44de-a2f4-c87ca02ba713 {
            fill: #1684f2;
            }

            .af72052a-db00-4048-bc46-994f5a4395cc {
            fill: #c0e7ff;
            }

            .b46943d3-5ddc-4973-bca7-4a5e4e11390a {
            fill: #f1f2f2;
            }

            .bf16ac3c-e015-48e7-a156-fb277c5add33 {
            fill: #57b7ff;
            }
        </style>
    </defs>
    <rect class="a8c5a5f6-eca7-44de-a2f4-c87ca02ba713" width="882.74" height="232.61" rx="38.35" />
    <rect class="a8c5a5f6-eca7-44de-a2f4-c87ca02ba713" y="273.66" width="882.74" height="232.61" rx="38.35" />
    <path class="a8c5a5f6-eca7-44de-a2f4-c87ca02ba713"
          d="M248.82,701.91a199.51,199.51,0,0,0-10,62.66c0,3,.06,6,.2,8.91A199.26,199.26,0,0,0,259.85,854H60.27a47.73,47.73,0,0,1-47.74-47.73V669.12a47.73,47.73,0,0,1,47.74-47.74H298.85l-.8.77a201,201,0,0,0-43.3,64Q251.45,693.94,248.82,701.91Z"
          transform="translate(-12.53 -78.02)" />
    <path class="a8c5a5f6-eca7-44de-a2f4-c87ca02ba713"
          d="M526.75,762.26l.4.4L515,773.48l-32.4,28.72-.91.81-.87.86a56.24,56.24,0,0,1-95-30.39,54.48,54.48,0,0,1-.72-8.91C385,733.9,410.17,709,441.08,709c15.43,0,29.24,5.93,41,17.62l.89.88.93.82,13.88,12.29a72.85,72.85,0,0,0,34.33,17Z"
          transform="translate(-12.53 -78.02)" />
    <path class="a8c5a5f6-eca7-44de-a2f4-c87ca02ba713"
          d="M570.84,701.91a29.42,29.42,0,0,1-44.17,6l-6.81-6-7.07-6.26c-20.13-20-45.11-30.27-71.71-30.27a99.69,99.69,0,0,0-77.17,36.53,98.5,98.5,0,0,0-22.45,62.66q0,4.5.41,8.91A99.37,99.37,0,0,0,398.06,854H310.31a156.28,156.28,0,0,1-27.65-80.52q-.27-4.43-.27-8.91a156.69,156.69,0,0,1,13-62.66,158.94,158.94,0,0,1,78.78-80.53H508A158.91,158.91,0,0,1,553.34,653l12.3,10.89A29.38,29.38,0,0,1,570.84,701.91Z"
          transform="translate(-12.53 -78.02)" />
    <path class="a8c5a5f6-eca7-44de-a2f4-c87ca02ba713"
          d="M594.52,631.3l-11.2-9.92H686.6l-49.73,44-.09-.09L619,681A73,73,0,0,0,594.52,631.3Z"
          transform="translate(-12.53 -78.02)" />
    <path class="a8c5a5f6-eca7-44de-a2f4-c87ca02ba713"
          d="M757.29,833.63A106.48,106.48,0,0,0,786,854H696.44a29.39,29.39,0,0,1,7.92-32.55l.09-.07a29.36,29.36,0,0,1,39,0Z"
          transform="translate(-12.53 -78.02)" />
    <path class="a8c5a5f6-eca7-44de-a2f4-c87ca02ba713"
          d="M885.05,764.57c0,30.66-25.15,55.6-56,55.6-15.45,0-29.29-5.91-41.13-17.57l-.82-.83-.87-.77-13.86-12.26a72.93,72.93,0,0,0-27.42-15.26,68.67,68.67,0,0,0-7.52-1.83l5.69-5-.11-.1,44.52-39.4,1-.88.93-.94a56.54,56.54,0,0,1,7.09-6A55.53,55.53,0,0,1,829,709C859.9,709,885.05,733.9,885.05,764.57Z"
          transform="translate(-12.53 -78.02)" />
    <path class="a8c5a5f6-eca7-44de-a2f4-c87ca02ba713"
          d="M895.27,669.12v21.46a99.71,99.71,0,0,0-136.65,3.89l-8.4,7.44-42.16,37.31-28.65,25.35.15.13-44.37,39.39-.15-.15L578.59,854H484.27a99.7,99.7,0,0,0,27.2-19.2l70.19-62.27h0l6.3-5.59h0l2.67-2.36-.28-.29L634.89,725l.15.15,83-73.46a152.19,152.19,0,0,1,43.55-30.34h85.92A47.73,47.73,0,0,1,895.27,669.12Z"
          transform="translate(-12.53 -78.02)" />
    <rect class="af72052a-db00-4048-bc46-994f5a4395cc" x="62.38" y="80.52" width="514.68" height="71.57"
          rx="10.24" />
    <rect class="af72052a-db00-4048-bc46-994f5a4395cc" x="62.38" y="354.18" width="514.68" height="71.57"
          rx="10.24" />
    <path class="af72052a-db00-4048-bc46-994f5a4395cc"
          d="M248.82,701.91a199.51,199.51,0,0,0-10,62.66c0,3,.06,6,.2,8.91H87.65A12.76,12.76,0,0,1,74.9,760.73V714.65a12.75,12.75,0,0,1,12.75-12.74Z"
          transform="translate(-12.53 -78.02)" />
    <path class="b46943d3-5ddc-4973-bca7-4a5e4e11390a"
          d="M341.46,764.57q0,4.5.41,8.91H282.66q-.27-4.43-.27-8.91a156.69,156.69,0,0,1,13-62.66h68.51A98.5,98.5,0,0,0,341.46,764.57Z"
          transform="translate(-12.53 -78.02)" />
    <path class="b46943d3-5ddc-4973-bca7-4a5e4e11390a" d="M519.86,701.91h51a29.42,29.42,0,0,1-44.17,6Z"
          transform="translate(-12.53 -78.02)" />
    <path class="b46943d3-5ddc-4973-bca7-4a5e4e11390a" d="M588,766.93a12.59,12.59,0,0,1-6.3,5.59Z"
          transform="translate(-12.53 -78.02)" />
    <rect class="af72052a-db00-4048-bc46-994f5a4395cc" x="695.52" y="80.52" width="89.22" height="71.57"
          rx="18.78" />
    <rect class="af72052a-db00-4048-bc46-994f5a4395cc" x="695.52" y="354.18" width="89.22" height="71.57"
          rx="18.78" />
    <path class="b46943d3-5ddc-4973-bca7-4a5e4e11390a"
          d="M750.22,701.91l-42.16,37.31V725.28a23.36,23.36,0,0,1,23.37-23.37Z"
          transform="translate(-12.53 -78.02)" />
    <path class="bf16ac3c-e015-48e7-a156-fb277c5add33"
          d="M828.78,606.06c-42.32,0-82.28,16.46-110.94,45.11l-83,73.47-.14-.15-44.53,39.24.3.29-79.2,70.24a99.27,99.27,0,0,1-70.38,28.94c-55,0-99.63-44.52-99.63-99.18s44.67-99.18,99.63-99.18c26.59,0,51.57,10.28,71.7,30.27l13.88,12.29a29.41,29.41,0,0,0,39,0h0a29.39,29.39,0,0,0,0-44l-12.3-10.89a158,158,0,0,0-112.25-46.29c-87.58-.15-158.7,70.68-158.7,157.81s71.12,158,158.7,158c42.31,0,82.13-16.46,110.93-45l83-73.62.15.15,44.37-39.38-.14-.15,79.2-70.09a98.75,98.75,0,0,1,70.38-29.09c55,0,99.62,44.52,99.62,99.18s-44.67,99.18-99.62,99.18c-26.6,0-51.58-10.28-71.71-30.12l-13.84-12.26a29.4,29.4,0,0,0-39,0l-.08.08a29.39,29.39,0,0,0,0,44l12.35,10.93A157.83,157.83,0,0,0,828.63,922c87.72,0,158.84-70.83,158.84-158S916.35,606.06,828.78,606.06Z"
          transform="translate(-12.53 -78.02)" />
</svg>
