<svg id="a8c38b13-36b9-4791-a416-8018f6d57b9e" data-name="Layer 2" xmlns="http://www.w3.org/2000/svg"
     viewBox="0 0 973.13 978.07">
    <defs>
        <style>
            .e7b1814b-02de-4b12-bb0b-435ed772f4ce {
            fill: #57b7ff;
            }

            .bfcdf9b3-a226-442d-ad4d-6b95c819eb0a {
            fill: #1684f2;
            }

            .a2b9e0ae-bbbf-4bd6-aa71-2b5ccc7a63d7 {
            fill: #c0e7ff;
            }

            .bbee6c17-f348-4fd4-b4dc-720e4aa682cf {
            fill: none;
            }
        </style>
    </defs>
    <path class="e7b1814b-02de-4b12-bb0b-435ed772f4ce"
          d="M414.46,794.61c-1.24-1.25-4.26-2-8.3-2-5.1,0-8.31,1.17-9.59,2.27-.33.28-1.21,1-1.21,4.11,0,.84.08,2.84.78,3.42,1,.87,3.89,1.88,8.55,1.88a26.33,26.33,0,0,0,12.41-2.93C416.49,797.83,415.46,795.62,414.46,794.61Zm0,0c-1.24-1.25-4.26-2-8.3-2-5.1,0-8.31,1.17-9.59,2.27-.33.28-1.21,1-1.21,4.11,0,.84.08,2.84.78,3.42,1,.87,3.89,1.88,8.55,1.88a26.33,26.33,0,0,0,12.41-2.93C416.49,797.83,415.46,795.62,414.46,794.61Zm0,0c-1.24-1.25-4.26-2-8.3-2-5.1,0-8.31,1.17-9.59,2.27-.33.28-1.21,1-1.21,4.11,0,.84.08,2.84.78,3.42,1,.87,3.89,1.88,8.55,1.88a26.33,26.33,0,0,0,12.41-2.93C416.49,797.83,415.46,795.62,414.46,794.61Zm0,0c-1.24-1.25-4.26-2-8.3-2-5.1,0-8.31,1.17-9.59,2.27-.33.28-1.21,1-1.21,4.11,0,.84.08,2.84.78,3.42,1,.87,3.89,1.88,8.55,1.88a26.33,26.33,0,0,0,12.41-2.93C416.49,797.83,415.46,795.62,414.46,794.61Zm0,0c-1.24-1.25-4.26-2-8.3-2-5.1,0-8.31,1.17-9.59,2.27-.33.28-1.21,1-1.21,4.11,0,.84.08,2.84.78,3.42,1,.87,3.89,1.88,8.55,1.88a26.33,26.33,0,0,0,12.41-2.93C416.49,797.83,415.46,795.62,414.46,794.61Zm0,0c-1.24-1.25-4.26-2-8.3-2-5.1,0-8.31,1.17-9.59,2.27-.33.28-1.21,1-1.21,4.11,0,.84.08,2.84.78,3.42,1,.87,3.89,1.88,8.55,1.88a26.33,26.33,0,0,0,12.41-2.93C416.49,797.83,415.46,795.62,414.46,794.61Zm0,0c-1.24-1.25-4.26-2-8.3-2-5.1,0-8.31,1.17-9.59,2.27-.33.28-1.21,1-1.21,4.11,0,.84.08,2.84.78,3.42,1,.87,3.89,1.88,8.55,1.88a26.33,26.33,0,0,0,12.41-2.93C416.49,797.83,415.46,795.62,414.46,794.61Zm0,0c-1.24-1.25-4.26-2-8.3-2-5.1,0-8.31,1.17-9.59,2.27-.33.28-1.21,1-1.21,4.11,0,.84.08,2.84.78,3.42,1,.87,3.89,1.88,8.55,1.88a26.33,26.33,0,0,0,12.41-2.93C416.49,797.83,415.46,795.62,414.46,794.61Zm0,0c-1.24-1.25-4.26-2-8.3-2-5.1,0-8.31,1.17-9.59,2.27-.33.28-1.21,1-1.21,4.11,0,.84.08,2.84.78,3.42,1,.87,3.89,1.88,8.55,1.88a26.33,26.33,0,0,0,12.41-2.93C416.49,797.83,415.46,795.62,414.46,794.61Zm0,0c-1.24-1.25-4.26-2-8.3-2-5.1,0-8.31,1.17-9.59,2.27-.33.28-1.21,1-1.21,4.11,0,.84.08,2.84.78,3.42,1,.87,3.89,1.88,8.55,1.88a26.33,26.33,0,0,0,12.41-2.93C416.49,797.83,415.46,795.62,414.46,794.61Zm0,0c-1.24-1.25-4.26-2-8.3-2-5.1,0-8.31,1.17-9.59,2.27-.33.28-1.21,1-1.21,4.11,0,.84.08,2.84.78,3.42,1,.87,3.89,1.88,8.55,1.88a26.33,26.33,0,0,0,12.41-2.93C416.49,797.83,415.46,795.62,414.46,794.61Zm0,0c-1.24-1.25-4.26-2-8.3-2-5.1,0-8.31,1.17-9.59,2.27-.33.28-1.21,1-1.21,4.11,0,.84.08,2.84.78,3.42,1,.87,3.89,1.88,8.55,1.88a26.33,26.33,0,0,0,12.41-2.93C416.49,797.83,415.46,795.62,414.46,794.61Zm0,0c-1.24-1.25-4.26-2-8.3-2-5.1,0-8.31,1.17-9.59,2.27-.33.28-1.21,1-1.21,4.11,0,.84.08,2.84.78,3.42,1,.87,3.89,1.88,8.55,1.88a26.33,26.33,0,0,0,12.41-2.93C416.49,797.83,415.46,795.62,414.46,794.61Zm0,0c-1.24-1.25-4.26-2-8.3-2-5.1,0-8.31,1.17-9.59,2.27-.33.28-1.21,1-1.21,4.11,0,.84.08,2.84.78,3.42,1,.87,3.89,1.88,8.55,1.88a26.33,26.33,0,0,0,12.41-2.93C416.49,797.83,415.46,795.62,414.46,794.61Zm0,0c-1.24-1.25-4.26-2-8.3-2-5.1,0-8.31,1.17-9.59,2.27-.33.28-1.21,1-1.21,4.11,0,.84.08,2.84.78,3.42,1,.87,3.89,1.88,8.55,1.88a26.33,26.33,0,0,0,12.41-2.93C416.49,797.83,415.46,795.62,414.46,794.61Zm0,0c-1.24-1.25-4.26-2-8.3-2-5.1,0-8.31,1.17-9.59,2.27-.33.28-1.21,1-1.21,4.11,0,.84.08,2.84.78,3.42,1,.87,3.89,1.88,8.55,1.88a26.33,26.33,0,0,0,12.41-2.93C416.49,797.83,415.46,795.62,414.46,794.61Zm-8.3-2c-5.1,0-8.31,1.17-9.59,2.27-.33.28-1.21,1-1.21,4.11,0,.84.08,2.84.78,3.42,1,.87,3.89,1.88,8.55,1.88a26.33,26.33,0,0,0,12.41-2.93c-.61-3.55-1.64-5.76-2.64-6.77C413.22,793.36,410.2,792.63,406.16,792.63Zm8.3,2c-1.24-1.25-4.26-2-8.3-2-5.1,0-8.31,1.17-9.59,2.27-.33.28-1.21,1-1.21,4.11,0,.84.08,2.84.78,3.42,1,.87,3.89,1.88,8.55,1.88a26.33,26.33,0,0,0,12.41-2.93C416.49,797.83,415.46,795.62,414.46,794.61Zm0,0c-1.24-1.25-4.26-2-8.3-2-5.1,0-8.31,1.17-9.59,2.27-.33.28-1.21,1-1.21,4.11,0,.84.08,2.84.78,3.42,1,.87,3.89,1.88,8.55,1.88a26.33,26.33,0,0,0,12.41-2.93C416.49,797.83,415.46,795.62,414.46,794.61Zm0,0c-1.24-1.25-4.26-2-8.3-2-5.1,0-8.31,1.17-9.59,2.27-.33.28-1.21,1-1.21,4.11,0,.84.08,2.84.78,3.42,1,.87,3.89,1.88,8.55,1.88a26.33,26.33,0,0,0,12.41-2.93C416.49,797.83,415.46,795.62,414.46,794.61Zm0,0c-1.24-1.25-4.26-2-8.3-2-5.1,0-8.31,1.17-9.59,2.27-.33.28-1.21,1-1.21,4.11,0,.84.08,2.84.78,3.42,1,.87,3.89,1.88,8.55,1.88a26.33,26.33,0,0,0,12.41-2.93C416.49,797.83,415.46,795.62,414.46,794.61Zm0,0c-1.24-1.25-4.26-2-8.3-2-5.1,0-8.31,1.17-9.59,2.27-.33.28-1.21,1-1.21,4.11,0,.84.08,2.84.78,3.42,1,.87,3.89,1.88,8.55,1.88a26.33,26.33,0,0,0,12.41-2.93C416.49,797.83,415.46,795.62,414.46,794.61Zm0,0c-1.24-1.25-4.26-2-8.3-2-5.1,0-8.31,1.17-9.59,2.27-.33.28-1.21,1-1.21,4.11,0,.84.08,2.84.78,3.42,1,.87,3.89,1.88,8.55,1.88a26.33,26.33,0,0,0,12.41-2.93C416.49,797.83,415.46,795.62,414.46,794.61Zm0,0c-1.24-1.25-4.26-2-8.3-2-5.1,0-8.31,1.17-9.59,2.27-.33.28-1.21,1-1.21,4.11,0,.84.08,2.84.78,3.42,1,.87,3.89,1.88,8.55,1.88a26.33,26.33,0,0,0,12.41-2.93C416.49,797.83,415.46,795.62,414.46,794.61Zm0,0c-1.24-1.25-4.26-2-8.3-2-5.1,0-8.31,1.17-9.59,2.27-.33.28-1.21,1-1.21,4.11,0,.84.08,2.84.78,3.42,1,.87,3.89,1.88,8.55,1.88a26.33,26.33,0,0,0,12.41-2.93C416.49,797.83,415.46,795.62,414.46,794.61Zm0,0c-1.24-1.25-4.26-2-8.3-2-5.1,0-8.31,1.17-9.59,2.27-.33.28-1.21,1-1.21,4.11,0,.84.08,2.84.78,3.42,1,.87,3.89,1.88,8.55,1.88a26.33,26.33,0,0,0,12.41-2.93C416.49,797.83,415.46,795.62,414.46,794.61Zm0,0c-1.24-1.25-4.26-2-8.3-2-5.1,0-8.31,1.17-9.59,2.27-.33.28-1.21,1-1.21,4.11,0,.84.08,2.84.78,3.42,1,.87,3.89,1.88,8.55,1.88a26.33,26.33,0,0,0,12.41-2.93C416.49,797.83,415.46,795.62,414.46,794.61Zm0,0c-1.24-1.25-4.26-2-8.3-2-5.1,0-8.31,1.17-9.59,2.27-.33.28-1.21,1-1.21,4.11,0,.84.08,2.84.78,3.42,1,.87,3.89,1.88,8.55,1.88a26.33,26.33,0,0,0,12.41-2.93C416.49,797.83,415.46,795.62,414.46,794.61Zm0,0c-1.24-1.25-4.26-2-8.3-2-5.1,0-8.31,1.17-9.59,2.27-.33.28-1.21,1-1.21,4.11,0,.84.08,2.84.78,3.42,1,.87,3.89,1.88,8.55,1.88a26.33,26.33,0,0,0,12.41-2.93C416.49,797.83,415.46,795.62,414.46,794.61Zm0,0c-1.24-1.25-4.26-2-8.3-2-5.1,0-8.31,1.17-9.59,2.27-.33.28-1.21,1-1.21,4.11,0,.84.08,2.84.78,3.42,1,.87,3.89,1.88,8.55,1.88a26.33,26.33,0,0,0,12.41-2.93C416.49,797.83,415.46,795.62,414.46,794.61Zm0,0c-1.24-1.25-4.26-2-8.3-2-5.1,0-8.31,1.17-9.59,2.27-.33.28-1.21,1-1.21,4.11,0,.84.08,2.84.78,3.42,1,.87,3.89,1.88,8.55,1.88a26.33,26.33,0,0,0,12.41-2.93C416.49,797.83,415.46,795.62,414.46,794.61Zm0,0c-1.24-1.25-4.26-2-8.3-2-5.1,0-8.31,1.17-9.59,2.27-.33.28-1.21,1-1.21,4.11,0,.84.08,2.84.78,3.42,1,.87,3.89,1.88,8.55,1.88a26.33,26.33,0,0,0,12.41-2.93C416.49,797.83,415.46,795.62,414.46,794.61Zm0,0c-1.24-1.25-4.26-2-8.3-2-5.1,0-8.31,1.17-9.59,2.27-.33.28-1.21,1-1.21,4.11,0,.84.08,2.84.78,3.42,1,.87,3.89,1.88,8.55,1.88a26.33,26.33,0,0,0,12.41-2.93C416.49,797.83,415.46,795.62,414.46,794.61Zm0,0c-1.24-1.25-4.26-2-8.3-2-5.1,0-8.31,1.17-9.59,2.27-.33.28-1.21,1-1.21,4.11,0,.84.08,2.84.78,3.42,1,.87,3.89,1.88,8.55,1.88a26.33,26.33,0,0,0,12.41-2.93C416.49,797.83,415.46,795.62,414.46,794.61Zm0,0c-1.24-1.25-4.26-2-8.3-2-5.1,0-8.31,1.17-9.59,2.27-.33.28-1.21,1-1.21,4.11,0,.84.08,2.84.78,3.42,1,.87,3.89,1.88,8.55,1.88a26.33,26.33,0,0,0,12.41-2.93C416.49,797.83,415.46,795.62,414.46,794.61Zm0,0c-1.24-1.25-4.26-2-8.3-2-5.1,0-8.31,1.17-9.59,2.27-.33.28-1.21,1-1.21,4.11,0,.84.08,2.84.78,3.42,1,.87,3.89,1.88,8.55,1.88a26.33,26.33,0,0,0,12.41-2.93C416.49,797.83,415.46,795.62,414.46,794.61Zm0,0c-1.24-1.25-4.26-2-8.3-2-5.1,0-8.31,1.17-9.59,2.27-.33.28-1.21,1-1.21,4.11,0,.84.08,2.84.78,3.42,1,.87,3.89,1.88,8.55,1.88a26.33,26.33,0,0,0,12.41-2.93C416.49,797.83,415.46,795.62,414.46,794.61Zm0,0c-1.24-1.25-4.26-2-8.3-2-5.1,0-8.31,1.17-9.59,2.27-.33.28-1.21,1-1.21,4.11,0,.84.08,2.84.78,3.42,1,.87,3.89,1.88,8.55,1.88a26.33,26.33,0,0,0,12.41-2.93C416.49,797.83,415.46,795.62,414.46,794.61Zm0,0c-1.24-1.25-4.26-2-8.3-2-5.1,0-8.31,1.17-9.59,2.27-.33.28-1.21,1-1.21,4.11,0,.84.08,2.84.78,3.42,1,.87,3.89,1.88,8.55,1.88a26.33,26.33,0,0,0,12.41-2.93C416.49,797.83,415.46,795.62,414.46,794.61Zm0,0c-1.24-1.25-4.26-2-8.3-2-5.1,0-8.31,1.17-9.59,2.27-.33.28-1.21,1-1.21,4.11,0,.84.08,2.84.78,3.42,1,.87,3.89,1.88,8.55,1.88a26.33,26.33,0,0,0,12.41-2.93C416.49,797.83,415.46,795.62,414.46,794.61Zm0,0c-1.24-1.25-4.26-2-8.3-2-5.1,0-8.31,1.17-9.59,2.27-.33.28-1.21,1-1.21,4.11,0,.84.08,2.84.78,3.42,1,.87,3.89,1.88,8.55,1.88a26.33,26.33,0,0,0,12.41-2.93C416.49,797.83,415.46,795.62,414.46,794.61Zm0,0c-1.24-1.25-4.26-2-8.3-2-5.1,0-8.31,1.17-9.59,2.27-.33.28-1.21,1-1.21,4.11,0,.84.08,2.84.78,3.42,1,.87,3.89,1.88,8.55,1.88a26.33,26.33,0,0,0,12.41-2.93C416.49,797.83,415.46,795.62,414.46,794.61Zm0,0c-1.24-1.25-4.26-2-8.3-2-5.1,0-8.31,1.17-9.59,2.27-.33.28-1.21,1-1.21,4.11,0,.84.08,2.84.78,3.42,1,.87,3.89,1.88,8.55,1.88a26.33,26.33,0,0,0,12.41-2.93C416.49,797.83,415.46,795.62,414.46,794.61Zm0,0c-1.24-1.25-4.26-2-8.3-2-5.1,0-8.31,1.17-9.59,2.27-.33.28-1.21,1-1.21,4.11,0,.84.08,2.84.78,3.42,1,.87,3.89,1.88,8.55,1.88a26.33,26.33,0,0,0,12.41-2.93C416.49,797.83,415.46,795.62,414.46,794.61Zm0,0c-1.24-1.25-4.26-2-8.3-2-5.1,0-8.31,1.17-9.59,2.27-.33.28-1.21,1-1.21,4.11,0,.84.08,2.84.78,3.42,1,.87,3.89,1.88,8.55,1.88a26.33,26.33,0,0,0,12.41-2.93C416.49,797.83,415.46,795.62,414.46,794.61Zm-8.3-2c-5.1,0-8.31,1.17-9.59,2.27-.33.28-1.21,1-1.21,4.11,0,.84.08,2.84.78,3.42,1,.87,3.89,1.88,8.55,1.88a26.33,26.33,0,0,0,12.41-2.93c-.61-3.55-1.64-5.76-2.64-6.77C413.22,793.36,410.2,792.63,406.16,792.63Zm8.3,2c-1.24-1.25-4.26-2-8.3-2-5.1,0-8.31,1.17-9.59,2.27-.33.28-1.21,1-1.21,4.11,0,.84.08,2.84.78,3.42,1,.87,3.89,1.88,8.55,1.88a26.33,26.33,0,0,0,12.41-2.93C416.49,797.83,415.46,795.62,414.46,794.61Zm0,0c-1.24-1.25-4.26-2-8.3-2-5.1,0-8.31,1.17-9.59,2.27-.33.28-1.21,1-1.21,4.11,0,.84.08,2.84.78,3.42,1,.87,3.89,1.88,8.55,1.88a26.33,26.33,0,0,0,12.41-2.93C416.49,797.83,415.46,795.62,414.46,794.61Zm0,0c-1.24-1.25-4.26-2-8.3-2-5.1,0-8.31,1.17-9.59,2.27-.33.28-1.21,1-1.21,4.11,0,.84.08,2.84.78,3.42,1,.87,3.89,1.88,8.55,1.88a26.33,26.33,0,0,0,12.41-2.93C416.49,797.83,415.46,795.62,414.46,794.61Zm0,0c-1.24-1.25-4.26-2-8.3-2-5.1,0-8.31,1.17-9.59,2.27-.33.28-1.21,1-1.21,4.11,0,.84.08,2.84.78,3.42,1,.87,3.89,1.88,8.55,1.88a26.33,26.33,0,0,0,12.41-2.93C416.49,797.83,415.46,795.62,414.46,794.61Zm0,0c-1.24-1.25-4.26-2-8.3-2-5.1,0-8.31,1.17-9.59,2.27-.33.28-1.21,1-1.21,4.11,0,.84.08,2.84.78,3.42,1,.87,3.89,1.88,8.55,1.88a26.33,26.33,0,0,0,12.41-2.93C416.49,797.83,415.46,795.62,414.46,794.61Zm0,0c-1.24-1.25-4.26-2-8.3-2-5.1,0-8.31,1.17-9.59,2.27-.33.28-1.21,1-1.21,4.11,0,.84.08,2.84.78,3.42,1,.87,3.89,1.88,8.55,1.88a26.33,26.33,0,0,0,12.41-2.93C416.49,797.83,415.46,795.62,414.46,794.61Zm0,0c-1.24-1.25-4.26-2-8.3-2-5.1,0-8.31,1.17-9.59,2.27-.33.28-1.21,1-1.21,4.11,0,.84.08,2.84.78,3.42,1,.87,3.89,1.88,8.55,1.88a26.33,26.33,0,0,0,12.41-2.93C416.49,797.83,415.46,795.62,414.46,794.61Zm0,0c-1.24-1.25-4.26-2-8.3-2-5.1,0-8.31,1.17-9.59,2.27-.33.28-1.21,1-1.21,4.11,0,.84.08,2.84.78,3.42,1,.87,3.89,1.88,8.55,1.88a26.33,26.33,0,0,0,12.41-2.93C416.49,797.83,415.46,795.62,414.46,794.61Zm0,0c-1.24-1.25-4.26-2-8.3-2-5.1,0-8.31,1.17-9.59,2.27-.33.28-1.21,1-1.21,4.11,0,.84.08,2.84.78,3.42,1,.87,3.89,1.88,8.55,1.88a26.33,26.33,0,0,0,12.41-2.93C416.49,797.83,415.46,795.62,414.46,794.61Zm0,0c-1.24-1.25-4.26-2-8.3-2-5.1,0-8.31,1.17-9.59,2.27-.33.28-1.21,1-1.21,4.11,0,.84.08,2.84.78,3.42,1,.87,3.89,1.88,8.55,1.88a26.33,26.33,0,0,0,12.41-2.93C416.49,797.83,415.46,795.62,414.46,794.61Zm0,0c-1.24-1.25-4.26-2-8.3-2-5.1,0-8.31,1.17-9.59,2.27-.33.28-1.21,1-1.21,4.11,0,.84.08,2.84.78,3.42,1,.87,3.89,1.88,8.55,1.88a26.33,26.33,0,0,0,12.41-2.93C416.49,797.83,415.46,795.62,414.46,794.61Zm0,0c-1.24-1.25-4.26-2-8.3-2-5.1,0-8.31,1.17-9.59,2.27-.33.28-1.21,1-1.21,4.11,0,.84.08,2.84.78,3.42,1,.87,3.89,1.88,8.55,1.88a26.33,26.33,0,0,0,12.41-2.93C416.49,797.83,415.46,795.62,414.46,794.61Zm208.89,0c-1.24-1.25-4.26-2-8.31-2-5.1,0-8.29,1.17-9.59,2.27-.33.28-1.2,1-1.2,4.11,0,.84.08,2.84.77,3.42,1,.87,3.89,1.88,8.55,1.88A26.43,26.43,0,0,0,626,801.38C625.37,797.83,624.34,795.62,623.35,794.61Zm0,0c-1.24-1.25-4.26-2-8.31-2-5.1,0-8.29,1.17-9.59,2.27-.33.28-1.2,1-1.2,4.11,0,.84.08,2.84.77,3.42,1,.87,3.89,1.88,8.55,1.88A26.43,26.43,0,0,0,626,801.38C625.37,797.83,624.34,795.62,623.35,794.61Zm-208.89,0c-1.24-1.25-4.26-2-8.3-2-5.1,0-8.31,1.17-9.59,2.27-.33.28-1.21,1-1.21,4.11,0,.84.08,2.84.78,3.42,1,.87,3.89,1.88,8.55,1.88a26.33,26.33,0,0,0,12.41-2.93C416.49,797.83,415.46,795.62,414.46,794.61Zm0,0c-1.24-1.25-4.26-2-8.3-2-5.1,0-8.31,1.17-9.59,2.27-.33.28-1.21,1-1.21,4.11,0,.84.08,2.84.78,3.42,1,.87,3.89,1.88,8.55,1.88a26.33,26.33,0,0,0,12.41-2.93C416.49,797.83,415.46,795.62,414.46,794.61Zm0,0c-1.24-1.25-4.26-2-8.3-2-5.1,0-8.31,1.17-9.59,2.27-.33.28-1.21,1-1.21,4.11,0,.84.08,2.84.78,3.42,1,.87,3.89,1.88,8.55,1.88a26.33,26.33,0,0,0,12.41-2.93C416.49,797.83,415.46,795.62,414.46,794.61Zm0,0c-1.24-1.25-4.26-2-8.3-2-5.1,0-8.31,1.17-9.59,2.27-.33.28-1.21,1-1.21,4.11,0,.84.08,2.84.78,3.42,1,.87,3.89,1.88,8.55,1.88a26.33,26.33,0,0,0,12.41-2.93C416.49,797.83,415.46,795.62,414.46,794.61Zm0,0c-1.24-1.25-4.26-2-8.3-2-5.1,0-8.31,1.17-9.59,2.27-.33.28-1.21,1-1.21,4.11,0,.84.08,2.84.78,3.42,1,.87,3.89,1.88,8.55,1.88a26.33,26.33,0,0,0,12.41-2.93C416.49,797.83,415.46,795.62,414.46,794.61Zm0,0c-1.24-1.25-4.26-2-8.3-2-5.1,0-8.31,1.17-9.59,2.27-.33.28-1.21,1-1.21,4.11,0,.84.08,2.84.78,3.42,1,.87,3.89,1.88,8.55,1.88a26.33,26.33,0,0,0,12.41-2.93C416.49,797.83,415.46,795.62,414.46,794.61Zm0,0c-1.24-1.25-4.26-2-8.3-2-5.1,0-8.31,1.17-9.59,2.27-.33.28-1.21,1-1.21,4.11,0,.84.08,2.84.78,3.42,1,.87,3.89,1.88,8.55,1.88a26.33,26.33,0,0,0,12.41-2.93C416.49,797.83,415.46,795.62,414.46,794.61Zm0,0c-1.24-1.25-4.26-2-8.3-2-5.1,0-8.31,1.17-9.59,2.27-.33.28-1.21,1-1.21,4.11,0,.84.08,2.84.78,3.42,1,.87,3.89,1.88,8.55,1.88a26.33,26.33,0,0,0,12.41-2.93C416.49,797.83,415.46,795.62,414.46,794.61Zm0,0c-1.24-1.25-4.26-2-8.3-2-5.1,0-8.31,1.17-9.59,2.27-.33.28-1.21,1-1.21,4.11,0,.84.08,2.84.78,3.42,1,.87,3.89,1.88,8.55,1.88a26.33,26.33,0,0,0,12.41-2.93C416.49,797.83,415.46,795.62,414.46,794.61Zm0,0c-1.24-1.25-4.26-2-8.3-2-5.1,0-8.31,1.17-9.59,2.27-.33.28-1.21,1-1.21,4.11,0,.84.08,2.84.78,3.42,1,.87,3.89,1.88,8.55,1.88a26.33,26.33,0,0,0,12.41-2.93C416.49,797.83,415.46,795.62,414.46,794.61Zm0,0c-1.24-1.25-4.26-2-8.3-2-5.1,0-8.31,1.17-9.59,2.27-.33.28-1.21,1-1.21,4.11,0,.84.08,2.84.78,3.42,1,.87,3.89,1.88,8.55,1.88a26.33,26.33,0,0,0,12.41-2.93C416.49,797.83,415.46,795.62,414.46,794.61Zm0,0c-1.24-1.25-4.26-2-8.3-2-5.1,0-8.31,1.17-9.59,2.27-.33.28-1.21,1-1.21,4.11,0,.84.08,2.84.78,3.42,1,.87,3.89,1.88,8.55,1.88a26.33,26.33,0,0,0,12.41-2.93C416.49,797.83,415.46,795.62,414.46,794.61Zm-8.3-2c-5.1,0-8.31,1.17-9.59,2.27-.33.28-1.21,1-1.21,4.11,0,.84.08,2.84.78,3.42,1,.87,3.89,1.88,8.55,1.88a26.33,26.33,0,0,0,12.41-2.93c-.61-3.55-1.64-5.76-2.64-6.77C413.22,793.36,410.2,792.63,406.16,792.63Zm8.3,2c-1.24-1.25-4.26-2-8.3-2-5.1,0-8.31,1.17-9.59,2.27-.33.28-1.21,1-1.21,4.11,0,.84.08,2.84.78,3.42,1,.87,3.89,1.88,8.55,1.88a26.33,26.33,0,0,0,12.41-2.93C416.49,797.83,415.46,795.62,414.46,794.61Zm0,0c-1.24-1.25-4.26-2-8.3-2-5.1,0-8.31,1.17-9.59,2.27-.33.28-1.21,1-1.21,4.11,0,.84.08,2.84.78,3.42,1,.87,3.89,1.88,8.55,1.88a26.33,26.33,0,0,0,12.41-2.93C416.49,797.83,415.46,795.62,414.46,794.61Zm0,0c-1.24-1.25-4.26-2-8.3-2-5.1,0-8.31,1.17-9.59,2.27-.33.28-1.21,1-1.21,4.11,0,.84.08,2.84.78,3.42,1,.87,3.89,1.88,8.55,1.88a26.33,26.33,0,0,0,12.41-2.93C416.49,797.83,415.46,795.62,414.46,794.61Zm0,0c-1.24-1.25-4.26-2-8.3-2-5.1,0-8.31,1.17-9.59,2.27-.33.28-1.21,1-1.21,4.11,0,.84.08,2.84.78,3.42,1,.87,3.89,1.88,8.55,1.88a26.33,26.33,0,0,0,12.41-2.93C416.49,797.83,415.46,795.62,414.46,794.61Zm0,0c-1.24-1.25-4.26-2-8.3-2-5.1,0-8.31,1.17-9.59,2.27-.33.28-1.21,1-1.21,4.11,0,.84.08,2.84.78,3.42,1,.87,3.89,1.88,8.55,1.88a26.33,26.33,0,0,0,12.41-2.93C416.49,797.83,415.46,795.62,414.46,794.61Zm0,0c-1.24-1.25-4.26-2-8.3-2-5.1,0-8.31,1.17-9.59,2.27-.33.28-1.21,1-1.21,4.11,0,.84.08,2.84.78,3.42,1,.87,3.89,1.88,8.55,1.88a26.33,26.33,0,0,0,12.41-2.93C416.49,797.83,415.46,795.62,414.46,794.61Zm0,0c-1.24-1.25-4.26-2-8.3-2-5.1,0-8.31,1.17-9.59,2.27-.33.28-1.21,1-1.21,4.11,0,.84.08,2.84.78,3.42,1,.87,3.89,1.88,8.55,1.88a26.33,26.33,0,0,0,12.41-2.93C416.49,797.83,415.46,795.62,414.46,794.61Zm0,0c-1.24-1.25-4.26-2-8.3-2-5.1,0-8.31,1.17-9.59,2.27-.33.28-1.21,1-1.21,4.11,0,.84.08,2.84.78,3.42,1,.87,3.89,1.88,8.55,1.88a26.33,26.33,0,0,0,12.41-2.93C416.49,797.83,415.46,795.62,414.46,794.61Zm0,0c-1.24-1.25-4.26-2-8.3-2-5.1,0-8.31,1.17-9.59,2.27-.33.28-1.21,1-1.21,4.11,0,.84.08,2.84.78,3.42,1,.87,3.89,1.88,8.55,1.88a26.33,26.33,0,0,0,12.41-2.93C416.49,797.83,415.46,795.62,414.46,794.61Zm0,0c-1.24-1.25-4.26-2-8.3-2-5.1,0-8.31,1.17-9.59,2.27-.33.28-1.21,1-1.21,4.11,0,.84.08,2.84.78,3.42,1,.87,3.89,1.88,8.55,1.88a26.33,26.33,0,0,0,12.41-2.93C416.49,797.83,415.46,795.62,414.46,794.61Zm208.89,0c-1.24-1.25-4.26-2-8.31-2-5.1,0-8.29,1.17-9.59,2.27-.33.28-1.2,1-1.2,4.11,0,.84.08,2.84.77,3.42,1,.87,3.89,1.88,8.55,1.88A26.43,26.43,0,0,0,626,801.38C625.37,797.83,624.34,795.62,623.35,794.61Zm0,0c-1.24-1.25-4.26-2-8.31-2-5.1,0-8.29,1.17-9.59,2.27-.33.28-1.2,1-1.2,4.11,0,.84.08,2.84.77,3.42,1,.87,3.89,1.88,8.55,1.88A26.43,26.43,0,0,0,626,801.38C625.37,797.83,624.34,795.62,623.35,794.61Zm0,0c-1.24-1.25-4.26-2-8.31-2-5.1,0-8.29,1.17-9.59,2.27-.33.28-1.2,1-1.2,4.11,0,.84.08,2.84.77,3.42,1,.87,3.89,1.88,8.55,1.88A26.43,26.43,0,0,0,626,801.38C625.37,797.83,624.34,795.62,623.35,794.61Zm0,0c-1.24-1.25-4.26-2-8.31-2-5.1,0-8.29,1.17-9.59,2.27-.33.28-1.2,1-1.2,4.11,0,.84.08,2.84.77,3.42,1,.87,3.89,1.88,8.55,1.88A26.43,26.43,0,0,0,626,801.38C625.37,797.83,624.34,795.62,623.35,794.61Zm0,0c-1.24-1.25-4.26-2-8.31-2-5.1,0-8.29,1.17-9.59,2.27-.33.28-1.2,1-1.2,4.11,0,.84.08,2.84.77,3.42,1,.87,3.89,1.88,8.55,1.88A26.43,26.43,0,0,0,626,801.38C625.37,797.83,624.34,795.62,623.35,794.61Zm0,0c-1.24-1.25-4.26-2-8.31-2-5.1,0-8.29,1.17-9.59,2.27-.33.28-1.2,1-1.2,4.11,0,.84.08,2.84.77,3.42,1,.87,3.89,1.88,8.55,1.88A26.43,26.43,0,0,0,626,801.38C625.37,797.83,624.34,795.62,623.35,794.61Zm0,0c-1.24-1.25-4.26-2-8.31-2-5.1,0-8.29,1.17-9.59,2.27-.33.28-1.2,1-1.2,4.11,0,.84.08,2.84.77,3.42,1,.87,3.89,1.88,8.55,1.88A26.43,26.43,0,0,0,626,801.38C625.37,797.83,624.34,795.62,623.35,794.61Zm0,0c-1.24-1.25-4.26-2-8.31-2-5.1,0-8.29,1.17-9.59,2.27-.33.28-1.2,1-1.2,4.11,0,.84.08,2.84.77,3.42,1,.87,3.89,1.88,8.55,1.88A26.43,26.43,0,0,0,626,801.38C625.37,797.83,624.34,795.62,623.35,794.61Zm0,0c-1.24-1.25-4.26-2-8.31-2-5.1,0-8.29,1.17-9.59,2.27-.33.28-1.2,1-1.2,4.11,0,.84.08,2.84.77,3.42,1,.87,3.89,1.88,8.55,1.88A26.43,26.43,0,0,0,626,801.38C625.37,797.83,624.34,795.62,623.35,794.61Zm0,0c-1.24-1.25-4.26-2-8.31-2-5.1,0-8.29,1.17-9.59,2.27-.33.28-1.2,1-1.2,4.11,0,.84.08,2.84.77,3.42,1,.87,3.89,1.88,8.55,1.88A26.43,26.43,0,0,0,626,801.38C625.37,797.83,624.34,795.62,623.35,794.61Zm0,0c-1.24-1.25-4.26-2-8.31-2-5.1,0-8.29,1.17-9.59,2.27-.33.28-1.2,1-1.2,4.11,0,.84.08,2.84.77,3.42,1,.87,3.89,1.88,8.55,1.88A26.43,26.43,0,0,0,626,801.38C625.37,797.83,624.34,795.62,623.35,794.61Zm0,0c-1.24-1.25-4.26-2-8.31-2-5.1,0-8.29,1.17-9.59,2.27-.33.28-1.2,1-1.2,4.11,0,.84.08,2.84.77,3.42,1,.87,3.89,1.88,8.55,1.88A26.43,26.43,0,0,0,626,801.38C625.37,797.83,624.34,795.62,623.35,794.61Zm-8.31-2c-5.1,0-8.29,1.17-9.59,2.27-.33.28-1.2,1-1.2,4.11,0,.84.08,2.84.77,3.42,1,.87,3.89,1.88,8.55,1.88A26.43,26.43,0,0,0,626,801.38c-.63-3.55-1.66-5.76-2.65-6.77C622.11,793.36,619.09,792.63,615,792.63Zm8.31,2c-1.24-1.25-4.26-2-8.31-2-5.1,0-8.29,1.17-9.59,2.27-.33.28-1.2,1-1.2,4.11,0,.84.08,2.84.77,3.42,1,.87,3.89,1.88,8.55,1.88A26.43,26.43,0,0,0,626,801.38C625.37,797.83,624.34,795.62,623.35,794.61Zm0,0c-1.24-1.25-4.26-2-8.31-2-5.1,0-8.29,1.17-9.59,2.27-.33.28-1.2,1-1.2,4.11,0,.84.08,2.84.77,3.42,1,.87,3.89,1.88,8.55,1.88A26.43,26.43,0,0,0,626,801.38C625.37,797.83,624.34,795.62,623.35,794.61Zm0,0c-1.24-1.25-4.26-2-8.31-2-5.1,0-8.29,1.17-9.59,2.27-.33.28-1.2,1-1.2,4.11,0,.84.08,2.84.77,3.42,1,.87,3.89,1.88,8.55,1.88A26.43,26.43,0,0,0,626,801.38C625.37,797.83,624.34,795.62,623.35,794.61Zm0,0c-1.24-1.25-4.26-2-8.31-2-5.1,0-8.29,1.17-9.59,2.27-.33.28-1.2,1-1.2,4.11,0,.84.08,2.84.77,3.42,1,.87,3.89,1.88,8.55,1.88A26.43,26.43,0,0,0,626,801.38C625.37,797.83,624.34,795.62,623.35,794.61Zm0,0c-1.24-1.25-4.26-2-8.31-2-5.1,0-8.29,1.17-9.59,2.27-.33.28-1.2,1-1.2,4.11,0,.84.08,2.84.77,3.42,1,.87,3.89,1.88,8.55,1.88A26.43,26.43,0,0,0,626,801.38C625.37,797.83,624.34,795.62,623.35,794.61Zm0,0c-1.24-1.25-4.26-2-8.31-2-5.1,0-8.29,1.17-9.59,2.27-.33.28-1.2,1-1.2,4.11,0,.84.08,2.84.77,3.42,1,.87,3.89,1.88,8.55,1.88A26.43,26.43,0,0,0,626,801.38C625.37,797.83,624.34,795.62,623.35,794.61ZM514.61,964.09a22.79,22.79,0,0,1-9.56-27.56l7.81-20.71,11.28-29.94a22.74,22.74,0,0,1,5.29-8.15c-2-1.78-4-3.65-5.82-5.61-.71-.76-1.39-1.51-2.08-2.3a166.37,166.37,0,0,1-14.63,46.69A126.38,126.38,0,0,1,491.2,941c-21.17,25.69-51.63,40.67-88.71,43.8A457.06,457.06,0,0,0,554,980.26,144,144,0,0,1,514.61,964.09ZM623.35,794.61c-1.24-1.25-4.26-2-8.31-2-5.1,0-8.29,1.17-9.59,2.27-.33.28-1.2,1-1.2,4.11,0,.84.08,2.84.77,3.42,1,.87,3.89,1.88,8.55,1.88A26.43,26.43,0,0,0,626,801.38C625.37,797.83,624.34,795.62,623.35,794.61Zm0,0c-1.24-1.25-4.26-2-8.31-2-5.1,0-8.29,1.17-9.59,2.27-.33.28-1.2,1-1.2,4.11,0,.84.08,2.84.77,3.42,1,.87,3.89,1.88,8.55,1.88A26.43,26.43,0,0,0,626,801.38C625.37,797.83,624.34,795.62,623.35,794.61Zm0,0c-1.24-1.25-4.26-2-8.31-2-5.1,0-8.29,1.17-9.59,2.27-.33.28-1.2,1-1.2,4.11,0,.84.08,2.84.77,3.42,1,.87,3.89,1.88,8.55,1.88A26.43,26.43,0,0,0,626,801.38C625.37,797.83,624.34,795.62,623.35,794.61Zm0,0c-1.24-1.25-4.26-2-8.31-2-5.1,0-8.29,1.17-9.59,2.27-.33.28-1.2,1-1.2,4.11,0,.84.08,2.84.77,3.42,1,.87,3.89,1.88,8.55,1.88A26.43,26.43,0,0,0,626,801.38C625.37,797.83,624.34,795.62,623.35,794.61Zm-208.89,0c-1.24-1.25-4.26-2-8.3-2-5.1,0-8.31,1.17-9.59,2.27-.33.28-1.21,1-1.21,4.11,0,.84.08,2.84.78,3.42,1,.87,3.89,1.88,8.55,1.88a26.33,26.33,0,0,0,12.41-2.93C416.49,797.83,415.46,795.62,414.46,794.61Zm0,0c-1.24-1.25-4.26-2-8.3-2-5.1,0-8.31,1.17-9.59,2.27-.33.28-1.21,1-1.21,4.11,0,.84.08,2.84.78,3.42,1,.87,3.89,1.88,8.55,1.88a26.33,26.33,0,0,0,12.41-2.93C416.49,797.83,415.46,795.62,414.46,794.61Zm0,0c-1.24-1.25-4.26-2-8.3-2-5.1,0-8.31,1.17-9.59,2.27-.33.28-1.21,1-1.21,4.11,0,.84.08,2.84.78,3.42,1,.87,3.89,1.88,8.55,1.88a26.33,26.33,0,0,0,12.41-2.93C416.49,797.83,415.46,795.62,414.46,794.61Zm0,0c-1.24-1.25-4.26-2-8.3-2-5.1,0-8.31,1.17-9.59,2.27-.33.28-1.21,1-1.21,4.11,0,.84.08,2.84.78,3.42,1,.87,3.89,1.88,8.55,1.88a26.33,26.33,0,0,0,12.41-2.93C416.49,797.83,415.46,795.62,414.46,794.61Zm0,0c-1.24-1.25-4.26-2-8.3-2-5.1,0-8.31,1.17-9.59,2.27-.33.28-1.21,1-1.21,4.11,0,.84.08,2.84.78,3.42,1,.87,3.89,1.88,8.55,1.88a26.33,26.33,0,0,0,12.41-2.93C416.49,797.83,415.46,795.62,414.46,794.61Zm0,0c-1.24-1.25-4.26-2-8.3-2-5.1,0-8.31,1.17-9.59,2.27-.33.28-1.21,1-1.21,4.11,0,.84.08,2.84.78,3.42,1,.87,3.89,1.88,8.55,1.88a26.33,26.33,0,0,0,12.41-2.93C416.49,797.83,415.46,795.62,414.46,794.61Zm0,0c-1.24-1.25-4.26-2-8.3-2-5.1,0-8.31,1.17-9.59,2.27-.33.28-1.21,1-1.21,4.11,0,.84.08,2.84.78,3.42,1,.87,3.89,1.88,8.55,1.88a26.33,26.33,0,0,0,12.41-2.93C416.49,797.83,415.46,795.62,414.46,794.61Zm0,0c-1.24-1.25-4.26-2-8.3-2-5.1,0-8.31,1.17-9.59,2.27-.33.28-1.21,1-1.21,4.11,0,.84.08,2.84.78,3.42,1,.87,3.89,1.88,8.55,1.88a26.33,26.33,0,0,0,12.41-2.93C416.49,797.83,415.46,795.62,414.46,794.61Zm0,0c-1.24-1.25-4.26-2-8.3-2-5.1,0-8.31,1.17-9.59,2.27-.33.28-1.21,1-1.21,4.11,0,.84.08,2.84.78,3.42,1,.87,3.89,1.88,8.55,1.88a26.33,26.33,0,0,0,12.41-2.93C416.49,797.83,415.46,795.62,414.46,794.61Zm0,0c-1.24-1.25-4.26-2-8.3-2-5.1,0-8.31,1.17-9.59,2.27-.33.28-1.21,1-1.21,4.11,0,.84.08,2.84.78,3.42,1,.87,3.89,1.88,8.55,1.88a26.33,26.33,0,0,0,12.41-2.93C416.49,797.83,415.46,795.62,414.46,794.61Zm-8.3-2c-5.1,0-8.31,1.17-9.59,2.27-.33.28-1.21,1-1.21,4.11,0,.84.08,2.84.78,3.42,1,.87,3.89,1.88,8.55,1.88a26.33,26.33,0,0,0,12.41-2.93c-.61-3.55-1.64-5.76-2.64-6.77C413.22,793.36,410.2,792.63,406.16,792.63Zm8.3,2c-1.24-1.25-4.26-2-8.3-2-5.1,0-8.31,1.17-9.59,2.27-.33.28-1.21,1-1.21,4.11,0,.84.08,2.84.78,3.42,1,.87,3.89,1.88,8.55,1.88a26.33,26.33,0,0,0,12.41-2.93C416.49,797.83,415.46,795.62,414.46,794.61Zm0,0c-1.24-1.25-4.26-2-8.3-2-5.1,0-8.31,1.17-9.59,2.27-.33.28-1.21,1-1.21,4.11,0,.84.08,2.84.78,3.42,1,.87,3.89,1.88,8.55,1.88a26.33,26.33,0,0,0,12.41-2.93C416.49,797.83,415.46,795.62,414.46,794.61Zm0,0c-1.24-1.25-4.26-2-8.3-2-5.1,0-8.31,1.17-9.59,2.27-.33.28-1.21,1-1.21,4.11,0,.84.08,2.84.78,3.42,1,.87,3.89,1.88,8.55,1.88a26.33,26.33,0,0,0,12.41-2.93C416.49,797.83,415.46,795.62,414.46,794.61Zm0,0c-1.24-1.25-4.26-2-8.3-2-5.1,0-8.31,1.17-9.59,2.27-.33.28-1.21,1-1.21,4.11,0,.84.08,2.84.78,3.42,1,.87,3.89,1.88,8.55,1.88a26.33,26.33,0,0,0,12.41-2.93C416.49,797.83,415.46,795.62,414.46,794.61Zm0,0c-1.24-1.25-4.26-2-8.3-2-5.1,0-8.31,1.17-9.59,2.27-.33.28-1.21,1-1.21,4.11,0,.84.08,2.84.78,3.42,1,.87,3.89,1.88,8.55,1.88a26.33,26.33,0,0,0,12.41-2.93C416.49,797.83,415.46,795.62,414.46,794.61Zm0,0c-1.24-1.25-4.26-2-8.3-2-5.1,0-8.31,1.17-9.59,2.27-.33.28-1.21,1-1.21,4.11,0,.84.08,2.84.78,3.42,1,.87,3.89,1.88,8.55,1.88a26.33,26.33,0,0,0,12.41-2.93C416.49,797.83,415.46,795.62,414.46,794.61Zm0,0c-1.24-1.25-4.26-2-8.3-2-5.1,0-8.31,1.17-9.59,2.27-.33.28-1.21,1-1.21,4.11,0,.84.08,2.84.78,3.42,1,.87,3.89,1.88,8.55,1.88a26.33,26.33,0,0,0,12.41-2.93C416.49,797.83,415.46,795.62,414.46,794.61Zm0,0c-1.24-1.25-4.26-2-8.3-2-5.1,0-8.31,1.17-9.59,2.27-.33.28-1.21,1-1.21,4.11,0,.84.08,2.84.78,3.42,1,.87,3.89,1.88,8.55,1.88a26.33,26.33,0,0,0,12.41-2.93C416.49,797.83,415.46,795.62,414.46,794.61Zm208.89,0c-1.24-1.25-4.26-2-8.31-2-5.1,0-8.29,1.17-9.59,2.27-.33.28-1.2,1-1.2,4.11,0,.84.08,2.84.77,3.42,1,.87,3.89,1.88,8.55,1.88A26.43,26.43,0,0,0,626,801.38C625.37,797.83,624.34,795.62,623.35,794.61Zm0,0c-1.24-1.25-4.26-2-8.31-2-5.1,0-8.29,1.17-9.59,2.27-.33.28-1.2,1-1.2,4.11,0,.84.08,2.84.77,3.42,1,.87,3.89,1.88,8.55,1.88A26.43,26.43,0,0,0,626,801.38C625.37,797.83,624.34,795.62,623.35,794.61Zm0,0c-1.24-1.25-4.26-2-8.31-2-5.1,0-8.29,1.17-9.59,2.27-.33.28-1.2,1-1.2,4.11,0,.84.08,2.84.77,3.42,1,.87,3.89,1.88,8.55,1.88A26.43,26.43,0,0,0,626,801.38C625.37,797.83,624.34,795.62,623.35,794.61Zm0,0c-1.24-1.25-4.26-2-8.31-2-5.1,0-8.29,1.17-9.59,2.27-.33.28-1.2,1-1.2,4.11,0,.84.08,2.84.77,3.42,1,.87,3.89,1.88,8.55,1.88A26.43,26.43,0,0,0,626,801.38C625.37,797.83,624.34,795.62,623.35,794.61Zm0,0c-1.24-1.25-4.26-2-8.31-2-5.1,0-8.29,1.17-9.59,2.27-.33.28-1.2,1-1.2,4.11,0,.84.08,2.84.77,3.42,1,.87,3.89,1.88,8.55,1.88A26.43,26.43,0,0,0,626,801.38C625.37,797.83,624.34,795.62,623.35,794.61Zm0,0c-1.24-1.25-4.26-2-8.31-2-5.1,0-8.29,1.17-9.59,2.27-.33.28-1.2,1-1.2,4.11,0,.84.08,2.84.77,3.42,1,.87,3.89,1.88,8.55,1.88A26.43,26.43,0,0,0,626,801.38C625.37,797.83,624.34,795.62,623.35,794.61Zm0,0c-1.24-1.25-4.26-2-8.31-2-5.1,0-8.29,1.17-9.59,2.27-.33.28-1.2,1-1.2,4.11,0,.84.08,2.84.77,3.42,1,.87,3.89,1.88,8.55,1.88A26.43,26.43,0,0,0,626,801.38C625.37,797.83,624.34,795.62,623.35,794.61Zm0,0c-1.24-1.25-4.26-2-8.31-2-5.1,0-8.29,1.17-9.59,2.27-.33.28-1.2,1-1.2,4.11,0,.84.08,2.84.77,3.42,1,.87,3.89,1.88,8.55,1.88A26.43,26.43,0,0,0,626,801.38C625.37,797.83,624.34,795.62,623.35,794.61Zm0,0c-1.24-1.25-4.26-2-8.31-2-5.1,0-8.29,1.17-9.59,2.27-.33.28-1.2,1-1.2,4.11,0,.84.08,2.84.77,3.42,1,.87,3.89,1.88,8.55,1.88A26.43,26.43,0,0,0,626,801.38C625.37,797.83,624.34,795.62,623.35,794.61Zm0,0c-1.24-1.25-4.26-2-8.31-2-5.1,0-8.29,1.17-9.59,2.27-.33.28-1.2,1-1.2,4.11,0,.84.08,2.84.77,3.42,1,.87,3.89,1.88,8.55,1.88A26.43,26.43,0,0,0,626,801.38C625.37,797.83,624.34,795.62,623.35,794.61Zm-8.31-2c-5.1,0-8.29,1.17-9.59,2.27-.33.28-1.2,1-1.2,4.11,0,.84.08,2.84.77,3.42,1,.87,3.89,1.88,8.55,1.88A26.43,26.43,0,0,0,626,801.38c-.63-3.55-1.66-5.76-2.65-6.77C622.11,793.36,619.09,792.63,615,792.63Zm8.31,2c-1.24-1.25-4.26-2-8.31-2-5.1,0-8.29,1.17-9.59,2.27-.33.28-1.2,1-1.2,4.11,0,.84.08,2.84.77,3.42,1,.87,3.89,1.88,8.55,1.88A26.43,26.43,0,0,0,626,801.38C625.37,797.83,624.34,795.62,623.35,794.61Zm0,0c-1.24-1.25-4.26-2-8.31-2-5.1,0-8.29,1.17-9.59,2.27-.33.28-1.2,1-1.2,4.11,0,.84.08,2.84.77,3.42,1,.87,3.89,1.88,8.55,1.88A26.43,26.43,0,0,0,626,801.38C625.37,797.83,624.34,795.62,623.35,794.61Zm0,0c-1.24-1.25-4.26-2-8.31-2-5.1,0-8.29,1.17-9.59,2.27-.33.28-1.2,1-1.2,4.11,0,.84.08,2.84.77,3.42,1,.87,3.89,1.88,8.55,1.88A26.43,26.43,0,0,0,626,801.38C625.37,797.83,624.34,795.62,623.35,794.61Zm0,0c-1.24-1.25-4.26-2-8.31-2-5.1,0-8.29,1.17-9.59,2.27-.33.28-1.2,1-1.2,4.11,0,.84.08,2.84.77,3.42,1,.87,3.89,1.88,8.55,1.88A26.43,26.43,0,0,0,626,801.38C625.37,797.83,624.34,795.62,623.35,794.61Zm0,0c-1.24-1.25-4.26-2-8.31-2-5.1,0-8.29,1.17-9.59,2.27-.33.28-1.2,1-1.2,4.11,0,.84.08,2.84.77,3.42,1,.87,3.89,1.88,8.55,1.88A26.43,26.43,0,0,0,626,801.38C625.37,797.83,624.34,795.62,623.35,794.61Zm0,0c-1.24-1.25-4.26-2-8.31-2-5.1,0-8.29,1.17-9.59,2.27-.33.28-1.2,1-1.2,4.11,0,.84.08,2.84.77,3.42,1,.87,3.89,1.88,8.55,1.88A26.43,26.43,0,0,0,626,801.38C625.37,797.83,624.34,795.62,623.35,794.61Zm0,0c-1.24-1.25-4.26-2-8.31-2-5.1,0-8.29,1.17-9.59,2.27-.33.28-1.2,1-1.2,4.11,0,.84.08,2.84.77,3.42,1,.87,3.89,1.88,8.55,1.88A26.43,26.43,0,0,0,626,801.38C625.37,797.83,624.34,795.62,623.35,794.61Zm0,0c-1.24-1.25-4.26-2-8.31-2-5.1,0-8.29,1.17-9.59,2.27-.33.28-1.2,1-1.2,4.11,0,.84.08,2.84.77,3.42,1,.87,3.89,1.88,8.55,1.88A26.43,26.43,0,0,0,626,801.38C625.37,797.83,624.34,795.62,623.35,794.61Zm-64.84-699V39a28,28,0,0,0-28-28H399.59a28,28,0,0,0-28,28V95.58C167,138.64,13.43,320.09,13.43,537.46c0,190.66,118.16,353.71,285.24,419.94a22.72,22.72,0,0,1-2.51-20.87l18.28-48.48.82-2.17a22.46,22.46,0,0,1,5.28-8.15q-3-2.67-5.81-5.61c-16.94-18-26.27-42.89-26.27-70.16,0-63.24,48-107.41,116.78-107.41,37.58,0,68.42,13.08,89.21,37.84a110.27,110.27,0,0,1,13.83,21c17.93-36.16,56.55-58.86,105.85-58.86,37.57,0,68.42,13.08,89.2,37.84a103.42,103.42,0,0,1,9.46,13.21,78.59,78.59,0,0,1,17.33-27.36c15-15.28,36.22-23.69,59.67-23.69a91.08,91.08,0,0,1,22.62,2.78A76.37,76.37,0,0,1,866.21,745a449.43,449.43,0,0,0,50.41-207.5C916.62,320.09,763,138.64,558.51,95.58Zm174.84,744c-.84,27.09-6,51.36-15.2,71.89a454.05,454.05,0,0,0,63.13-51.67C762.83,858.16,746.18,851.15,733.35,839.59Zm-110-45c-1.24-1.25-4.26-2-8.31-2-5.1,0-8.29,1.17-9.59,2.27-.33.28-1.2,1-1.2,4.11,0,.84.08,2.84.77,3.42,1,.87,3.89,1.88,8.55,1.88A26.43,26.43,0,0,0,626,801.38C625.37,797.83,624.34,795.62,623.35,794.61Zm0,0c-1.24-1.25-4.26-2-8.31-2-5.1,0-8.29,1.17-9.59,2.27-.33.28-1.2,1-1.2,4.11,0,.84.08,2.84.77,3.42,1,.87,3.89,1.88,8.55,1.88A26.43,26.43,0,0,0,626,801.38C625.37,797.83,624.34,795.62,623.35,794.61Zm0,0c-1.24-1.25-4.26-2-8.31-2-5.1,0-8.29,1.17-9.59,2.27-.33.28-1.2,1-1.2,4.11,0,.84.08,2.84.77,3.42,1,.87,3.89,1.88,8.55,1.88A26.43,26.43,0,0,0,626,801.38C625.37,797.83,624.34,795.62,623.35,794.61Zm0,0c-1.24-1.25-4.26-2-8.31-2-5.1,0-8.29,1.17-9.59,2.27-.33.28-1.2,1-1.2,4.11,0,.84.08,2.84.77,3.42,1,.87,3.89,1.88,8.55,1.88A26.43,26.43,0,0,0,626,801.38C625.37,797.83,624.34,795.62,623.35,794.61Zm0,0c-1.24-1.25-4.26-2-8.31-2-5.1,0-8.29,1.17-9.59,2.27-.33.28-1.2,1-1.2,4.11,0,.84.08,2.84.77,3.42,1,.87,3.89,1.88,8.55,1.88A26.43,26.43,0,0,0,626,801.38C625.37,797.83,624.34,795.62,623.35,794.61Zm0,0c-1.24-1.25-4.26-2-8.31-2-5.1,0-8.29,1.17-9.59,2.27-.33.28-1.2,1-1.2,4.11,0,.84.08,2.84.77,3.42,1,.87,3.89,1.88,8.55,1.88A26.43,26.43,0,0,0,626,801.38C625.37,797.83,624.34,795.62,623.35,794.61Zm0,0c-1.24-1.25-4.26-2-8.31-2-5.1,0-8.29,1.17-9.59,2.27-.33.28-1.2,1-1.2,4.11,0,.84.08,2.84.77,3.42,1,.87,3.89,1.88,8.55,1.88A26.43,26.43,0,0,0,626,801.38C625.37,797.83,624.34,795.62,623.35,794.61Zm0,0c-1.24-1.25-4.26-2-8.31-2-5.1,0-8.29,1.17-9.59,2.27-.33.28-1.2,1-1.2,4.11,0,.84.08,2.84.77,3.42,1,.87,3.89,1.88,8.55,1.88A26.43,26.43,0,0,0,626,801.38C625.37,797.83,624.34,795.62,623.35,794.61Zm0,0c-1.24-1.25-4.26-2-8.31-2-5.1,0-8.29,1.17-9.59,2.27-.33.28-1.2,1-1.2,4.11,0,.84.08,2.84.77,3.42,1,.87,3.89,1.88,8.55,1.88A26.43,26.43,0,0,0,626,801.38C625.37,797.83,624.34,795.62,623.35,794.61Zm0,0c-1.24-1.25-4.26-2-8.31-2-5.1,0-8.29,1.17-9.59,2.27-.33.28-1.2,1-1.2,4.11,0,.84.08,2.84.77,3.42,1,.87,3.89,1.88,8.55,1.88A26.43,26.43,0,0,0,626,801.38C625.37,797.83,624.34,795.62,623.35,794.61Zm-8.31-2c-5.1,0-8.29,1.17-9.59,2.27-.33.28-1.2,1-1.2,4.11,0,.84.08,2.84.77,3.42,1,.87,3.89,1.88,8.55,1.88A26.43,26.43,0,0,0,626,801.38c-.63-3.55-1.66-5.76-2.65-6.77C622.11,793.36,619.09,792.63,615,792.63Zm8.31,2c-1.24-1.25-4.26-2-8.31-2-5.1,0-8.29,1.17-9.59,2.27-.33.28-1.2,1-1.2,4.11,0,.84.08,2.84.77,3.42,1,.87,3.89,1.88,8.55,1.88A26.43,26.43,0,0,0,626,801.38C625.37,797.83,624.34,795.62,623.35,794.61Zm0,0c-1.24-1.25-4.26-2-8.31-2-5.1,0-8.29,1.17-9.59,2.27-.33.28-1.2,1-1.2,4.11,0,.84.08,2.84.77,3.42,1,.87,3.89,1.88,8.55,1.88A26.43,26.43,0,0,0,626,801.38C625.37,797.83,624.34,795.62,623.35,794.61Zm0,0c-1.24-1.25-4.26-2-8.31-2-5.1,0-8.29,1.17-9.59,2.27-.33.28-1.2,1-1.2,4.11,0,.84.08,2.84.77,3.42,1,.87,3.89,1.88,8.55,1.88A26.43,26.43,0,0,0,626,801.38C625.37,797.83,624.34,795.62,623.35,794.61Zm0,0c-1.24-1.25-4.26-2-8.31-2-5.1,0-8.29,1.17-9.59,2.27-.33.28-1.2,1-1.2,4.11,0,.84.08,2.84.77,3.42,1,.87,3.89,1.88,8.55,1.88A26.43,26.43,0,0,0,626,801.38C625.37,797.83,624.34,795.62,623.35,794.61Zm0,0c-1.24-1.25-4.26-2-8.31-2-5.1,0-8.29,1.17-9.59,2.27-.33.28-1.2,1-1.2,4.11,0,.84.08,2.84.77,3.42,1,.87,3.89,1.88,8.55,1.88A26.43,26.43,0,0,0,626,801.38C625.37,797.83,624.34,795.62,623.35,794.61Zm0,0c-1.24-1.25-4.26-2-8.31-2-5.1,0-8.29,1.17-9.59,2.27-.33.28-1.2,1-1.2,4.11,0,.84.08,2.84.77,3.42,1,.87,3.89,1.88,8.55,1.88A26.43,26.43,0,0,0,626,801.38C625.37,797.83,624.34,795.62,623.35,794.61Zm0,0c-1.24-1.25-4.26-2-8.31-2-5.1,0-8.29,1.17-9.59,2.27-.33.28-1.2,1-1.2,4.11,0,.84.08,2.84.77,3.42,1,.87,3.89,1.88,8.55,1.88A26.43,26.43,0,0,0,626,801.38C625.37,797.83,624.34,795.62,623.35,794.61Zm0,0c-1.24-1.25-4.26-2-8.31-2-5.1,0-8.29,1.17-9.59,2.27-.33.28-1.2,1-1.2,4.11,0,.84.08,2.84.77,3.42,1,.87,3.89,1.88,8.55,1.88A26.43,26.43,0,0,0,626,801.38C625.37,797.83,624.34,795.62,623.35,794.61Zm0,0c-1.24-1.25-4.26-2-8.31-2-5.1,0-8.29,1.17-9.59,2.27-.33.28-1.2,1-1.2,4.11,0,.84.08,2.84.77,3.42,1,.87,3.89,1.88,8.55,1.88A26.43,26.43,0,0,0,626,801.38C625.37,797.83,624.34,795.62,623.35,794.61Zm0,0c-1.24-1.25-4.26-2-8.31-2-5.1,0-8.29,1.17-9.59,2.27-.33.28-1.2,1-1.2,4.11,0,.84.08,2.84.77,3.42,1,.87,3.89,1.88,8.55,1.88A26.43,26.43,0,0,0,626,801.38C625.37,797.83,624.34,795.62,623.35,794.61Zm-208.89,0c-1.24-1.25-4.26-2-8.3-2-5.1,0-8.31,1.17-9.59,2.27-.33.28-1.21,1-1.21,4.11,0,.84.08,2.84.78,3.42,1,.87,3.89,1.88,8.55,1.88a26.33,26.33,0,0,0,12.41-2.93C416.49,797.83,415.46,795.62,414.46,794.61Zm0,0c-1.24-1.25-4.26-2-8.3-2-5.1,0-8.31,1.17-9.59,2.27-.33.28-1.21,1-1.21,4.11,0,.84.08,2.84.78,3.42,1,.87,3.89,1.88,8.55,1.88a26.33,26.33,0,0,0,12.41-2.93C416.49,797.83,415.46,795.62,414.46,794.61Zm0,0c-1.24-1.25-4.26-2-8.3-2-5.1,0-8.31,1.17-9.59,2.27-.33.28-1.21,1-1.21,4.11,0,.84.08,2.84.78,3.42,1,.87,3.89,1.88,8.55,1.88a26.33,26.33,0,0,0,12.41-2.93C416.49,797.83,415.46,795.62,414.46,794.61Zm0,0c-1.24-1.25-4.26-2-8.3-2-5.1,0-8.31,1.17-9.59,2.27-.33.28-1.21,1-1.21,4.11,0,.84.08,2.84.78,3.42,1,.87,3.89,1.88,8.55,1.88a26.33,26.33,0,0,0,12.41-2.93C416.49,797.83,415.46,795.62,414.46,794.61Zm0,0c-1.24-1.25-4.26-2-8.3-2-5.1,0-8.31,1.17-9.59,2.27-.33.28-1.21,1-1.21,4.11,0,.84.08,2.84.78,3.42,1,.87,3.89,1.88,8.55,1.88a26.33,26.33,0,0,0,12.41-2.93C416.49,797.83,415.46,795.62,414.46,794.61Zm0,0c-1.24-1.25-4.26-2-8.3-2-5.1,0-8.31,1.17-9.59,2.27-.33.28-1.21,1-1.21,4.11,0,.84.08,2.84.78,3.42,1,.87,3.89,1.88,8.55,1.88a26.33,26.33,0,0,0,12.41-2.93C416.49,797.83,415.46,795.62,414.46,794.61Zm0,0c-1.24-1.25-4.26-2-8.3-2-5.1,0-8.31,1.17-9.59,2.27-.33.28-1.21,1-1.21,4.11,0,.84.08,2.84.78,3.42,1,.87,3.89,1.88,8.55,1.88a26.33,26.33,0,0,0,12.41-2.93C416.49,797.83,415.46,795.62,414.46,794.61Zm0,0c-1.24-1.25-4.26-2-8.3-2-5.1,0-8.31,1.17-9.59,2.27-.33.28-1.21,1-1.21,4.11,0,.84.08,2.84.78,3.42,1,.87,3.89,1.88,8.55,1.88a26.33,26.33,0,0,0,12.41-2.93C416.49,797.83,415.46,795.62,414.46,794.61Zm0,0c-1.24-1.25-4.26-2-8.3-2-5.1,0-8.31,1.17-9.59,2.27-.33.28-1.21,1-1.21,4.11,0,.84.08,2.84.78,3.42,1,.87,3.89,1.88,8.55,1.88a26.33,26.33,0,0,0,12.41-2.93C416.49,797.83,415.46,795.62,414.46,794.61Zm0,0c-1.24-1.25-4.26-2-8.3-2-5.1,0-8.31,1.17-9.59,2.27-.33.28-1.21,1-1.21,4.11,0,.84.08,2.84.78,3.42,1,.87,3.89,1.88,8.55,1.88a26.33,26.33,0,0,0,12.41-2.93C416.49,797.83,415.46,795.62,414.46,794.61Zm-8.3-2c-5.1,0-8.31,1.17-9.59,2.27-.33.28-1.21,1-1.21,4.11,0,.84.08,2.84.78,3.42,1,.87,3.89,1.88,8.55,1.88a26.33,26.33,0,0,0,12.41-2.93c-.61-3.55-1.64-5.76-2.64-6.77C413.22,793.36,410.2,792.63,406.16,792.63Zm8.3,2c-1.24-1.25-4.26-2-8.3-2-5.1,0-8.31,1.17-9.59,2.27-.33.28-1.21,1-1.21,4.11,0,.84.08,2.84.78,3.42,1,.87,3.89,1.88,8.55,1.88a26.33,26.33,0,0,0,12.41-2.93C416.49,797.83,415.46,795.62,414.46,794.61Zm0,0c-1.24-1.25-4.26-2-8.3-2-5.1,0-8.31,1.17-9.59,2.27-.33.28-1.21,1-1.21,4.11,0,.84.08,2.84.78,3.42,1,.87,3.89,1.88,8.55,1.88a26.33,26.33,0,0,0,12.41-2.93C416.49,797.83,415.46,795.62,414.46,794.61Zm0,0c-1.24-1.25-4.26-2-8.3-2-5.1,0-8.31,1.17-9.59,2.27-.33.28-1.21,1-1.21,4.11,0,.84.08,2.84.78,3.42,1,.87,3.89,1.88,8.55,1.88a26.33,26.33,0,0,0,12.41-2.93C416.49,797.83,415.46,795.62,414.46,794.61Zm0,0c-1.24-1.25-4.26-2-8.3-2-5.1,0-8.31,1.17-9.59,2.27-.33.28-1.21,1-1.21,4.11,0,.84.08,2.84.78,3.42,1,.87,3.89,1.88,8.55,1.88a26.33,26.33,0,0,0,12.41-2.93C416.49,797.83,415.46,795.62,414.46,794.61Zm0,0c-1.24-1.25-4.26-2-8.3-2-5.1,0-8.31,1.17-9.59,2.27-.33.28-1.21,1-1.21,4.11,0,.84.08,2.84.78,3.42,1,.87,3.89,1.88,8.55,1.88a26.33,26.33,0,0,0,12.41-2.93C416.49,797.83,415.46,795.62,414.46,794.61Zm0,0c-1.24-1.25-4.26-2-8.3-2-5.1,0-8.31,1.17-9.59,2.27-.33.28-1.21,1-1.21,4.11,0,.84.08,2.84.78,3.42,1,.87,3.89,1.88,8.55,1.88a26.33,26.33,0,0,0,12.41-2.93C416.49,797.83,415.46,795.62,414.46,794.61Zm0,0c-1.24-1.25-4.26-2-8.3-2-5.1,0-8.31,1.17-9.59,2.27-.33.28-1.21,1-1.21,4.11,0,.84.08,2.84.78,3.42,1,.87,3.89,1.88,8.55,1.88a26.33,26.33,0,0,0,12.41-2.93C416.49,797.83,415.46,795.62,414.46,794.61Zm0,0c-1.24-1.25-4.26-2-8.3-2-5.1,0-8.31,1.17-9.59,2.27-.33.28-1.21,1-1.21,4.11,0,.84.08,2.84.78,3.42,1,.87,3.89,1.88,8.55,1.88a26.33,26.33,0,0,0,12.41-2.93C416.49,797.83,415.46,795.62,414.46,794.61Zm0,0c-1.24-1.25-4.26-2-8.3-2-5.1,0-8.31,1.17-9.59,2.27-.33.28-1.21,1-1.21,4.11,0,.84.08,2.84.78,3.42,1,.87,3.89,1.88,8.55,1.88a26.33,26.33,0,0,0,12.41-2.93C416.49,797.83,415.46,795.62,414.46,794.61Zm0,0c-1.24-1.25-4.26-2-8.3-2-5.1,0-8.31,1.17-9.59,2.27-.33.28-1.21,1-1.21,4.11,0,.84.08,2.84.78,3.42,1,.87,3.89,1.88,8.55,1.88a26.33,26.33,0,0,0,12.41-2.93C416.49,797.83,415.46,795.62,414.46,794.61Zm208.89,0c-1.24-1.25-4.26-2-8.31-2-5.1,0-8.29,1.17-9.59,2.27-.33.28-1.2,1-1.2,4.11,0,.84.08,2.84.77,3.42,1,.87,3.89,1.88,8.55,1.88A26.43,26.43,0,0,0,626,801.38C625.37,797.83,624.34,795.62,623.35,794.61Zm0,0c-1.24-1.25-4.26-2-8.31-2-5.1,0-8.29,1.17-9.59,2.27-.33.28-1.2,1-1.2,4.11,0,.84.08,2.84.77,3.42,1,.87,3.89,1.88,8.55,1.88A26.43,26.43,0,0,0,626,801.38C625.37,797.83,624.34,795.62,623.35,794.61Zm-208.89,0c-1.24-1.25-4.26-2-8.3-2-5.1,0-8.31,1.17-9.59,2.27-.33.28-1.21,1-1.21,4.11,0,.84.08,2.84.78,3.42,1,.87,3.89,1.88,8.55,1.88a26.33,26.33,0,0,0,12.41-2.93C416.49,797.83,415.46,795.62,414.46,794.61Zm0,0c-1.24-1.25-4.26-2-8.3-2-5.1,0-8.31,1.17-9.59,2.27-.33.28-1.21,1-1.21,4.11,0,.84.08,2.84.78,3.42,1,.87,3.89,1.88,8.55,1.88a26.33,26.33,0,0,0,12.41-2.93C416.49,797.83,415.46,795.62,414.46,794.61Zm0,0c-1.24-1.25-4.26-2-8.3-2-5.1,0-8.31,1.17-9.59,2.27-.33.28-1.21,1-1.21,4.11,0,.84.08,2.84.78,3.42,1,.87,3.89,1.88,8.55,1.88a26.33,26.33,0,0,0,12.41-2.93C416.49,797.83,415.46,795.62,414.46,794.61Zm0,0c-1.24-1.25-4.26-2-8.3-2-5.1,0-8.31,1.17-9.59,2.27-.33.28-1.21,1-1.21,4.11,0,.84.08,2.84.78,3.42,1,.87,3.89,1.88,8.55,1.88a26.33,26.33,0,0,0,12.41-2.93C416.49,797.83,415.46,795.62,414.46,794.61Zm0,0c-1.24-1.25-4.26-2-8.3-2-5.1,0-8.31,1.17-9.59,2.27-.33.28-1.21,1-1.21,4.11,0,.84.08,2.84.78,3.42,1,.87,3.89,1.88,8.55,1.88a26.33,26.33,0,0,0,12.41-2.93C416.49,797.83,415.46,795.62,414.46,794.61Zm0,0c-1.24-1.25-4.26-2-8.3-2-5.1,0-8.31,1.17-9.59,2.27-.33.28-1.21,1-1.21,4.11,0,.84.08,2.84.78,3.42,1,.87,3.89,1.88,8.55,1.88a26.33,26.33,0,0,0,12.41-2.93C416.49,797.83,415.46,795.62,414.46,794.61Zm0,0c-1.24-1.25-4.26-2-8.3-2-5.1,0-8.31,1.17-9.59,2.27-.33.28-1.21,1-1.21,4.11,0,.84.08,2.84.78,3.42,1,.87,3.89,1.88,8.55,1.88a26.33,26.33,0,0,0,12.41-2.93C416.49,797.83,415.46,795.62,414.46,794.61Zm0,0c-1.24-1.25-4.26-2-8.3-2-5.1,0-8.31,1.17-9.59,2.27-.33.28-1.21,1-1.21,4.11,0,.84.08,2.84.78,3.42,1,.87,3.89,1.88,8.55,1.88a26.33,26.33,0,0,0,12.41-2.93C416.49,797.83,415.46,795.62,414.46,794.61Zm0,0c-1.24-1.25-4.26-2-8.3-2-5.1,0-8.31,1.17-9.59,2.27-.33.28-1.21,1-1.21,4.11,0,.84.08,2.84.78,3.42,1,.87,3.89,1.88,8.55,1.88a26.33,26.33,0,0,0,12.41-2.93C416.49,797.83,415.46,795.62,414.46,794.61Zm0,0c-1.24-1.25-4.26-2-8.3-2-5.1,0-8.31,1.17-9.59,2.27-.33.28-1.21,1-1.21,4.11,0,.84.08,2.84.78,3.42,1,.87,3.89,1.88,8.55,1.88a26.33,26.33,0,0,0,12.41-2.93C416.49,797.83,415.46,795.62,414.46,794.61Zm0,0c-1.24-1.25-4.26-2-8.3-2-5.1,0-8.31,1.17-9.59,2.27-.33.28-1.21,1-1.21,4.11,0,.84.08,2.84.78,3.42,1,.87,3.89,1.88,8.55,1.88a26.33,26.33,0,0,0,12.41-2.93C416.49,797.83,415.46,795.62,414.46,794.61Zm0,0c-1.24-1.25-4.26-2-8.3-2-5.1,0-8.31,1.17-9.59,2.27-.33.28-1.21,1-1.21,4.11,0,.84.08,2.84.78,3.42,1,.87,3.89,1.88,8.55,1.88a26.33,26.33,0,0,0,12.41-2.93C416.49,797.83,415.46,795.62,414.46,794.61Zm-8.3-2c-5.1,0-8.31,1.17-9.59,2.27-.33.28-1.21,1-1.21,4.11,0,.84.08,2.84.78,3.42,1,.87,3.89,1.88,8.55,1.88a26.33,26.33,0,0,0,12.41-2.93c-.61-3.55-1.64-5.76-2.64-6.77C413.22,793.36,410.2,792.63,406.16,792.63Zm8.3,2c-1.24-1.25-4.26-2-8.3-2-5.1,0-8.31,1.17-9.59,2.27-.33.28-1.21,1-1.21,4.11,0,.84.08,2.84.78,3.42,1,.87,3.89,1.88,8.55,1.88a26.33,26.33,0,0,0,12.41-2.93C416.49,797.83,415.46,795.62,414.46,794.61Zm0,0c-1.24-1.25-4.26-2-8.3-2-5.1,0-8.31,1.17-9.59,2.27-.33.28-1.21,1-1.21,4.11,0,.84.08,2.84.78,3.42,1,.87,3.89,1.88,8.55,1.88a26.33,26.33,0,0,0,12.41-2.93C416.49,797.83,415.46,795.62,414.46,794.61Zm0,0c-1.24-1.25-4.26-2-8.3-2-5.1,0-8.31,1.17-9.59,2.27-.33.28-1.21,1-1.21,4.11,0,.84.08,2.84.78,3.42,1,.87,3.89,1.88,8.55,1.88a26.33,26.33,0,0,0,12.41-2.93C416.49,797.83,415.46,795.62,414.46,794.61Zm0,0c-1.24-1.25-4.26-2-8.3-2-5.1,0-8.31,1.17-9.59,2.27-.33.28-1.21,1-1.21,4.11,0,.84.08,2.84.78,3.42,1,.87,3.89,1.88,8.55,1.88a26.33,26.33,0,0,0,12.41-2.93C416.49,797.83,415.46,795.62,414.46,794.61Zm0,0c-1.24-1.25-4.26-2-8.3-2-5.1,0-8.31,1.17-9.59,2.27-.33.28-1.21,1-1.21,4.11,0,.84.08,2.84.78,3.42,1,.87,3.89,1.88,8.55,1.88a26.33,26.33,0,0,0,12.41-2.93C416.49,797.83,415.46,795.62,414.46,794.61Zm0,0c-1.24-1.25-4.26-2-8.3-2-5.1,0-8.31,1.17-9.59,2.27-.33.28-1.21,1-1.21,4.11,0,.84.08,2.84.78,3.42,1,.87,3.89,1.88,8.55,1.88a26.33,26.33,0,0,0,12.41-2.93C416.49,797.83,415.46,795.62,414.46,794.61Zm0,0c-1.24-1.25-4.26-2-8.3-2-5.1,0-8.31,1.17-9.59,2.27-.33.28-1.21,1-1.21,4.11,0,.84.08,2.84.78,3.42,1,.87,3.89,1.88,8.55,1.88a26.33,26.33,0,0,0,12.41-2.93C416.49,797.83,415.46,795.62,414.46,794.61Zm0,0c-1.24-1.25-4.26-2-8.3-2-5.1,0-8.31,1.17-9.59,2.27-.33.28-1.21,1-1.21,4.11,0,.84.08,2.84.78,3.42,1,.87,3.89,1.88,8.55,1.88a26.33,26.33,0,0,0,12.41-2.93C416.49,797.83,415.46,795.62,414.46,794.61Zm0,0c-1.24-1.25-4.26-2-8.3-2-5.1,0-8.31,1.17-9.59,2.27-.33.28-1.21,1-1.21,4.11,0,.84.08,2.84.78,3.42,1,.87,3.89,1.88,8.55,1.88a26.33,26.33,0,0,0,12.41-2.93C416.49,797.83,415.46,795.62,414.46,794.61Zm0,0c-1.24-1.25-4.26-2-8.3-2-5.1,0-8.31,1.17-9.59,2.27-.33.28-1.21,1-1.21,4.11,0,.84.08,2.84.78,3.42,1,.87,3.89,1.88,8.55,1.88a26.33,26.33,0,0,0,12.41-2.93C416.49,797.83,415.46,795.62,414.46,794.61Zm0,0c-1.24-1.25-4.26-2-8.3-2-5.1,0-8.31,1.17-9.59,2.27-.33.28-1.21,1-1.21,4.11,0,.84.08,2.84.78,3.42,1,.87,3.89,1.88,8.55,1.88a26.33,26.33,0,0,0,12.41-2.93C416.49,797.83,415.46,795.62,414.46,794.61Zm0,0c-1.24-1.25-4.26-2-8.3-2-5.1,0-8.31,1.17-9.59,2.27-.33.28-1.21,1-1.21,4.11,0,.84.08,2.84.78,3.42,1,.87,3.89,1.88,8.55,1.88a26.33,26.33,0,0,0,12.41-2.93C416.49,797.83,415.46,795.62,414.46,794.61Zm208.89,0c-1.24-1.25-4.26-2-8.31-2-5.1,0-8.29,1.17-9.59,2.27-.33.28-1.2,1-1.2,4.11,0,.84.08,2.84.77,3.42,1,.87,3.89,1.88,8.55,1.88A26.43,26.43,0,0,0,626,801.38C625.37,797.83,624.34,795.62,623.35,794.61Zm0,0c-1.24-1.25-4.26-2-8.31-2-5.1,0-8.29,1.17-9.59,2.27-.33.28-1.2,1-1.2,4.11,0,.84.08,2.84.77,3.42,1,.87,3.89,1.88,8.55,1.88A26.43,26.43,0,0,0,626,801.38C625.37,797.83,624.34,795.62,623.35,794.61Zm-208.89,0c-1.24-1.25-4.26-2-8.3-2-5.1,0-8.31,1.17-9.59,2.27-.33.28-1.21,1-1.21,4.11,0,.84.08,2.84.78,3.42,1,.87,3.89,1.88,8.55,1.88a26.33,26.33,0,0,0,12.41-2.93C416.49,797.83,415.46,795.62,414.46,794.61Zm0,0c-1.24-1.25-4.26-2-8.3-2-5.1,0-8.31,1.17-9.59,2.27-.33.28-1.21,1-1.21,4.11,0,.84.08,2.84.78,3.42,1,.87,3.89,1.88,8.55,1.88a26.33,26.33,0,0,0,12.41-2.93C416.49,797.83,415.46,795.62,414.46,794.61Zm0,0c-1.24-1.25-4.26-2-8.3-2-5.1,0-8.31,1.17-9.59,2.27-.33.28-1.21,1-1.21,4.11,0,.84.08,2.84.78,3.42,1,.87,3.89,1.88,8.55,1.88a26.33,26.33,0,0,0,12.41-2.93C416.49,797.83,415.46,795.62,414.46,794.61Zm0,0c-1.24-1.25-4.26-2-8.3-2-5.1,0-8.31,1.17-9.59,2.27-.33.28-1.21,1-1.21,4.11,0,.84.08,2.84.78,3.42,1,.87,3.89,1.88,8.55,1.88a26.33,26.33,0,0,0,12.41-2.93C416.49,797.83,415.46,795.62,414.46,794.61Zm0,0c-1.24-1.25-4.26-2-8.3-2-5.1,0-8.31,1.17-9.59,2.27-.33.28-1.21,1-1.21,4.11,0,.84.08,2.84.78,3.42,1,.87,3.89,1.88,8.55,1.88a26.33,26.33,0,0,0,12.41-2.93C416.49,797.83,415.46,795.62,414.46,794.61Zm0,0c-1.24-1.25-4.26-2-8.3-2-5.1,0-8.31,1.17-9.59,2.27-.33.28-1.21,1-1.21,4.11,0,.84.08,2.84.78,3.42,1,.87,3.89,1.88,8.55,1.88a26.33,26.33,0,0,0,12.41-2.93C416.49,797.83,415.46,795.62,414.46,794.61Zm0,0c-1.24-1.25-4.26-2-8.3-2-5.1,0-8.31,1.17-9.59,2.27-.33.28-1.21,1-1.21,4.11,0,.84.08,2.84.78,3.42,1,.87,3.89,1.88,8.55,1.88a26.33,26.33,0,0,0,12.41-2.93C416.49,797.83,415.46,795.62,414.46,794.61Zm0,0c-1.24-1.25-4.26-2-8.3-2-5.1,0-8.31,1.17-9.59,2.27-.33.28-1.21,1-1.21,4.11,0,.84.08,2.84.78,3.42,1,.87,3.89,1.88,8.55,1.88a26.33,26.33,0,0,0,12.41-2.93C416.49,797.83,415.46,795.62,414.46,794.61Zm0,0c-1.24-1.25-4.26-2-8.3-2-5.1,0-8.31,1.17-9.59,2.27-.33.28-1.21,1-1.21,4.11,0,.84.08,2.84.78,3.42,1,.87,3.89,1.88,8.55,1.88a26.33,26.33,0,0,0,12.41-2.93C416.49,797.83,415.46,795.62,414.46,794.61Zm0,0c-1.24-1.25-4.26-2-8.3-2-5.1,0-8.31,1.17-9.59,2.27-.33.28-1.21,1-1.21,4.11,0,.84.08,2.84.78,3.42,1,.87,3.89,1.88,8.55,1.88a26.33,26.33,0,0,0,12.41-2.93C416.49,797.83,415.46,795.62,414.46,794.61Zm0,0c-1.24-1.25-4.26-2-8.3-2-5.1,0-8.31,1.17-9.59,2.27-.33.28-1.21,1-1.21,4.11,0,.84.08,2.84.78,3.42,1,.87,3.89,1.88,8.55,1.88a26.33,26.33,0,0,0,12.41-2.93C416.49,797.83,415.46,795.62,414.46,794.61Zm0,0c-1.24-1.25-4.26-2-8.3-2-5.1,0-8.31,1.17-9.59,2.27-.33.28-1.21,1-1.21,4.11,0,.84.08,2.84.78,3.42,1,.87,3.89,1.88,8.55,1.88a26.33,26.33,0,0,0,12.41-2.93C416.49,797.83,415.46,795.62,414.46,794.61Zm0,0c-1.24-1.25-4.26-2-8.3-2-5.1,0-8.31,1.17-9.59,2.27-.33.28-1.21,1-1.21,4.11,0,.84.08,2.84.78,3.42,1,.87,3.89,1.88,8.55,1.88a26.33,26.33,0,0,0,12.41-2.93C416.49,797.83,415.46,795.62,414.46,794.61Zm0,0c-1.24-1.25-4.26-2-8.3-2-5.1,0-8.31,1.17-9.59,2.27-.33.28-1.21,1-1.21,4.11,0,.84.08,2.84.78,3.42,1,.87,3.89,1.88,8.55,1.88a26.33,26.33,0,0,0,12.41-2.93C416.49,797.83,415.46,795.62,414.46,794.61Zm-8.3-2c-5.1,0-8.31,1.17-9.59,2.27-.33.28-1.21,1-1.21,4.11,0,.84.08,2.84.78,3.42,1,.87,3.89,1.88,8.55,1.88a26.33,26.33,0,0,0,12.41-2.93c-.61-3.55-1.64-5.76-2.64-6.77C413.22,793.36,410.2,792.63,406.16,792.63Zm8.3,2c-1.24-1.25-4.26-2-8.3-2-5.1,0-8.31,1.17-9.59,2.27-.33.28-1.21,1-1.21,4.11,0,.84.08,2.84.78,3.42,1,.87,3.89,1.88,8.55,1.88a26.33,26.33,0,0,0,12.41-2.93C416.49,797.83,415.46,795.62,414.46,794.61Zm0,0c-1.24-1.25-4.26-2-8.3-2-5.1,0-8.31,1.17-9.59,2.27-.33.28-1.21,1-1.21,4.11,0,.84.08,2.84.78,3.42,1,.87,3.89,1.88,8.55,1.88a26.33,26.33,0,0,0,12.41-2.93C416.49,797.83,415.46,795.62,414.46,794.61Zm0,0c-1.24-1.25-4.26-2-8.3-2-5.1,0-8.31,1.17-9.59,2.27-.33.28-1.21,1-1.21,4.11,0,.84.08,2.84.78,3.42,1,.87,3.89,1.88,8.55,1.88a26.33,26.33,0,0,0,12.41-2.93C416.49,797.83,415.46,795.62,414.46,794.61Zm0,0c-1.24-1.25-4.26-2-8.3-2-5.1,0-8.31,1.17-9.59,2.27-.33.28-1.21,1-1.21,4.11,0,.84.08,2.84.78,3.42,1,.87,3.89,1.88,8.55,1.88a26.33,26.33,0,0,0,12.41-2.93C416.49,797.83,415.46,795.62,414.46,794.61Zm0,0c-1.24-1.25-4.26-2-8.3-2-5.1,0-8.31,1.17-9.59,2.27-.33.28-1.21,1-1.21,4.11,0,.84.08,2.84.78,3.42,1,.87,3.89,1.88,8.55,1.88a26.33,26.33,0,0,0,12.41-2.93C416.49,797.83,415.46,795.62,414.46,794.61Zm0,0c-1.24-1.25-4.26-2-8.3-2-5.1,0-8.31,1.17-9.59,2.27-.33.28-1.21,1-1.21,4.11,0,.84.08,2.84.78,3.42,1,.87,3.89,1.88,8.55,1.88a26.33,26.33,0,0,0,12.41-2.93C416.49,797.83,415.46,795.62,414.46,794.61Zm0,0c-1.24-1.25-4.26-2-8.3-2-5.1,0-8.31,1.17-9.59,2.27-.33.28-1.21,1-1.21,4.11,0,.84.08,2.84.78,3.42,1,.87,3.89,1.88,8.55,1.88a26.33,26.33,0,0,0,12.41-2.93C416.49,797.83,415.46,795.62,414.46,794.61Zm0,0c-1.24-1.25-4.26-2-8.3-2-5.1,0-8.31,1.17-9.59,2.27-.33.28-1.21,1-1.21,4.11,0,.84.08,2.84.78,3.42,1,.87,3.89,1.88,8.55,1.88a26.33,26.33,0,0,0,12.41-2.93C416.49,797.83,415.46,795.62,414.46,794.61Zm0,0c-1.24-1.25-4.26-2-8.3-2-5.1,0-8.31,1.17-9.59,2.27-.33.28-1.21,1-1.21,4.11,0,.84.08,2.84.78,3.42,1,.87,3.89,1.88,8.55,1.88a26.33,26.33,0,0,0,12.41-2.93C416.49,797.83,415.46,795.62,414.46,794.61Zm0,0c-1.24-1.25-4.26-2-8.3-2-5.1,0-8.31,1.17-9.59,2.27-.33.28-1.21,1-1.21,4.11,0,.84.08,2.84.78,3.42,1,.87,3.89,1.88,8.55,1.88a26.33,26.33,0,0,0,12.41-2.93C416.49,797.83,415.46,795.62,414.46,794.61Zm0,0c-1.24-1.25-4.26-2-8.3-2-5.1,0-8.31,1.17-9.59,2.27-.33.28-1.21,1-1.21,4.11,0,.84.08,2.84.78,3.42,1,.87,3.89,1.88,8.55,1.88a26.33,26.33,0,0,0,12.41-2.93C416.49,797.83,415.46,795.62,414.46,794.61Zm0,0c-1.24-1.25-4.26-2-8.3-2-5.1,0-8.31,1.17-9.59,2.27-.33.28-1.21,1-1.21,4.11,0,.84.08,2.84.78,3.42,1,.87,3.89,1.88,8.55,1.88a26.33,26.33,0,0,0,12.41-2.93C416.49,797.83,415.46,795.62,414.46,794.61Zm0,0c-1.24-1.25-4.26-2-8.3-2-5.1,0-8.31,1.17-9.59,2.27-.33.28-1.21,1-1.21,4.11,0,.84.08,2.84.78,3.42,1,.87,3.89,1.88,8.55,1.88a26.33,26.33,0,0,0,12.41-2.93C416.49,797.83,415.46,795.62,414.46,794.61Zm0,0c-1.24-1.25-4.26-2-8.3-2-5.1,0-8.31,1.17-9.59,2.27-.33.28-1.21,1-1.21,4.11,0,.84.08,2.84.78,3.42,1,.87,3.89,1.88,8.55,1.88a26.33,26.33,0,0,0,12.41-2.93C416.49,797.83,415.46,795.62,414.46,794.61Zm0,0c-1.24-1.25-4.26-2-8.3-2-5.1,0-8.31,1.17-9.59,2.27-.33.28-1.21,1-1.21,4.11,0,.84.08,2.84.78,3.42,1,.87,3.89,1.88,8.55,1.88a26.33,26.33,0,0,0,12.41-2.93C416.49,797.83,415.46,795.62,414.46,794.61Zm0,0c-1.24-1.25-4.26-2-8.3-2-5.1,0-8.31,1.17-9.59,2.27-.33.28-1.21,1-1.21,4.11,0,.84.08,2.84.78,3.42,1,.87,3.89,1.88,8.55,1.88a26.33,26.33,0,0,0,12.41-2.93C416.49,797.83,415.46,795.62,414.46,794.61Zm0,0c-1.24-1.25-4.26-2-8.3-2-5.1,0-8.31,1.17-9.59,2.27-.33.28-1.21,1-1.21,4.11,0,.84.08,2.84.78,3.42,1,.87,3.89,1.88,8.55,1.88a26.33,26.33,0,0,0,12.41-2.93C416.49,797.83,415.46,795.62,414.46,794.61Zm0,0c-1.24-1.25-4.26-2-8.3-2-5.1,0-8.31,1.17-9.59,2.27-.33.28-1.21,1-1.21,4.11,0,.84.08,2.84.78,3.42,1,.87,3.89,1.88,8.55,1.88a26.33,26.33,0,0,0,12.41-2.93C416.49,797.83,415.46,795.62,414.46,794.61Zm0,0c-1.24-1.25-4.26-2-8.3-2-5.1,0-8.31,1.17-9.59,2.27-.33.28-1.21,1-1.21,4.11,0,.84.08,2.84.78,3.42,1,.87,3.89,1.88,8.55,1.88a26.33,26.33,0,0,0,12.41-2.93C416.49,797.83,415.46,795.62,414.46,794.61Zm0,0c-1.24-1.25-4.26-2-8.3-2-5.1,0-8.31,1.17-9.59,2.27-.33.28-1.21,1-1.21,4.11,0,.84.08,2.84.78,3.42,1,.87,3.89,1.88,8.55,1.88a26.33,26.33,0,0,0,12.41-2.93C416.49,797.83,415.46,795.62,414.46,794.61Zm0,0c-1.24-1.25-4.26-2-8.3-2-5.1,0-8.31,1.17-9.59,2.27-.33.28-1.21,1-1.21,4.11,0,.84.08,2.84.78,3.42,1,.87,3.89,1.88,8.55,1.88a26.33,26.33,0,0,0,12.41-2.93C416.49,797.83,415.46,795.62,414.46,794.61Zm0,0c-1.24-1.25-4.26-2-8.3-2-5.1,0-8.31,1.17-9.59,2.27-.33.28-1.21,1-1.21,4.11,0,.84.08,2.84.78,3.42,1,.87,3.89,1.88,8.55,1.88a26.33,26.33,0,0,0,12.41-2.93C416.49,797.83,415.46,795.62,414.46,794.61Zm0,0c-1.24-1.25-4.26-2-8.3-2-5.1,0-8.31,1.17-9.59,2.27-.33.28-1.21,1-1.21,4.11,0,.84.08,2.84.78,3.42,1,.87,3.89,1.88,8.55,1.88a26.33,26.33,0,0,0,12.41-2.93C416.49,797.83,415.46,795.62,414.46,794.61Zm0,0c-1.24-1.25-4.26-2-8.3-2-5.1,0-8.31,1.17-9.59,2.27-.33.28-1.21,1-1.21,4.11,0,.84.08,2.84.78,3.42,1,.87,3.89,1.88,8.55,1.88a26.33,26.33,0,0,0,12.41-2.93C416.49,797.83,415.46,795.62,414.46,794.61Zm0,0c-1.24-1.25-4.26-2-8.3-2-5.1,0-8.31,1.17-9.59,2.27-.33.28-1.21,1-1.21,4.11,0,.84.08,2.84.78,3.42,1,.87,3.89,1.88,8.55,1.88a26.33,26.33,0,0,0,12.41-2.93C416.49,797.83,415.46,795.62,414.46,794.61Zm0,0c-1.24-1.25-4.26-2-8.3-2-5.1,0-8.31,1.17-9.59,2.27-.33.28-1.21,1-1.21,4.11,0,.84.08,2.84.78,3.42,1,.87,3.89,1.88,8.55,1.88a26.33,26.33,0,0,0,12.41-2.93C416.49,797.83,415.46,795.62,414.46,794.61Zm0,0c-1.24-1.25-4.26-2-8.3-2-5.1,0-8.31,1.17-9.59,2.27-.33.28-1.21,1-1.21,4.11,0,.84.08,2.84.78,3.42,1,.87,3.89,1.88,8.55,1.88a26.33,26.33,0,0,0,12.41-2.93C416.49,797.83,415.46,795.62,414.46,794.61Zm0,0c-1.24-1.25-4.26-2-8.3-2-5.1,0-8.31,1.17-9.59,2.27-.33.28-1.21,1-1.21,4.11,0,.84.08,2.84.78,3.42,1,.87,3.89,1.88,8.55,1.88a26.33,26.33,0,0,0,12.41-2.93C416.49,797.83,415.46,795.62,414.46,794.61Zm0,0c-1.24-1.25-4.26-2-8.3-2-5.1,0-8.31,1.17-9.59,2.27-.33.28-1.21,1-1.21,4.11,0,.84.08,2.84.78,3.42,1,.87,3.89,1.88,8.55,1.88a26.33,26.33,0,0,0,12.41-2.93C416.49,797.83,415.46,795.62,414.46,794.61Zm0,0c-1.24-1.25-4.26-2-8.3-2-5.1,0-8.31,1.17-9.59,2.27-.33.28-1.21,1-1.21,4.11,0,.84.08,2.84.78,3.42,1,.87,3.89,1.88,8.55,1.88a26.33,26.33,0,0,0,12.41-2.93C416.49,797.83,415.46,795.62,414.46,794.61Zm-8.3-2c-5.1,0-8.31,1.17-9.59,2.27-.33.28-1.21,1-1.21,4.11,0,.84.08,2.84.78,3.42,1,.87,3.89,1.88,8.55,1.88a26.33,26.33,0,0,0,12.41-2.93c-.61-3.55-1.64-5.76-2.64-6.77C413.22,793.36,410.2,792.63,406.16,792.63Zm8.3,2c-1.24-1.25-4.26-2-8.3-2-5.1,0-8.31,1.17-9.59,2.27-.33.28-1.21,1-1.21,4.11,0,.84.08,2.84.78,3.42,1,.87,3.89,1.88,8.55,1.88a26.33,26.33,0,0,0,12.41-2.93C416.49,797.83,415.46,795.62,414.46,794.61Zm0,0c-1.24-1.25-4.26-2-8.3-2-5.1,0-8.31,1.17-9.59,2.27-.33.28-1.21,1-1.21,4.11,0,.84.08,2.84.78,3.42,1,.87,3.89,1.88,8.55,1.88a26.33,26.33,0,0,0,12.41-2.93C416.49,797.83,415.46,795.62,414.46,794.61Zm0,0c-1.24-1.25-4.26-2-8.3-2-5.1,0-8.31,1.17-9.59,2.27-.33.28-1.21,1-1.21,4.11,0,.84.08,2.84.78,3.42,1,.87,3.89,1.88,8.55,1.88a26.33,26.33,0,0,0,12.41-2.93C416.49,797.83,415.46,795.62,414.46,794.61Zm0,0c-1.24-1.25-4.26-2-8.3-2-5.1,0-8.31,1.17-9.59,2.27-.33.28-1.21,1-1.21,4.11,0,.84.08,2.84.78,3.42,1,.87,3.89,1.88,8.55,1.88a26.33,26.33,0,0,0,12.41-2.93C416.49,797.83,415.46,795.62,414.46,794.61Zm0,0c-1.24-1.25-4.26-2-8.3-2-5.1,0-8.31,1.17-9.59,2.27-.33.28-1.21,1-1.21,4.11,0,.84.08,2.84.78,3.42,1,.87,3.89,1.88,8.55,1.88a26.33,26.33,0,0,0,12.41-2.93C416.49,797.83,415.46,795.62,414.46,794.61Zm0,0c-1.24-1.25-4.26-2-8.3-2-5.1,0-8.31,1.17-9.59,2.27-.33.28-1.21,1-1.21,4.11,0,.84.08,2.84.78,3.42,1,.87,3.89,1.88,8.55,1.88a26.33,26.33,0,0,0,12.41-2.93C416.49,797.83,415.46,795.62,414.46,794.61Zm0,0c-1.24-1.25-4.26-2-8.3-2-5.1,0-8.31,1.17-9.59,2.27-.33.28-1.21,1-1.21,4.11,0,.84.08,2.84.78,3.42,1,.87,3.89,1.88,8.55,1.88a26.33,26.33,0,0,0,12.41-2.93C416.49,797.83,415.46,795.62,414.46,794.61Zm0,0c-1.24-1.25-4.26-2-8.3-2-5.1,0-8.31,1.17-9.59,2.27-.33.28-1.21,1-1.21,4.11,0,.84.08,2.84.78,3.42,1,.87,3.89,1.88,8.55,1.88a26.33,26.33,0,0,0,12.41-2.93C416.49,797.83,415.46,795.62,414.46,794.61Zm0,0c-1.24-1.25-4.26-2-8.3-2-5.1,0-8.31,1.17-9.59,2.27-.33.28-1.21,1-1.21,4.11,0,.84.08,2.84.78,3.42,1,.87,3.89,1.88,8.55,1.88a26.33,26.33,0,0,0,12.41-2.93C416.49,797.83,415.46,795.62,414.46,794.61Zm0,0c-1.24-1.25-4.26-2-8.3-2-5.1,0-8.31,1.17-9.59,2.27-.33.28-1.21,1-1.21,4.11,0,.84.08,2.84.78,3.42,1,.87,3.89,1.88,8.55,1.88a26.33,26.33,0,0,0,12.41-2.93C416.49,797.83,415.46,795.62,414.46,794.61Zm0,0c-1.24-1.25-4.26-2-8.3-2-5.1,0-8.31,1.17-9.59,2.27-.33.28-1.21,1-1.21,4.11,0,.84.08,2.84.78,3.42,1,.87,3.89,1.88,8.55,1.88a26.33,26.33,0,0,0,12.41-2.93C416.49,797.83,415.46,795.62,414.46,794.61Zm0,0c-1.24-1.25-4.26-2-8.3-2-5.1,0-8.31,1.17-9.59,2.27-.33.28-1.21,1-1.21,4.11,0,.84.08,2.84.78,3.42,1,.87,3.89,1.88,8.55,1.88a26.33,26.33,0,0,0,12.41-2.93C416.49,797.83,415.46,795.62,414.46,794.61Zm0,0c-1.24-1.25-4.26-2-8.3-2-5.1,0-8.31,1.17-9.59,2.27-.33.28-1.21,1-1.21,4.11,0,.84.08,2.84.78,3.42,1,.87,3.89,1.88,8.55,1.88a26.33,26.33,0,0,0,12.41-2.93C416.49,797.83,415.46,795.62,414.46,794.61Zm0,0c-1.24-1.25-4.26-2-8.3-2-5.1,0-8.31,1.17-9.59,2.27-.33.28-1.21,1-1.21,4.11,0,.84.08,2.84.78,3.42,1,.87,3.89,1.88,8.55,1.88a26.33,26.33,0,0,0,12.41-2.93C416.49,797.83,415.46,795.62,414.46,794.61Z"
          transform="translate(-13.43 -10.96)" />
    <path class="bfcdf9b3-a226-442d-ad4d-6b95c819eb0a"
          d="M710.66,829.66c-.63-72-34.53-112.31-96.53-112.31-53.23,0-88.09,30.17-93.29,73.2a92.62,92.62,0,0,0-.69,11.41A87.75,87.75,0,0,0,524.57,830c9.67,28.79,34.79,48.47,70.65,48.47,26.43,0,46.62-10.64,57.26-31.76a93.39,93.39,0,0,1-4.54,25.63A382.9,382.9,0,0,0,710.66,829.66Zm-61.3-19.26c-8.08,11.2-21.47,16.71-35.79,16.71-18.9,0-32.11-9.73-32.11-28.1s13.39-29.18,33.58-29.18C641.11,769.83,649.73,787.64,649.36,810.4ZM545.48,893.92l-6.69,17.76q15.65-3,30.81-7.35A88.41,88.41,0,0,1,545.48,893.92Zm-21.87-21.8c-.71-.76-1.39-1.51-2.08-2.3a166.37,166.37,0,0,1-14.63,46.69c2-.21,4-.44,6-.69l11.28-29.94a22.74,22.74,0,0,1,5.29-8.15C527.4,876,525.47,874.08,523.61,872.12ZM789.79,717.35c-36,0-59.84,25-59.84,60.19a65,65,0,0,0,6.29,28.67q7.66-7.65,14.85-15.75a384,384,0,0,0,50.72-72.12A71.68,71.68,0,0,0,789.79,717.35Zm57.74-201.58A383,383,0,0,0,485.1,153.3q-10-.54-20.07-.53T445,153.3a381.47,381.47,0,0,0-241,102.24A388,388,0,0,0,176,284.42,381.36,381.36,0,0,0,82.52,515.77q-.51,9.94-.51,20t.53,20.14a383.54,383.54,0,0,0,231.9,332.14l.82-2.17a22.46,22.46,0,0,1,5.28-8.15q-3-2.67-5.81-5.61c-16.94-18-26.27-42.89-26.27-70.16,0-63.24,48-107.41,116.78-107.41,37.58,0,68.42,13.08,89.21,37.84a110.27,110.27,0,0,1,13.83,21c17.93-36.16,56.55-58.86,105.85-58.86,37.57,0,68.42,13.08,89.2,37.84a103.42,103.42,0,0,1,9.46,13.21,78.59,78.59,0,0,1,17.33-27.36c15-15.28,36.22-23.69,59.67-23.69a91.08,91.08,0,0,1,22.62,2.78,381,381,0,0,0,35.11-141.42q.54-10,.53-20.14T847.53,515.77Z"
          transform="translate(-13.43 -10.96)" />
    <path class="a2b9e0ae-bbbf-4bd6-aa71-2b5ccc7a63d7"
          d="M485.1,153.3v71.95H445V153.3q10-.54,20.08-.53T485.1,153.3Z" transform="translate(-13.43 -10.96)" />
    <path class="a2b9e0ae-bbbf-4bd6-aa71-2b5ccc7a63d7"
          d="M848.05,535.77q0,10.14-.53,20.14H774V515.77h73.57Q848.06,525.71,848.05,535.77Z"
          transform="translate(-13.43 -10.96)" />
    <path class="a2b9e0ae-bbbf-4bd6-aa71-2b5ccc7a63d7" d="M152.76,515.77v40.14H82.54q-.54-10-.53-20.14t.51-20Z"
          transform="translate(-13.43 -10.96)" />
    <path class="a2b9e0ae-bbbf-4bd6-aa71-2b5ccc7a63d7"
          d="M746.42,275.94l-51.82,53-28.7-28.07,51.78-53A381.92,381.92,0,0,1,746.42,275.94Z"
          transform="translate(-13.43 -10.96)" />
    <path class="a2b9e0ae-bbbf-4bd6-aa71-2b5ccc7a63d7"
          d="M260.35,773.14,211.62,823A382,382,0,0,1,183,794.88l48.7-49.81Z" transform="translate(-13.43 -10.96)" />
    <path class="a2b9e0ae-bbbf-4bd6-aa71-2b5ccc7a63d7"
          d="M253.86,304.36l-28.06,28.7L176,284.42a388,388,0,0,1,27.9-28.88Z"
          transform="translate(-13.43 -10.96)" />
    <rect class="a2b9e0ae-bbbf-4bd6-aa71-2b5ccc7a63d7" x="431.21" y="327.27" width="40.14" height="207.95"
          rx="14.09" />
    <rect class="a2b9e0ae-bbbf-4bd6-aa71-2b5ccc7a63d7" x="487.69" y="492.68" width="40.14" height="146.79"
          rx="14.09" transform="translate(1254.51 535.84) rotate(130.44)" />
    <path class="bfcdf9b3-a226-442d-ad4d-6b95c819eb0a"
          d="M502.53,831.69c0,78.19-37.08,130.87-114.17,130.87-26.25,0-50.66-6.24-70.12-18l19.09-50.66c14.87,9.17,30.84,13.58,50.11,13.58,34.14,0,54.88-19.83,56.9-60.76-10.64,21.11-30.83,31.76-57.26,31.76C340.45,878.5,312,845.28,312,802c0-49,36.16-84.62,94-84.62C468.57,717.34,502.53,758.45,502.53,831.69ZM441.22,810.4c.37-22.76-8.26-40.56-34.32-40.56-20.19,0-33.59,10.82-33.59,29.18s13.21,28.08,32.12,28.08C419.75,827.1,433.15,821.6,441.22,810.4Z"
          transform="translate(-13.43 -10.96)" />
    <path class="bfcdf9b3-a226-442d-ad4d-6b95c819eb0a"
          d="M711.42,831.69c0,78.19-37.08,130.87-114.17,130.87-26.25,0-50.66-6.24-70.12-18l19.09-50.66c14.87,9.17,30.84,13.58,50.11,13.58,34.14,0,54.88-19.83,56.9-60.76C642.59,867.85,622.39,878.5,596,878.5c-46.62,0-75.07-33.22-75.07-76.54,0-49,36.16-84.62,94-84.62C677.46,717.34,711.42,758.45,711.42,831.69ZM650.11,810.4c.37-22.76-8.26-40.56-34.32-40.56-20.19,0-33.59,10.82-33.59,29.18s13.21,28.08,32.12,28.08C628.64,827.1,642,821.6,650.11,810.4Z"
          transform="translate(-13.43 -10.96)" />
    <path class="bfcdf9b3-a226-442d-ad4d-6b95c819eb0a"
          d="M730.69,777.54c0-35.24,23.87-60.2,59.84-60.2s59.47,25,59.47,60.2c0,34.88-23.49,59.84-59.47,59.84S730.69,812.42,730.69,777.54Zm179.89-56.9h52.86L807.05,959.26H754.19ZM806,777.54c0-11.74-5.87-19.09-15.42-19.09-9.91,0-15.78,7.35-15.78,19.09,0,11.38,5.87,18.36,15.78,18.36C800.08,795.9,806,788.92,806,777.54Zm61.31,124.82c0-34.88,23.49-59.84,59.47-59.84s59.84,25,59.84,59.84c0,35.24-23.87,60.2-59.84,60.2S867.26,937.6,867.26,902.36Zm74.89,0c0-11.38-5.51-18.36-15.42-18.36-9.55,0-15.42,7-15.42,18.36,0,11.75,5.87,19.09,15.42,19.09C936.64,921.45,942.15,914.11,942.15,902.36Z"
          transform="translate(-13.43 -10.96)" />
    <path class="bbee6c17-f348-4fd4-b4dc-720e4aa682cf"
          d="M520.84,790.55a92.62,92.62,0,0,0-.69,11.41A87.75,87.75,0,0,0,524.57,830,211.61,211.61,0,0,0,520.84,790.55ZM402.49,984.75,298.67,957.4"
          transform="translate(-13.43 -10.96)" />
</svg>
