<svg id="f1431ca5-1023-4257-8068-85c1859ae18b" data-name="Layer 1" xmlns="http://www.w3.org/2000/svg"
     viewBox="0 0 904.12 977.29">
    <defs>
        <style>
            .ff6ace2c-6c78-4b79-b2cc-18e4aaa49649 {
            fill: #fff;
            }

            .b04392f0-949b-4de5-8669-e1d476642392 {
            fill: #57b7ff;
            }

            .eaca1e21-f5af-4224-8a82-e42c433493b3 {
            fill: #1684f2;
            }

            .af685eb8-a4e2-4a2f-a7c7-fa8f6a0a545d {
            fill: #c0e7ff;
            }
        </style>
    </defs>
    <polygon class="ff6ace2c-6c78-4b79-b2cc-18e4aaa49649"
             points="29.43 194.94 72.06 173.62 846.73 173.62 885.31 212.2 885.31 751.32 16.22 751.32 16.22 222.35 29.43 194.94">
    </polygon>
    <rect class="b04392f0-949b-4de5-8669-e1d476642392" x="21.8" y="746.35" width="857.41" height="96.96"
          rx="21.52"></rect>
    <path class="b04392f0-949b-4de5-8669-e1d476642392"
          d="M390.47,859h161.2a39.72,39.72,0,0,1,39.72,39.72V956a0,0,0,0,1,0,0H315.73a0,0,0,0,1,0,0V933.79A74.74,74.74,0,0,1,390.47,859Z">
    </path>
    <path class="eaca1e21-f5af-4224-8a82-e42c433493b3"
          d="M830.44,775.61h92.2v27a42.59,42.59,0,0,1-42.54,42.54H119.91a42.58,42.58,0,0,1-42.54-42.54v-27H830.44ZM810.1,746.19H77.37V397.59a14.72,14.72,0,1,0-29.43,0v405a72,72,0,0,0,72,72H372.05l-36.19,84.67h-70.7a14.71,14.71,0,0,0,0,29.42H734.84a14.71,14.71,0,0,0,0-29.42h-70.7L628,874.55H880.09a72,72,0,0,0,72-72V244a72,72,0,0,0-72-72H119.91a72,72,0,0,0-72,72V448.21a14.72,14.72,0,0,0,29.43,0V244a42.59,42.59,0,0,1,42.54-42.54H880.1A42.6,42.6,0,0,1,922.64,244V746.19H810.1Zm-178,213H367.86L393,900.39H607Z"
          transform="translate(-47.94 -11.36)"></path>
    <path class="eaca1e21-f5af-4224-8a82-e42c433493b3"
          d="M512.71,798.58A14.71,14.71,0,0,0,485.79,806c-.64,13.3,16.08,20.53,25.3,10.9A14.8,14.8,0,0,0,512.71,798.58Z"
          transform="translate(-47.94 -11.36)"></path>
    <path class="b04392f0-949b-4de5-8669-e1d476642392" d="M131.33,15.71H869.12V493.12H131.33Z"
          transform="translate(-47.94 -11.36)"></path>
    <rect class="af685eb8-a4e2-4a2f-a7c7-fa8f6a0a545d" x="82.94" width="737.74" height="102.73"></rect>
    <circle class="eaca1e21-f5af-4224-8a82-e42c433493b3" cx="139.81" cy="49.64" r="20.66"></circle>
    <circle class="b04392f0-949b-4de5-8669-e1d476642392" cx="201.54" cy="49.64" r="20.66"></circle>
    <circle class="b04392f0-949b-4de5-8669-e1d476642392" cx="263.28" cy="49.64" r="20.66"></circle>
</svg>
